G04 #@! TF.FileFunction,Copper,L2,Bot,Signal*
%FSLAX46Y46*%
G04 Gerber Fmt 4.6, Leading zero omitted, Abs format (unit mm)*
G04 Created by KiCad (PCBNEW 4.0.7) date 03/26/18 16:32:17*
%MOMM*%
%LPD*%
G01*
G04 APERTURE LIST*
%ADD10C,0.100000*%
%ADD11R,1.000000X1.500000*%
%ADD12R,1.200000X2.200000*%
%ADD13R,3.200000X2.700000*%
%ADD14R,1.250000X1.500000*%
%ADD15O,1.998980X1.998980*%
%ADD16R,1.998980X1.998980*%
%ADD17R,3.500000X3.500000*%
%ADD18R,1.300000X1.500000*%
%ADD19R,0.400000X1.560000*%
%ADD20R,2.250000X1.727200*%
%ADD21O,2.250000X1.727200*%
%ADD22O,1.727200X1.727200*%
%ADD23C,1.524000*%
%ADD24R,1.700000X2.200000*%
%ADD25C,1.500000*%
%ADD26C,0.400000*%
%ADD27C,0.800000*%
%ADD28C,0.300000*%
%ADD29C,0.254000*%
G04 APERTURE END LIST*
D10*
D11*
X10830000Y30325000D03*
X13330000Y30325000D03*
X16630000Y30325000D03*
X18330000Y30325000D03*
X20830000Y30325000D03*
X23330000Y30325000D03*
X25750000Y30325000D03*
X27450000Y30325000D03*
X8330000Y30325000D03*
X14980000Y30325000D03*
X30800000Y30325000D03*
D12*
X3300000Y9325000D03*
X31300000Y8125000D03*
D13*
X73700000Y45000000D03*
X73700000Y52900000D03*
D14*
X18475000Y33175000D03*
X18475000Y35675000D03*
D15*
X73345000Y59100000D03*
D16*
X80965000Y59100000D03*
D15*
X78425000Y59100000D03*
X75885000Y59100000D03*
X60470000Y58950000D03*
D16*
X68090000Y58950000D03*
D15*
X65550000Y58950000D03*
X63010000Y58950000D03*
D17*
X63650000Y12575000D03*
X63650000Y6575000D03*
X68350000Y9575000D03*
D13*
X67725000Y45000000D03*
X67725000Y52900000D03*
X80700000Y45050000D03*
X80700000Y52950000D03*
D18*
X43900000Y49050000D03*
X43900000Y46350000D03*
X46750000Y49050000D03*
X46750000Y46350000D03*
X62750000Y52550000D03*
X62750000Y55250000D03*
D19*
X67145000Y37850000D03*
X67795000Y37850000D03*
X68455000Y37850000D03*
X69105000Y37850000D03*
X69105000Y35150000D03*
X68455000Y35150000D03*
X67795000Y35150000D03*
X67145000Y35150000D03*
D20*
X36175000Y57265000D03*
D21*
X36175000Y54725000D03*
X36175000Y52185000D03*
X36175000Y49645000D03*
X36175000Y47105000D03*
X36175000Y44565000D03*
X36175000Y42025000D03*
X36175000Y39485000D03*
X36175000Y36945000D03*
X36175000Y34405000D03*
X36175000Y31865000D03*
X36175000Y29325000D03*
X36175000Y26785000D03*
X36175000Y24245000D03*
X36175000Y21705000D03*
X36175000Y19165000D03*
X36175000Y16625000D03*
X36175000Y14085000D03*
X36175000Y11545000D03*
X36175000Y9005000D03*
X51415000Y9005000D03*
X51415000Y11545000D03*
X51415000Y14085000D03*
X51415000Y16625000D03*
X51415000Y19165000D03*
X51415000Y21705000D03*
X51415000Y24245000D03*
X51415000Y26785000D03*
X51415000Y29325000D03*
X51415000Y31865000D03*
X51415000Y34405000D03*
X51415000Y36945000D03*
X51415000Y39485000D03*
X51415000Y42025000D03*
X51415000Y44565000D03*
X51415000Y47105000D03*
X51415000Y49645000D03*
X51415000Y52185000D03*
X51415000Y54725000D03*
X51415000Y57315800D03*
D22*
X45075000Y53455000D03*
X42535000Y53455000D03*
D19*
X73320000Y38225000D03*
X73970000Y38225000D03*
X74630000Y38225000D03*
X75280000Y38225000D03*
X75280000Y35525000D03*
X74630000Y35525000D03*
X73970000Y35525000D03*
X73320000Y35525000D03*
X80300000Y38175000D03*
X80950000Y38175000D03*
X81610000Y38175000D03*
X82260000Y38175000D03*
X82260000Y35475000D03*
X81610000Y35475000D03*
X80950000Y35475000D03*
X80300000Y35475000D03*
D23*
X16605000Y12900000D03*
X19145000Y12900000D03*
X21685000Y12900000D03*
X24225000Y12900000D03*
D14*
X30825000Y55200000D03*
X30825000Y52700000D03*
D24*
X58950000Y45100000D03*
X61490000Y45100000D03*
X61490000Y36900000D03*
X58950000Y36900000D03*
D25*
X26420671Y36173756D03*
X56225000Y57425000D03*
X83200000Y40525000D03*
X77134225Y38727857D03*
X71075000Y36525000D03*
X22250000Y26925000D03*
X79748912Y28495499D03*
X43875000Y40200000D03*
X76825000Y35100000D03*
X46500000Y43575000D03*
X27633935Y63555479D03*
D26*
X18330000Y30325000D02*
X18330000Y33030000D01*
X18330000Y33030000D02*
X18475000Y33175000D01*
X25360011Y36173756D02*
X26420671Y36173756D01*
X23928756Y36173756D02*
X25360011Y36173756D01*
X18330000Y30325000D02*
X18330000Y30575000D01*
X18330000Y30575000D02*
X23928756Y36173756D01*
D27*
X56225000Y57425000D02*
X51524200Y57425000D01*
X51524200Y57425000D02*
X51415000Y57315800D01*
D26*
X51415000Y57315800D02*
X49890000Y57315800D01*
X46750000Y54175800D02*
X46750000Y49050000D01*
X49890000Y57315800D02*
X46750000Y54175800D01*
X43900000Y49050000D02*
X46750000Y49050000D01*
X82260000Y38175000D02*
X82260000Y39585000D01*
X82260000Y39585000D02*
X83200000Y40525000D01*
X75280000Y38225000D02*
X76631368Y38225000D01*
X76631368Y38225000D02*
X77134225Y38727857D01*
D28*
X69105000Y37850000D02*
X69750000Y37850000D01*
X69750000Y37850000D02*
X71075000Y36525000D01*
X60450000Y62400000D02*
X60470000Y62380000D01*
X60470000Y62380000D02*
X60470000Y58950000D01*
X61650000Y63600000D02*
X60450000Y62400000D01*
X66248982Y63600000D02*
X61650000Y63600000D01*
X70700000Y59148982D02*
X66248982Y63600000D01*
X70700000Y58075000D02*
X70700000Y59148982D01*
X69775001Y57150001D02*
X70700000Y58075000D01*
X71075000Y48600000D02*
X69775001Y49899999D01*
X69775001Y49899999D02*
X69775001Y57150001D01*
X71075000Y42025000D02*
X71075000Y48600000D01*
X69000000Y39950000D02*
X71075000Y42025000D01*
X69000000Y39475000D02*
X69525000Y40000000D01*
X68455000Y38930000D02*
X69000000Y39475000D01*
X69000000Y39475000D02*
X69000000Y39950000D01*
D26*
X23330000Y30325000D02*
X23330000Y28005000D01*
X23330000Y28005000D02*
X22250000Y26925000D01*
X12125000Y32175000D02*
X12125000Y28850000D01*
X13025000Y33075000D02*
X12125000Y32175000D01*
X15030000Y33075000D02*
X13025000Y33075000D01*
X16630000Y30325000D02*
X16630000Y31475000D01*
X16630000Y31475000D02*
X15030000Y33075000D01*
X17650000Y26450000D02*
X16630000Y27470000D01*
X16630000Y27470000D02*
X16630000Y30325000D01*
X22375000Y26450000D02*
X17650000Y26450000D01*
X23330000Y27405000D02*
X22375000Y26450000D01*
X23330000Y30325000D02*
X23330000Y27405000D01*
D28*
X79500000Y36775000D02*
X81700000Y36775000D01*
X78334226Y37940774D02*
X79500000Y36775000D01*
X75313201Y39988201D02*
X77710226Y39988201D01*
X77710226Y39988201D02*
X78334226Y39364201D01*
X74630000Y38225000D02*
X74630000Y39305000D01*
X74630000Y39305000D02*
X75313201Y39988201D01*
X78334226Y39364201D02*
X78334226Y37940774D01*
X69525000Y40000000D02*
X73320000Y36205000D01*
X73320000Y36205000D02*
X73320000Y35525000D01*
X68455000Y37850000D02*
X68455000Y38930000D01*
X81700000Y36775000D02*
X82000000Y36775000D01*
X81610000Y38175000D02*
X81610000Y37095000D01*
X81610000Y37095000D02*
X81700000Y37005000D01*
X81700000Y37005000D02*
X81700000Y36775000D01*
X83200000Y37025000D02*
X83119999Y36944999D01*
X83119999Y36944999D02*
X82169999Y36944999D01*
X82169999Y36944999D02*
X82000000Y36775000D01*
X67145000Y35150000D02*
X67795000Y35150000D01*
X67795000Y35150000D02*
X67795000Y36110000D01*
X67795000Y36110000D02*
X68455000Y36770000D01*
X68455000Y36770000D02*
X68455000Y37850000D01*
D27*
X73700000Y47150000D02*
X73700000Y45000000D01*
X73700000Y47177096D02*
X73700000Y47150000D01*
X70739031Y50138065D02*
X73700000Y47177096D01*
X70739031Y56494031D02*
X70739031Y50138065D01*
X73345000Y59100000D02*
X70739031Y56494031D01*
D26*
X71925000Y38725000D02*
X72425000Y38225000D01*
X72425000Y38225000D02*
X73269999Y38225000D01*
X71925000Y41475000D02*
X71925000Y38725000D01*
X73700000Y45000000D02*
X73700000Y43250000D01*
X73700000Y43250000D02*
X71925000Y41475000D01*
X80950000Y40825000D02*
X80950000Y38175000D01*
X83550000Y43425000D02*
X80950000Y40825000D01*
X83550000Y48350000D02*
X83550000Y43425000D01*
X80700000Y52950000D02*
X80700000Y51200000D01*
X80700000Y51200000D02*
X83550000Y48350000D01*
D27*
X80965000Y59100000D02*
X80965000Y53215000D01*
X80965000Y53215000D02*
X80700000Y52950000D01*
D26*
X80700000Y45050000D02*
X80700000Y43300000D01*
X80700000Y43300000D02*
X79145651Y41745651D01*
X79738737Y38175000D02*
X80249999Y38175000D01*
X79145651Y41745651D02*
X79145651Y38768086D01*
X79145651Y38768086D02*
X79738737Y38175000D01*
D27*
X77525000Y56786508D02*
X77525000Y50375000D01*
X77525000Y50375000D02*
X80700000Y47200000D01*
X80700000Y47200000D02*
X80700000Y45050000D01*
X78425000Y59100000D02*
X78425000Y57686508D01*
X78425000Y57686508D02*
X77525000Y56786508D01*
D26*
X73970000Y40245000D02*
X73970000Y38225000D01*
X76425000Y42700000D02*
X73970000Y40245000D01*
X76425000Y48425000D02*
X76425000Y42700000D01*
X73700000Y52900000D02*
X73700000Y51150000D01*
X73700000Y51150000D02*
X76425000Y48425000D01*
D27*
X75885000Y59100000D02*
X75885000Y55085000D01*
X75885000Y55085000D02*
X73700000Y52900000D01*
D26*
X67725000Y52900000D02*
X67725000Y49370634D01*
X67725000Y49370634D02*
X70082250Y47013384D01*
X70082250Y47013384D02*
X70082250Y42507250D01*
X70082250Y42507250D02*
X67795000Y40220000D01*
X67795000Y40220000D02*
X67795000Y39300000D01*
X67795000Y39300000D02*
X67795000Y39080002D01*
X67795000Y37850000D02*
X67795000Y39300000D01*
D27*
X68090000Y58950000D02*
X68090000Y53265000D01*
X68090000Y53265000D02*
X67725000Y52900000D01*
D26*
X66050000Y38175000D02*
X66375000Y37850000D01*
X66375000Y37850000D02*
X67094999Y37850000D01*
X66050000Y41575000D02*
X66050000Y38175000D01*
X67725000Y45000000D02*
X67725000Y43250000D01*
X67725000Y43250000D02*
X66050000Y41575000D01*
D27*
X65550000Y58950000D02*
X65550000Y57536508D01*
X65550000Y57536508D02*
X64756279Y56742787D01*
X64756279Y56742787D02*
X64756279Y50118721D01*
X64756279Y50118721D02*
X67725000Y47150000D01*
X67725000Y47150000D02*
X67725000Y45000000D01*
D26*
X57499999Y33949999D02*
X58525000Y34975000D01*
X58525000Y34975000D02*
X58950000Y35400000D01*
X51415000Y19165000D02*
X52940000Y19165000D01*
X52940000Y19165000D02*
X57499999Y23724999D01*
X57499999Y23724999D02*
X57499999Y33949999D01*
X58950000Y35400000D02*
X58950000Y36900000D01*
X26050000Y32250000D02*
X25750000Y31950000D01*
X25750000Y31950000D02*
X25750000Y30325000D01*
X34265000Y32250000D02*
X26050000Y32250000D01*
X36175000Y31865000D02*
X34650000Y31865000D01*
X34650000Y31865000D02*
X34265000Y32250000D01*
X35913600Y31865000D02*
X36175000Y31865000D01*
X13330000Y30325000D02*
X13330000Y28150342D01*
X17230342Y24250000D02*
X29575000Y24250000D01*
X13330000Y28150342D02*
X17230342Y24250000D01*
X29575000Y24250000D02*
X34650000Y29325000D01*
X34650000Y29325000D02*
X36175000Y29325000D01*
X36175000Y29325000D02*
X35913600Y29325000D01*
X36175000Y34405000D02*
X24660000Y34405000D01*
X24660000Y34405000D02*
X20830000Y30575000D01*
X20830000Y30575000D02*
X20830000Y30325000D01*
X36175000Y36945000D02*
X29940029Y36945000D01*
X29940029Y36945000D02*
X28431527Y38453502D01*
X28431527Y38453502D02*
X16863537Y38453502D01*
X16863537Y38453502D02*
X10830000Y32419965D01*
X10830000Y32419965D02*
X10830000Y31475000D01*
X10830000Y31475000D02*
X10830000Y30325000D01*
X79748912Y29556159D02*
X79748912Y28495499D01*
X79748912Y30798912D02*
X79748912Y29556159D01*
X82125000Y33175000D02*
X79748912Y30798912D01*
X51415000Y42025000D02*
X53575000Y42025000D01*
X66725000Y31875000D02*
X80825000Y31875000D01*
X54950000Y40650000D02*
X62175000Y40650000D01*
X62175000Y40650000D02*
X63600000Y39225000D01*
X53575000Y42025000D02*
X54950000Y40650000D01*
X63600000Y39225000D02*
X63600000Y35000000D01*
X63600000Y35000000D02*
X66725000Y31875000D01*
X80825000Y31875000D02*
X82318578Y33368578D01*
X43900000Y46350000D02*
X43900000Y40225000D01*
X43900000Y40225000D02*
X43875000Y40200000D01*
X51415000Y42025000D02*
X45412853Y42025000D01*
X45412853Y42025000D02*
X43900000Y43537853D01*
X43900000Y43537853D02*
X43900000Y46350000D01*
D28*
X82125000Y33175000D02*
X82318578Y33368578D01*
D26*
X75280000Y35525000D02*
X76400000Y35525000D01*
X76400000Y35525000D02*
X76825000Y35100000D01*
X75150000Y33525000D02*
X75280000Y33655000D01*
X75280000Y33655000D02*
X75280000Y35525000D01*
X71230000Y33525000D02*
X75150000Y33525000D01*
X69105000Y35150000D02*
X69605000Y35150000D01*
X69605000Y35150000D02*
X71230000Y33525000D01*
X82318578Y35416422D02*
X82310001Y35424999D01*
X82318578Y33368578D02*
X82318578Y35416422D01*
X51415000Y44565000D02*
X52940000Y44565000D01*
X52940000Y44565000D02*
X55790316Y41714684D01*
X55790316Y41714684D02*
X62885316Y41714684D01*
X62885316Y41714684D02*
X64650000Y39950000D01*
X64650000Y39950000D02*
X64650000Y35475000D01*
X64650000Y35475000D02*
X67300000Y32825000D01*
X67300000Y32825000D02*
X67700000Y32825000D01*
X67700000Y32825000D02*
X67725000Y32850000D01*
X67725000Y32850000D02*
X70125000Y32850000D01*
X48435000Y44565000D02*
X47490000Y44565000D01*
X47490000Y44565000D02*
X46500000Y43575000D01*
X51415000Y44565000D02*
X48435000Y44565000D01*
X48435000Y44565000D02*
X46750000Y46250000D01*
X46750000Y46250000D02*
X46750000Y46350000D01*
X73970000Y35525000D02*
X74300000Y35525000D01*
X74300000Y36335002D02*
X74300000Y35525000D01*
D28*
X74300000Y35525000D02*
X74629999Y35525000D01*
D26*
X78450000Y36825000D02*
X74789998Y36825000D01*
X74789998Y36825000D02*
X74300000Y36335002D01*
X80300000Y35475000D02*
X79800000Y35475000D01*
X79800000Y35475000D02*
X78450000Y36825000D01*
X70125000Y32850000D02*
X77725000Y32850000D01*
X68455000Y35150000D02*
X68455000Y34070000D01*
X68455000Y34070000D02*
X69675000Y32850000D01*
D28*
X69675000Y32850000D02*
X70125000Y32850000D01*
X80300000Y35475000D02*
X80700000Y35475000D01*
X80700000Y35475000D02*
X80950000Y35475000D01*
D26*
X77725000Y32850000D02*
X80350000Y35475000D01*
X80350000Y35475000D02*
X80700000Y35475000D01*
D28*
X81610000Y35475000D02*
X80950000Y35475000D01*
X74629999Y35525000D02*
X74630000Y35525000D01*
D26*
X30802902Y60386512D02*
X28383934Y62805480D01*
X30802902Y57338610D02*
X30802902Y60386512D01*
X36175000Y57265000D02*
X30876512Y57265000D01*
X28383934Y62805480D02*
X27633935Y63555479D01*
X30825000Y55200000D02*
X30825000Y57316512D01*
X30825000Y57316512D02*
X30802902Y57338610D01*
X30876512Y57265000D02*
X30802902Y57338610D01*
X62750000Y55250000D02*
X62750000Y58690000D01*
X62750000Y58690000D02*
X63010000Y58950000D01*
X59664449Y42885551D02*
X62125553Y42885551D01*
X58950000Y43600000D02*
X59664449Y42885551D01*
X62125553Y42885551D02*
X64875000Y45634998D01*
X64875000Y48025000D02*
X62750000Y50150000D01*
X62750000Y50150000D02*
X62750000Y52550000D01*
X58950000Y45100000D02*
X58950000Y43600000D01*
X64875000Y45634998D02*
X64875000Y48025000D01*
X62750000Y52265000D02*
X62750000Y52550000D01*
D29*
G36*
X84238654Y67390674D02*
X84204686Y48844274D01*
X84140434Y48940434D01*
X82128308Y50952560D01*
X82300000Y50952560D01*
X82535317Y50996838D01*
X82751441Y51135910D01*
X82896431Y51348110D01*
X82947440Y51600000D01*
X82947440Y54300000D01*
X82903162Y54535317D01*
X82764090Y54751441D01*
X82551890Y54896431D01*
X82300000Y54947440D01*
X82000000Y54947440D01*
X82000000Y57459752D01*
X82199807Y57497348D01*
X82415931Y57636420D01*
X82560921Y57848620D01*
X82611930Y58100510D01*
X82611930Y60099490D01*
X82567652Y60334807D01*
X82428580Y60550931D01*
X82216380Y60695921D01*
X81964490Y60746930D01*
X79965510Y60746930D01*
X79730193Y60702652D01*
X79514069Y60563580D01*
X79400610Y60397527D01*
X79082514Y60610072D01*
X78457022Y60734490D01*
X78392978Y60734490D01*
X77767486Y60610072D01*
X77237219Y60255759D01*
X77155000Y60132710D01*
X77072781Y60255759D01*
X76542514Y60610072D01*
X75917022Y60734490D01*
X75852978Y60734490D01*
X75227486Y60610072D01*
X74697219Y60255759D01*
X74615000Y60132710D01*
X74532781Y60255759D01*
X74002514Y60610072D01*
X73377022Y60734490D01*
X73312978Y60734490D01*
X72687486Y60610072D01*
X72157219Y60255759D01*
X71802906Y59725492D01*
X71678488Y59100000D01*
X71712135Y58930846D01*
X70007175Y57225887D01*
X69782816Y56890108D01*
X69704030Y56494031D01*
X69704031Y56494026D01*
X69704031Y54759559D01*
X69576890Y54846431D01*
X69325000Y54897440D01*
X69125000Y54897440D01*
X69125000Y57309752D01*
X69324807Y57347348D01*
X69540931Y57486420D01*
X69685921Y57698620D01*
X69736930Y57950510D01*
X69736930Y59949490D01*
X69692652Y60184807D01*
X69553580Y60400931D01*
X69341380Y60545921D01*
X69089490Y60596930D01*
X67090510Y60596930D01*
X66855193Y60552652D01*
X66639069Y60413580D01*
X66525610Y60247527D01*
X66207514Y60460072D01*
X65582022Y60584490D01*
X65517978Y60584490D01*
X64892486Y60460072D01*
X64362219Y60105759D01*
X64280000Y59982710D01*
X64197781Y60105759D01*
X63667514Y60460072D01*
X63042022Y60584490D01*
X62977978Y60584490D01*
X62352486Y60460072D01*
X61822219Y60105759D01*
X61722621Y59956700D01*
X61429726Y60273068D01*
X60850355Y60539627D01*
X60597000Y60420807D01*
X60597000Y59077000D01*
X60617000Y59077000D01*
X60617000Y58823000D01*
X60597000Y58823000D01*
X60597000Y57479193D01*
X60850355Y57360373D01*
X61429726Y57626932D01*
X61722621Y57943300D01*
X61822219Y57794241D01*
X61915000Y57732247D01*
X61915000Y56612630D01*
X61864683Y56603162D01*
X61648559Y56464090D01*
X61503569Y56251890D01*
X61452560Y56000000D01*
X61452560Y54500000D01*
X61496838Y54264683D01*
X61635910Y54048559D01*
X61848110Y53903569D01*
X61861197Y53900919D01*
X61648559Y53764090D01*
X61503569Y53551890D01*
X61452560Y53300000D01*
X61452560Y51800000D01*
X61496838Y51564683D01*
X61635910Y51348559D01*
X61848110Y51203569D01*
X61915000Y51190023D01*
X61915000Y50150000D01*
X61978561Y49830459D01*
X62102481Y49645000D01*
X62159566Y49559566D01*
X64040000Y47679132D01*
X64040000Y45980866D01*
X62924192Y44865058D01*
X62816250Y44973000D01*
X61617000Y44973000D01*
X61617000Y44953000D01*
X61363000Y44953000D01*
X61363000Y44973000D01*
X61343000Y44973000D01*
X61343000Y45227000D01*
X61363000Y45227000D01*
X61363000Y46676250D01*
X61617000Y46676250D01*
X61617000Y45227000D01*
X62816250Y45227000D01*
X62975000Y45385750D01*
X62975000Y46326309D01*
X62878327Y46559698D01*
X62699699Y46738327D01*
X62466310Y46835000D01*
X61775750Y46835000D01*
X61617000Y46676250D01*
X61363000Y46676250D01*
X61204250Y46835000D01*
X60513690Y46835000D01*
X60280301Y46738327D01*
X60222103Y46680129D01*
X60051890Y46796431D01*
X59800000Y46847440D01*
X58100000Y46847440D01*
X57864683Y46803162D01*
X57648559Y46664090D01*
X57503569Y46451890D01*
X57452560Y46200000D01*
X57452560Y44000000D01*
X57496838Y43764683D01*
X57635910Y43548559D01*
X57848110Y43403569D01*
X58100000Y43352560D01*
X58164219Y43352560D01*
X58178561Y43280459D01*
X58301253Y43096838D01*
X58359566Y43009566D01*
X58819448Y42549684D01*
X56136184Y42549684D01*
X53530434Y45155434D01*
X53423328Y45227000D01*
X53259541Y45336439D01*
X52940000Y45400000D01*
X52920670Y45400000D01*
X52770550Y45624670D01*
X52455769Y45835000D01*
X52770550Y46045330D01*
X53095406Y46531511D01*
X53209480Y47105000D01*
X53095406Y47678489D01*
X52770550Y48164670D01*
X52455769Y48375000D01*
X52770550Y48585330D01*
X53095406Y49071511D01*
X53209480Y49645000D01*
X53095406Y50218489D01*
X52770550Y50704670D01*
X52455769Y50915000D01*
X52770550Y51125330D01*
X53095406Y51611511D01*
X53209480Y52185000D01*
X53095406Y52758489D01*
X52770550Y53244670D01*
X52455769Y53455000D01*
X52770550Y53665330D01*
X53095406Y54151511D01*
X53209480Y54725000D01*
X53095406Y55298489D01*
X52770550Y55784670D01*
X52417755Y56020400D01*
X52770550Y56256130D01*
X52859999Y56390000D01*
X55301216Y56390000D01*
X55439436Y56251539D01*
X55948298Y56040241D01*
X56499285Y56039760D01*
X57008515Y56250169D01*
X57398461Y56639436D01*
X57609759Y57148298D01*
X57610240Y57699285D01*
X57399831Y58208515D01*
X57039329Y58569646D01*
X58880381Y58569646D01*
X59077013Y58094916D01*
X59510274Y57626932D01*
X60089645Y57360373D01*
X60343000Y57479193D01*
X60343000Y58823000D01*
X58999735Y58823000D01*
X58880381Y58569646D01*
X57039329Y58569646D01*
X57010564Y58598461D01*
X56501702Y58809759D01*
X55950715Y58810240D01*
X55441485Y58599831D01*
X55301410Y58460000D01*
X52644042Y58460000D01*
X52284369Y58700326D01*
X51710880Y58814400D01*
X51119120Y58814400D01*
X50545631Y58700326D01*
X50059450Y58375470D01*
X49909330Y58150800D01*
X49890000Y58150800D01*
X49570460Y58087240D01*
X49299566Y57906234D01*
X46159566Y54766234D01*
X46049236Y54601114D01*
X45648489Y54868885D01*
X45075000Y54982959D01*
X44501511Y54868885D01*
X44015330Y54544029D01*
X43805000Y54229248D01*
X43594670Y54544029D01*
X43108489Y54868885D01*
X42535000Y54982959D01*
X41961511Y54868885D01*
X41475330Y54544029D01*
X41150474Y54057848D01*
X41036400Y53484359D01*
X41036400Y53425641D01*
X41150474Y52852152D01*
X41475330Y52365971D01*
X41961511Y52041115D01*
X42535000Y51927041D01*
X43108489Y52041115D01*
X43594670Y52365971D01*
X43805000Y52680752D01*
X44015330Y52365971D01*
X44501511Y52041115D01*
X45075000Y51927041D01*
X45648489Y52041115D01*
X45915000Y52219192D01*
X45915000Y50412630D01*
X45864683Y50403162D01*
X45648559Y50264090D01*
X45503569Y50051890D01*
X45469773Y49885000D01*
X45181446Y49885000D01*
X45153162Y50035317D01*
X45014090Y50251441D01*
X44801890Y50396431D01*
X44550000Y50447440D01*
X43250000Y50447440D01*
X43014683Y50403162D01*
X42798559Y50264090D01*
X42653569Y50051890D01*
X42602560Y49800000D01*
X42602560Y48300000D01*
X42646838Y48064683D01*
X42785910Y47848559D01*
X42998110Y47703569D01*
X43011197Y47700919D01*
X42798559Y47564090D01*
X42653569Y47351890D01*
X42602560Y47100000D01*
X42602560Y45600000D01*
X42646838Y45364683D01*
X42785910Y45148559D01*
X42998110Y45003569D01*
X43065000Y44990023D01*
X43065000Y41348392D01*
X42701539Y40985564D01*
X42490241Y40476702D01*
X42489760Y39925715D01*
X42700169Y39416485D01*
X43089436Y39026539D01*
X43598298Y38815241D01*
X44149285Y38814760D01*
X44658515Y39025169D01*
X45048461Y39414436D01*
X45259759Y39923298D01*
X45260240Y40474285D01*
X45049831Y40983515D01*
X44735000Y41298895D01*
X44735000Y41521985D01*
X44822419Y41434566D01*
X45093312Y41253561D01*
X45412853Y41190000D01*
X49909330Y41190000D01*
X50059450Y40965330D01*
X50374231Y40755000D01*
X50059450Y40544670D01*
X49734594Y40058489D01*
X49620520Y39485000D01*
X49734594Y38911511D01*
X50059450Y38425330D01*
X50374231Y38215000D01*
X50059450Y38004670D01*
X49734594Y37518489D01*
X49620520Y36945000D01*
X49734594Y36371511D01*
X50059450Y35885330D01*
X50374231Y35675000D01*
X50059450Y35464670D01*
X49734594Y34978489D01*
X49620520Y34405000D01*
X49734594Y33831511D01*
X50059450Y33345330D01*
X50374231Y33135000D01*
X50059450Y32924670D01*
X49734594Y32438489D01*
X49620520Y31865000D01*
X49734594Y31291511D01*
X50059450Y30805330D01*
X50374231Y30595000D01*
X50059450Y30384670D01*
X49734594Y29898489D01*
X49620520Y29325000D01*
X49734594Y28751511D01*
X50059450Y28265330D01*
X50374231Y28055000D01*
X50059450Y27844670D01*
X49734594Y27358489D01*
X49620520Y26785000D01*
X49734594Y26211511D01*
X50059450Y25725330D01*
X50374231Y25515000D01*
X50059450Y25304670D01*
X49734594Y24818489D01*
X49620520Y24245000D01*
X49734594Y23671511D01*
X50059450Y23185330D01*
X50374231Y22975000D01*
X50059450Y22764670D01*
X49734594Y22278489D01*
X49620520Y21705000D01*
X49734594Y21131511D01*
X50059450Y20645330D01*
X50374231Y20435000D01*
X50059450Y20224670D01*
X49734594Y19738489D01*
X49620520Y19165000D01*
X49734594Y18591511D01*
X50059450Y18105330D01*
X50374231Y17895000D01*
X50059450Y17684670D01*
X49734594Y17198489D01*
X49620520Y16625000D01*
X49734594Y16051511D01*
X50059450Y15565330D01*
X50374231Y15355000D01*
X50059450Y15144670D01*
X49734594Y14658489D01*
X49620520Y14085000D01*
X49734594Y13511511D01*
X50059450Y13025330D01*
X50374231Y12815000D01*
X50059450Y12604670D01*
X49734594Y12118489D01*
X49620520Y11545000D01*
X49734594Y10971511D01*
X50059450Y10485330D01*
X50374231Y10275000D01*
X50059450Y10064670D01*
X49734594Y9578489D01*
X49620520Y9005000D01*
X49734594Y8431511D01*
X50059450Y7945330D01*
X50545631Y7620474D01*
X51119120Y7506400D01*
X51710880Y7506400D01*
X52284369Y7620474D01*
X52770550Y7945330D01*
X53095406Y8431511D01*
X53099344Y8451309D01*
X61265000Y8451309D01*
X61265000Y6860750D01*
X61423750Y6702000D01*
X63523000Y6702000D01*
X63523000Y8801250D01*
X63777000Y8801250D01*
X63777000Y6702000D01*
X65876250Y6702000D01*
X66035000Y6860750D01*
X66035000Y7529696D01*
X66061673Y7465302D01*
X66240301Y7286673D01*
X66473690Y7190000D01*
X68064250Y7190000D01*
X68223000Y7348750D01*
X68223000Y9448000D01*
X68477000Y9448000D01*
X68477000Y7348750D01*
X68635750Y7190000D01*
X70226310Y7190000D01*
X70459699Y7286673D01*
X70638327Y7465302D01*
X70735000Y7698691D01*
X70735000Y9289250D01*
X70576250Y9448000D01*
X68477000Y9448000D01*
X68223000Y9448000D01*
X66123750Y9448000D01*
X65965000Y9289250D01*
X65965000Y8620304D01*
X65938327Y8684698D01*
X65759699Y8863327D01*
X65526310Y8960000D01*
X63935750Y8960000D01*
X63777000Y8801250D01*
X63523000Y8801250D01*
X63364250Y8960000D01*
X61773690Y8960000D01*
X61540301Y8863327D01*
X61361673Y8684698D01*
X61265000Y8451309D01*
X53099344Y8451309D01*
X53209480Y9005000D01*
X53095406Y9578489D01*
X52770550Y10064670D01*
X52455769Y10275000D01*
X52770550Y10485330D01*
X53095406Y10971511D01*
X53209480Y11545000D01*
X53095406Y12118489D01*
X52770550Y12604670D01*
X52455769Y12815000D01*
X52770550Y13025330D01*
X53095406Y13511511D01*
X53209480Y14085000D01*
X53161742Y14325000D01*
X61252560Y14325000D01*
X61252560Y10825000D01*
X61296838Y10589683D01*
X61435910Y10373559D01*
X61648110Y10228569D01*
X61900000Y10177560D01*
X65400000Y10177560D01*
X65635317Y10221838D01*
X65851441Y10360910D01*
X65965000Y10527109D01*
X65965000Y9860750D01*
X66123750Y9702000D01*
X68223000Y9702000D01*
X68223000Y11801250D01*
X68477000Y11801250D01*
X68477000Y9702000D01*
X70576250Y9702000D01*
X70735000Y9860750D01*
X70735000Y11451309D01*
X70638327Y11684698D01*
X70459699Y11863327D01*
X70226310Y11960000D01*
X68635750Y11960000D01*
X68477000Y11801250D01*
X68223000Y11801250D01*
X68064250Y11960000D01*
X66473690Y11960000D01*
X66240301Y11863327D01*
X66061673Y11684698D01*
X66047440Y11650337D01*
X66047440Y14325000D01*
X66003162Y14560317D01*
X65864090Y14776441D01*
X65651890Y14921431D01*
X65400000Y14972440D01*
X61900000Y14972440D01*
X61664683Y14928162D01*
X61448559Y14789090D01*
X61303569Y14576890D01*
X61252560Y14325000D01*
X53161742Y14325000D01*
X53095406Y14658489D01*
X52770550Y15144670D01*
X52455769Y15355000D01*
X52770550Y15565330D01*
X53095406Y16051511D01*
X53209480Y16625000D01*
X53095406Y17198489D01*
X52770550Y17684670D01*
X52455769Y17895000D01*
X52770550Y18105330D01*
X52920670Y18330000D01*
X52940000Y18330000D01*
X53259541Y18393561D01*
X53530434Y18574566D01*
X58090433Y23134565D01*
X58184357Y23275132D01*
X58271438Y23405458D01*
X58334999Y23724999D01*
X58334999Y33604131D01*
X59540434Y34809566D01*
X59721440Y35080460D01*
X59735781Y35152560D01*
X59800000Y35152560D01*
X60035317Y35196838D01*
X60223831Y35318143D01*
X60280301Y35261673D01*
X60513690Y35165000D01*
X61204250Y35165000D01*
X61363000Y35323750D01*
X61363000Y36773000D01*
X61343000Y36773000D01*
X61343000Y37027000D01*
X61363000Y37027000D01*
X61363000Y38476250D01*
X61204250Y38635000D01*
X60513690Y38635000D01*
X60280301Y38538327D01*
X60222103Y38480129D01*
X60051890Y38596431D01*
X59800000Y38647440D01*
X58100000Y38647440D01*
X57864683Y38603162D01*
X57648559Y38464090D01*
X57503569Y38251890D01*
X57452560Y38000000D01*
X57452560Y35800000D01*
X57496838Y35564683D01*
X57635910Y35348559D01*
X57684495Y35315363D01*
X56909565Y34540433D01*
X56728560Y34269540D01*
X56664999Y33949999D01*
X56664999Y24070867D01*
X52789877Y20195745D01*
X52770550Y20224670D01*
X52455769Y20435000D01*
X52770550Y20645330D01*
X53095406Y21131511D01*
X53209480Y21705000D01*
X53095406Y22278489D01*
X52770550Y22764670D01*
X52455769Y22975000D01*
X52770550Y23185330D01*
X53095406Y23671511D01*
X53209480Y24245000D01*
X53095406Y24818489D01*
X52770550Y25304670D01*
X52455769Y25515000D01*
X52770550Y25725330D01*
X53095406Y26211511D01*
X53209480Y26785000D01*
X53095406Y27358489D01*
X52770550Y27844670D01*
X52455769Y28055000D01*
X52770550Y28265330D01*
X53095406Y28751511D01*
X53209480Y29325000D01*
X53095406Y29898489D01*
X52770550Y30384670D01*
X52455769Y30595000D01*
X52770550Y30805330D01*
X53095406Y31291511D01*
X53209480Y31865000D01*
X53095406Y32438489D01*
X52770550Y32924670D01*
X52455769Y33135000D01*
X52770550Y33345330D01*
X53095406Y33831511D01*
X53209480Y34405000D01*
X53095406Y34978489D01*
X52770550Y35464670D01*
X52455769Y35675000D01*
X52770550Y35885330D01*
X53095406Y36371511D01*
X53209480Y36945000D01*
X53095406Y37518489D01*
X52770550Y38004670D01*
X52455769Y38215000D01*
X52770550Y38425330D01*
X53095406Y38911511D01*
X53209480Y39485000D01*
X53095406Y40058489D01*
X52770550Y40544670D01*
X52455769Y40755000D01*
X52770550Y40965330D01*
X52920670Y41190000D01*
X53229132Y41190000D01*
X54359566Y40059566D01*
X54630460Y39878560D01*
X54950000Y39815000D01*
X61829132Y39815000D01*
X62765000Y38879132D01*
X62765000Y38473026D01*
X62699699Y38538327D01*
X62466310Y38635000D01*
X61775750Y38635000D01*
X61617000Y38476250D01*
X61617000Y37027000D01*
X61637000Y37027000D01*
X61637000Y36773000D01*
X61617000Y36773000D01*
X61617000Y35323750D01*
X61775750Y35165000D01*
X62466310Y35165000D01*
X62699699Y35261673D01*
X62765000Y35326974D01*
X62765000Y35000000D01*
X62828561Y34680459D01*
X62930323Y34528162D01*
X63009566Y34409566D01*
X66134566Y31284566D01*
X66405459Y31103561D01*
X66725000Y31040000D01*
X78961868Y31040000D01*
X78913912Y30798912D01*
X78913912Y29618935D01*
X78575451Y29281063D01*
X78364153Y28772201D01*
X78363672Y28221214D01*
X78574081Y27711984D01*
X78963348Y27322038D01*
X79472210Y27110740D01*
X80023197Y27110259D01*
X80532427Y27320668D01*
X80922373Y27709935D01*
X81133671Y28218797D01*
X81134152Y28769784D01*
X80923743Y29279014D01*
X80583912Y29619438D01*
X80583912Y30453044D01*
X82909012Y32778144D01*
X82950633Y32840434D01*
X83090017Y33049037D01*
X83153578Y33368578D01*
X83153578Y35416422D01*
X83136953Y35500002D01*
X83107440Y35648375D01*
X83107440Y36255000D01*
X83063162Y36490317D01*
X82924090Y36706441D01*
X82748768Y36826233D01*
X82911441Y36930910D01*
X83056431Y37143110D01*
X83107440Y37395000D01*
X83107440Y38955000D01*
X83095000Y39021113D01*
X83095000Y39140091D01*
X83474285Y39139760D01*
X83983515Y39350169D01*
X84187671Y39553969D01*
X84116392Y635649D01*
X710539Y709373D01*
X714234Y5750715D01*
X4214760Y5750715D01*
X4425169Y5241485D01*
X4814436Y4851539D01*
X5323298Y4640241D01*
X5874285Y4639760D01*
X6383515Y4850169D01*
X6773461Y5239436D01*
X6984759Y5748298D01*
X6984761Y5750715D01*
X28414760Y5750715D01*
X28625169Y5241485D01*
X29014436Y4851539D01*
X29523298Y4640241D01*
X30074285Y4639760D01*
X30583515Y4850169D01*
X30973461Y5239436D01*
X31184759Y5748298D01*
X31185231Y6289250D01*
X61265000Y6289250D01*
X61265000Y4698691D01*
X61361673Y4465302D01*
X61540301Y4286673D01*
X61773690Y4190000D01*
X63364250Y4190000D01*
X63523000Y4348750D01*
X63523000Y6448000D01*
X63777000Y6448000D01*
X63777000Y4348750D01*
X63935750Y4190000D01*
X65526310Y4190000D01*
X65759699Y4286673D01*
X65938327Y4465302D01*
X66035000Y4698691D01*
X66035000Y6289250D01*
X65876250Y6448000D01*
X63777000Y6448000D01*
X63523000Y6448000D01*
X61423750Y6448000D01*
X61265000Y6289250D01*
X31185231Y6289250D01*
X31185240Y6299285D01*
X31108722Y6484472D01*
X31173000Y6548750D01*
X31173000Y7998000D01*
X31427000Y7998000D01*
X31427000Y6548750D01*
X31585750Y6390000D01*
X32026309Y6390000D01*
X32259698Y6486673D01*
X32438327Y6665301D01*
X32535000Y6898690D01*
X32535000Y7839250D01*
X32376250Y7998000D01*
X31427000Y7998000D01*
X31173000Y7998000D01*
X30223750Y7998000D01*
X30065000Y7839250D01*
X30065000Y7409769D01*
X29525715Y7410240D01*
X29016485Y7199831D01*
X28626539Y6810564D01*
X28415241Y6301702D01*
X28414760Y5750715D01*
X6984761Y5750715D01*
X6985240Y6299285D01*
X6774831Y6808515D01*
X6385564Y7198461D01*
X5876702Y7409759D01*
X5325715Y7410240D01*
X4816485Y7199831D01*
X4426539Y6810564D01*
X4215241Y6301702D01*
X4214760Y5750715D01*
X714234Y5750715D01*
X716645Y9039250D01*
X2065000Y9039250D01*
X2065000Y8098690D01*
X2161673Y7865301D01*
X2340302Y7686673D01*
X2573691Y7590000D01*
X3014250Y7590000D01*
X3173000Y7748750D01*
X3173000Y9198000D01*
X3427000Y9198000D01*
X3427000Y7748750D01*
X3585750Y7590000D01*
X4026309Y7590000D01*
X4259698Y7686673D01*
X4438327Y7865301D01*
X4535000Y8098690D01*
X4535000Y9039250D01*
X4376250Y9198000D01*
X3427000Y9198000D01*
X3173000Y9198000D01*
X2223750Y9198000D01*
X2065000Y9039250D01*
X716645Y9039250D01*
X716873Y9351310D01*
X30065000Y9351310D01*
X30065000Y8410750D01*
X30223750Y8252000D01*
X31173000Y8252000D01*
X31173000Y9701250D01*
X31427000Y9701250D01*
X31427000Y8252000D01*
X32376250Y8252000D01*
X32535000Y8410750D01*
X32535000Y8645974D01*
X34458642Y8645974D01*
X34480473Y8548843D01*
X34764127Y8035132D01*
X35222778Y7669075D01*
X35786600Y7506400D01*
X36048000Y7506400D01*
X36048000Y8878000D01*
X36302000Y8878000D01*
X36302000Y7506400D01*
X36563400Y7506400D01*
X37127222Y7669075D01*
X37585873Y8035132D01*
X37869527Y8548843D01*
X37891358Y8645974D01*
X37770217Y8878000D01*
X36302000Y8878000D01*
X36048000Y8878000D01*
X34579783Y8878000D01*
X34458642Y8645974D01*
X32535000Y8645974D01*
X32535000Y9351310D01*
X32438327Y9584699D01*
X32259698Y9763327D01*
X32026309Y9860000D01*
X31585750Y9860000D01*
X31427000Y9701250D01*
X31173000Y9701250D01*
X31014250Y9860000D01*
X30573691Y9860000D01*
X30340302Y9763327D01*
X30161673Y9584699D01*
X30065000Y9351310D01*
X716873Y9351310D01*
X717753Y10551310D01*
X2065000Y10551310D01*
X2065000Y9610750D01*
X2223750Y9452000D01*
X3173000Y9452000D01*
X3173000Y10901250D01*
X3427000Y10901250D01*
X3427000Y9452000D01*
X4376250Y9452000D01*
X4535000Y9610750D01*
X4535000Y10551310D01*
X4438327Y10784699D01*
X4259698Y10963327D01*
X4026309Y11060000D01*
X3585750Y11060000D01*
X3427000Y10901250D01*
X3173000Y10901250D01*
X3014250Y11060000D01*
X2573691Y11060000D01*
X2340302Y10963327D01*
X2161673Y10784699D01*
X2065000Y10551310D01*
X717753Y10551310D01*
X718218Y11185974D01*
X34458642Y11185974D01*
X34480473Y11088843D01*
X34764127Y10575132D01*
X35140177Y10275000D01*
X34764127Y9974868D01*
X34480473Y9461157D01*
X34458642Y9364026D01*
X34579783Y9132000D01*
X36048000Y9132000D01*
X36048000Y11418000D01*
X36302000Y11418000D01*
X36302000Y9132000D01*
X37770217Y9132000D01*
X37891358Y9364026D01*
X37869527Y9461157D01*
X37585873Y9974868D01*
X37209823Y10275000D01*
X37585873Y10575132D01*
X37869527Y11088843D01*
X37891358Y11185974D01*
X37770217Y11418000D01*
X36302000Y11418000D01*
X36048000Y11418000D01*
X34579783Y11418000D01*
X34458642Y11185974D01*
X718218Y11185974D01*
X719272Y12623339D01*
X15207758Y12623339D01*
X15419990Y12109697D01*
X15812630Y11716371D01*
X16325900Y11503243D01*
X16881661Y11502758D01*
X17395303Y11714990D01*
X17788629Y12107630D01*
X17874949Y12315512D01*
X17959990Y12109697D01*
X18352630Y11716371D01*
X18865900Y11503243D01*
X19421661Y11502758D01*
X19935303Y11714990D01*
X20328629Y12107630D01*
X20414949Y12315512D01*
X20499990Y12109697D01*
X20892630Y11716371D01*
X21405900Y11503243D01*
X21961661Y11502758D01*
X22475303Y11714990D01*
X22680457Y11919787D01*
X23424392Y11919787D01*
X23493857Y11677603D01*
X24017302Y11490856D01*
X24572368Y11518638D01*
X24956143Y11677603D01*
X25025608Y11919787D01*
X24225000Y12720395D01*
X23424392Y11919787D01*
X22680457Y11919787D01*
X22868629Y12107630D01*
X22948395Y12299727D01*
X23002603Y12168857D01*
X23244787Y12099392D01*
X24045395Y12900000D01*
X24404605Y12900000D01*
X25205213Y12099392D01*
X25447397Y12168857D01*
X25634144Y12692302D01*
X25606362Y13247368D01*
X25447397Y13631143D01*
X25205213Y13700608D01*
X24404605Y12900000D01*
X24045395Y12900000D01*
X23244787Y13700608D01*
X23002603Y13631143D01*
X22952491Y13490682D01*
X22870010Y13690303D01*
X22680432Y13880213D01*
X23424392Y13880213D01*
X24225000Y13079605D01*
X25025608Y13880213D01*
X24956143Y14122397D01*
X24432698Y14309144D01*
X23877632Y14281362D01*
X23493857Y14122397D01*
X23424392Y13880213D01*
X22680432Y13880213D01*
X22477370Y14083629D01*
X21964100Y14296757D01*
X21408339Y14297242D01*
X20894697Y14085010D01*
X20501371Y13692370D01*
X20415051Y13484488D01*
X20330010Y13690303D01*
X19937370Y14083629D01*
X19424100Y14296757D01*
X18868339Y14297242D01*
X18354697Y14085010D01*
X17961371Y13692370D01*
X17875051Y13484488D01*
X17790010Y13690303D01*
X17397370Y14083629D01*
X16884100Y14296757D01*
X16328339Y14297242D01*
X15814697Y14085010D01*
X15421371Y13692370D01*
X15208243Y13179100D01*
X15207758Y12623339D01*
X719272Y12623339D01*
X725930Y21705000D01*
X34380520Y21705000D01*
X34494594Y21131511D01*
X34819450Y20645330D01*
X35134231Y20435000D01*
X34819450Y20224670D01*
X34494594Y19738489D01*
X34380520Y19165000D01*
X34494594Y18591511D01*
X34819450Y18105330D01*
X35134231Y17895000D01*
X34819450Y17684670D01*
X34494594Y17198489D01*
X34380520Y16625000D01*
X34494594Y16051511D01*
X34819450Y15565330D01*
X35134231Y15355000D01*
X34819450Y15144670D01*
X34494594Y14658489D01*
X34380520Y14085000D01*
X34494594Y13511511D01*
X34819450Y13025330D01*
X35137468Y12812837D01*
X34764127Y12514868D01*
X34480473Y12001157D01*
X34458642Y11904026D01*
X34579783Y11672000D01*
X36048000Y11672000D01*
X36048000Y11692000D01*
X36302000Y11692000D01*
X36302000Y11672000D01*
X37770217Y11672000D01*
X37891358Y11904026D01*
X37869527Y12001157D01*
X37585873Y12514868D01*
X37212532Y12812837D01*
X37530550Y13025330D01*
X37855406Y13511511D01*
X37969480Y14085000D01*
X37855406Y14658489D01*
X37530550Y15144670D01*
X37215769Y15355000D01*
X37530550Y15565330D01*
X37855406Y16051511D01*
X37969480Y16625000D01*
X37855406Y17198489D01*
X37530550Y17684670D01*
X37215769Y17895000D01*
X37530550Y18105330D01*
X37855406Y18591511D01*
X37969480Y19165000D01*
X37855406Y19738489D01*
X37530550Y20224670D01*
X37215769Y20435000D01*
X37530550Y20645330D01*
X37855406Y21131511D01*
X37969480Y21705000D01*
X37855406Y22278489D01*
X37530550Y22764670D01*
X37212532Y22977163D01*
X37585873Y23275132D01*
X37869527Y23788843D01*
X37891358Y23885974D01*
X37770217Y24118000D01*
X36302000Y24118000D01*
X36302000Y24098000D01*
X36048000Y24098000D01*
X36048000Y24118000D01*
X34579783Y24118000D01*
X34458642Y23885974D01*
X34480473Y23788843D01*
X34764127Y23275132D01*
X35137468Y22977163D01*
X34819450Y22764670D01*
X34494594Y22278489D01*
X34380520Y21705000D01*
X725930Y21705000D01*
X732800Y31075000D01*
X7182560Y31075000D01*
X7182560Y29575000D01*
X7226838Y29339683D01*
X7365910Y29123559D01*
X7578110Y28978569D01*
X7830000Y28927560D01*
X8830000Y28927560D01*
X9065317Y28971838D01*
X9281441Y29110910D01*
X9426431Y29323110D01*
X9477440Y29575000D01*
X9477440Y31075000D01*
X9682560Y31075000D01*
X9682560Y29575000D01*
X9726838Y29339683D01*
X9865910Y29123559D01*
X10078110Y28978569D01*
X10330000Y28927560D01*
X11330000Y28927560D01*
X11565317Y28971838D01*
X11781441Y29110910D01*
X11926431Y29323110D01*
X11977440Y29575000D01*
X11977440Y31075000D01*
X11933162Y31310317D01*
X11794090Y31526441D01*
X11665000Y31614644D01*
X11665000Y32074097D01*
X16142212Y36551309D01*
X17215000Y36551309D01*
X17215000Y35960750D01*
X17373750Y35802000D01*
X18348000Y35802000D01*
X18348000Y36901250D01*
X18602000Y36901250D01*
X18602000Y35802000D01*
X19576250Y35802000D01*
X19735000Y35960750D01*
X19735000Y36551309D01*
X19638327Y36784698D01*
X19459699Y36963327D01*
X19226310Y37060000D01*
X18760750Y37060000D01*
X18602000Y36901250D01*
X18348000Y36901250D01*
X18189250Y37060000D01*
X17723690Y37060000D01*
X17490301Y36963327D01*
X17311673Y36784698D01*
X17215000Y36551309D01*
X16142212Y36551309D01*
X17209405Y37618502D01*
X28085659Y37618502D01*
X29349595Y36354566D01*
X29620488Y36173561D01*
X29940029Y36110000D01*
X34669330Y36110000D01*
X34819450Y35885330D01*
X35134231Y35675000D01*
X34819450Y35464670D01*
X34669330Y35240000D01*
X27445682Y35240000D01*
X27594132Y35388192D01*
X27805430Y35897054D01*
X27805911Y36448041D01*
X27595502Y36957271D01*
X27206235Y37347217D01*
X26697373Y37558515D01*
X26146386Y37558996D01*
X25637156Y37348587D01*
X25296732Y37008756D01*
X23928756Y37008756D01*
X23609216Y36945196D01*
X23338322Y36764190D01*
X19747440Y33173308D01*
X19747440Y33925000D01*
X19703162Y34160317D01*
X19564090Y34376441D01*
X19495994Y34422969D01*
X19638327Y34565302D01*
X19735000Y34798691D01*
X19735000Y35389250D01*
X19576250Y35548000D01*
X18602000Y35548000D01*
X18602000Y35528000D01*
X18348000Y35528000D01*
X18348000Y35548000D01*
X17373750Y35548000D01*
X17215000Y35389250D01*
X17215000Y34798691D01*
X17311673Y34565302D01*
X17452910Y34424064D01*
X17398559Y34389090D01*
X17253569Y34176890D01*
X17202560Y33925000D01*
X17202560Y32425000D01*
X17246838Y32189683D01*
X17385910Y31973559D01*
X17495000Y31899021D01*
X17495000Y31614018D01*
X17491354Y31611671D01*
X17489698Y31613327D01*
X17256309Y31710000D01*
X16915750Y31710000D01*
X16757000Y31551250D01*
X16757000Y30452000D01*
X16777000Y30452000D01*
X16777000Y30198000D01*
X16757000Y30198000D01*
X16757000Y29098750D01*
X16915750Y28940000D01*
X17256309Y28940000D01*
X17489698Y29036673D01*
X17491068Y29038043D01*
X17578110Y28978569D01*
X17830000Y28927560D01*
X18830000Y28927560D01*
X19065317Y28971838D01*
X19281441Y29110910D01*
X19426431Y29323110D01*
X19477440Y29575000D01*
X19477440Y30541572D01*
X19682560Y30746692D01*
X19682560Y29575000D01*
X19726838Y29339683D01*
X19865910Y29123559D01*
X20078110Y28978569D01*
X20330000Y28927560D01*
X21330000Y28927560D01*
X21565317Y28971838D01*
X21781441Y29110910D01*
X21926431Y29323110D01*
X21977440Y29575000D01*
X21977440Y30039250D01*
X22195000Y30039250D01*
X22195000Y29448690D01*
X22291673Y29215301D01*
X22470302Y29036673D01*
X22703691Y28940000D01*
X23044250Y28940000D01*
X23203000Y29098750D01*
X23203000Y30198000D01*
X23457000Y30198000D01*
X23457000Y29098750D01*
X23615750Y28940000D01*
X23956309Y28940000D01*
X24189698Y29036673D01*
X24368327Y29215301D01*
X24465000Y29448690D01*
X24465000Y30039250D01*
X24306250Y30198000D01*
X23457000Y30198000D01*
X23203000Y30198000D01*
X22353750Y30198000D01*
X22195000Y30039250D01*
X21977440Y30039250D01*
X21977440Y30541572D01*
X22195000Y30759132D01*
X22195000Y30610750D01*
X22353750Y30452000D01*
X23203000Y30452000D01*
X23203000Y31551250D01*
X23457000Y31551250D01*
X23457000Y30452000D01*
X24306250Y30452000D01*
X24465000Y30610750D01*
X24465000Y31201310D01*
X24368327Y31434699D01*
X24189698Y31613327D01*
X23956309Y31710000D01*
X23615750Y31710000D01*
X23457000Y31551250D01*
X23203000Y31551250D01*
X23095059Y31659191D01*
X25005868Y33570000D01*
X34669330Y33570000D01*
X34819450Y33345330D01*
X35134231Y33135000D01*
X34819450Y32924670D01*
X34791645Y32883056D01*
X34729366Y32924670D01*
X34584541Y33021439D01*
X34265000Y33085000D01*
X26050000Y33085000D01*
X25730459Y33021439D01*
X25585634Y32924670D01*
X25459566Y32840434D01*
X25159566Y32540434D01*
X24978561Y32269541D01*
X24915000Y31950000D01*
X24915000Y31614018D01*
X24798559Y31539090D01*
X24653569Y31326890D01*
X24602560Y31075000D01*
X24602560Y29575000D01*
X24646838Y29339683D01*
X24785910Y29123559D01*
X24998110Y28978569D01*
X25250000Y28927560D01*
X26250000Y28927560D01*
X26485317Y28971838D01*
X26599978Y29045620D01*
X26698110Y28978569D01*
X26950000Y28927560D01*
X27950000Y28927560D01*
X28185317Y28971838D01*
X28401441Y29110910D01*
X28546431Y29323110D01*
X28597440Y29575000D01*
X28597440Y31075000D01*
X28553162Y31310317D01*
X28485800Y31415000D01*
X29763772Y31415000D01*
X29703569Y31326890D01*
X29652560Y31075000D01*
X29652560Y29575000D01*
X29696838Y29339683D01*
X29835910Y29123559D01*
X30048110Y28978569D01*
X30300000Y28927560D01*
X31300000Y28927560D01*
X31535317Y28971838D01*
X31751441Y29110910D01*
X31896431Y29323110D01*
X31947440Y29575000D01*
X31947440Y31075000D01*
X31903162Y31310317D01*
X31835800Y31415000D01*
X33919132Y31415000D01*
X34059566Y31274566D01*
X34330459Y31093561D01*
X34650000Y31030000D01*
X34669330Y31030000D01*
X34819450Y30805330D01*
X35134231Y30595000D01*
X34819450Y30384670D01*
X34669330Y30160000D01*
X34650000Y30160000D01*
X34330459Y30096439D01*
X34059566Y29915434D01*
X29229132Y25085000D01*
X17576210Y25085000D01*
X14165000Y28496210D01*
X14165000Y29021690D01*
X14228110Y28978569D01*
X14480000Y28927560D01*
X15480000Y28927560D01*
X15715317Y28971838D01*
X15798148Y29025139D01*
X16003691Y28940000D01*
X16344250Y28940000D01*
X16503000Y29098750D01*
X16503000Y30198000D01*
X16483000Y30198000D01*
X16483000Y30452000D01*
X16503000Y30452000D01*
X16503000Y31551250D01*
X16344250Y31710000D01*
X16003691Y31710000D01*
X15799330Y31625351D01*
X15731890Y31671431D01*
X15480000Y31722440D01*
X14480000Y31722440D01*
X14244683Y31678162D01*
X14155772Y31620949D01*
X14081890Y31671431D01*
X13830000Y31722440D01*
X12830000Y31722440D01*
X12594683Y31678162D01*
X12378559Y31539090D01*
X12233569Y31326890D01*
X12182560Y31075000D01*
X12182560Y29575000D01*
X12226838Y29339683D01*
X12365910Y29123559D01*
X12495000Y29035356D01*
X12495000Y28150342D01*
X12558561Y27830801D01*
X12561502Y27826400D01*
X12739566Y27559908D01*
X16639908Y23659566D01*
X16910802Y23478560D01*
X17230342Y23415000D01*
X29575000Y23415000D01*
X29894541Y23478561D01*
X30165434Y23659566D01*
X34800123Y28294255D01*
X34819450Y28265330D01*
X35134231Y28055000D01*
X34819450Y27844670D01*
X34494594Y27358489D01*
X34380520Y26785000D01*
X34494594Y26211511D01*
X34819450Y25725330D01*
X35137468Y25512837D01*
X34764127Y25214868D01*
X34480473Y24701157D01*
X34458642Y24604026D01*
X34579783Y24372000D01*
X36048000Y24372000D01*
X36048000Y24392000D01*
X36302000Y24392000D01*
X36302000Y24372000D01*
X37770217Y24372000D01*
X37891358Y24604026D01*
X37869527Y24701157D01*
X37585873Y25214868D01*
X37212532Y25512837D01*
X37530550Y25725330D01*
X37855406Y26211511D01*
X37969480Y26785000D01*
X37855406Y27358489D01*
X37530550Y27844670D01*
X37215769Y28055000D01*
X37530550Y28265330D01*
X37855406Y28751511D01*
X37969480Y29325000D01*
X37855406Y29898489D01*
X37530550Y30384670D01*
X37215769Y30595000D01*
X37530550Y30805330D01*
X37855406Y31291511D01*
X37969480Y31865000D01*
X37855406Y32438489D01*
X37530550Y32924670D01*
X37215769Y33135000D01*
X37530550Y33345330D01*
X37855406Y33831511D01*
X37969480Y34405000D01*
X37855406Y34978489D01*
X37530550Y35464670D01*
X37215769Y35675000D01*
X37530550Y35885330D01*
X37855406Y36371511D01*
X37969480Y36945000D01*
X37855406Y37518489D01*
X37530550Y38004670D01*
X37215769Y38215000D01*
X37530550Y38425330D01*
X37855406Y38911511D01*
X37969480Y39485000D01*
X37855406Y40058489D01*
X37530550Y40544670D01*
X37215769Y40755000D01*
X37530550Y40965330D01*
X37855406Y41451511D01*
X37969480Y42025000D01*
X37855406Y42598489D01*
X37530550Y43084670D01*
X37215769Y43295000D01*
X37530550Y43505330D01*
X37855406Y43991511D01*
X37969480Y44565000D01*
X37855406Y45138489D01*
X37530550Y45624670D01*
X37215769Y45835000D01*
X37530550Y46045330D01*
X37855406Y46531511D01*
X37969480Y47105000D01*
X37855406Y47678489D01*
X37530550Y48164670D01*
X37215769Y48375000D01*
X37530550Y48585330D01*
X37855406Y49071511D01*
X37969480Y49645000D01*
X37855406Y50218489D01*
X37530550Y50704670D01*
X37215769Y50915000D01*
X37530550Y51125330D01*
X37855406Y51611511D01*
X37969480Y52185000D01*
X37855406Y52758489D01*
X37530550Y53244670D01*
X37215769Y53455000D01*
X37530550Y53665330D01*
X37855406Y54151511D01*
X37969480Y54725000D01*
X37855406Y55298489D01*
X37530550Y55784670D01*
X37515753Y55794557D01*
X37535317Y55798238D01*
X37751441Y55937310D01*
X37896431Y56149510D01*
X37947440Y56401400D01*
X37947440Y58128600D01*
X37903162Y58363917D01*
X37764090Y58580041D01*
X37551890Y58725031D01*
X37300000Y58776040D01*
X35050000Y58776040D01*
X34814683Y58731762D01*
X34598559Y58592690D01*
X34453569Y58380490D01*
X34402560Y58128600D01*
X34402560Y58100000D01*
X31637902Y58100000D01*
X31637902Y59330354D01*
X58880381Y59330354D01*
X58999735Y59077000D01*
X60343000Y59077000D01*
X60343000Y60420807D01*
X60089645Y60539627D01*
X59510274Y60273068D01*
X59077013Y59805084D01*
X58880381Y59330354D01*
X31637902Y59330354D01*
X31637902Y60386512D01*
X31574341Y60706053D01*
X31393336Y60976946D01*
X29018758Y63351524D01*
X29019175Y63829764D01*
X28808766Y64338994D01*
X28419499Y64728940D01*
X27910637Y64940238D01*
X27359650Y64940719D01*
X26850420Y64730310D01*
X26460474Y64341043D01*
X26249176Y63832181D01*
X26248695Y63281194D01*
X26459104Y62771964D01*
X26848371Y62382018D01*
X27357233Y62170720D01*
X27838246Y62170300D01*
X29967902Y60040644D01*
X29967902Y57338610D01*
X29990000Y57227516D01*
X29990000Y56557926D01*
X29964683Y56553162D01*
X29748559Y56414090D01*
X29603569Y56201890D01*
X29552560Y55950000D01*
X29552560Y54450000D01*
X29596838Y54214683D01*
X29735910Y53998559D01*
X29804006Y53952031D01*
X29661673Y53809698D01*
X29565000Y53576309D01*
X29565000Y52985750D01*
X29723750Y52827000D01*
X30698000Y52827000D01*
X30698000Y52847000D01*
X30952000Y52847000D01*
X30952000Y52827000D01*
X31926250Y52827000D01*
X32085000Y52985750D01*
X32085000Y53576309D01*
X31988327Y53809698D01*
X31847090Y53950936D01*
X31901441Y53985910D01*
X32046431Y54198110D01*
X32097440Y54450000D01*
X32097440Y55950000D01*
X32053162Y56185317D01*
X31914090Y56401441D01*
X31872292Y56430000D01*
X34402560Y56430000D01*
X34402560Y56401400D01*
X34446838Y56166083D01*
X34585910Y55949959D01*
X34798110Y55804969D01*
X34837801Y55796931D01*
X34819450Y55784670D01*
X34494594Y55298489D01*
X34380520Y54725000D01*
X34494594Y54151511D01*
X34819450Y53665330D01*
X35134231Y53455000D01*
X34819450Y53244670D01*
X34494594Y52758489D01*
X34380520Y52185000D01*
X34494594Y51611511D01*
X34819450Y51125330D01*
X35134231Y50915000D01*
X34819450Y50704670D01*
X34494594Y50218489D01*
X34380520Y49645000D01*
X34494594Y49071511D01*
X34819450Y48585330D01*
X35134231Y48375000D01*
X34819450Y48164670D01*
X34494594Y47678489D01*
X34380520Y47105000D01*
X34494594Y46531511D01*
X34819450Y46045330D01*
X35134231Y45835000D01*
X34819450Y45624670D01*
X34494594Y45138489D01*
X34380520Y44565000D01*
X34494594Y43991511D01*
X34819450Y43505330D01*
X35134231Y43295000D01*
X34819450Y43084670D01*
X34494594Y42598489D01*
X34380520Y42025000D01*
X34494594Y41451511D01*
X34819450Y40965330D01*
X35134231Y40755000D01*
X34819450Y40544670D01*
X34494594Y40058489D01*
X34380520Y39485000D01*
X34494594Y38911511D01*
X34819450Y38425330D01*
X35134231Y38215000D01*
X34819450Y38004670D01*
X34669330Y37780000D01*
X30285897Y37780000D01*
X29021961Y39043936D01*
X29016781Y39047397D01*
X28751068Y39224941D01*
X28431527Y39288502D01*
X16863537Y39288502D01*
X16543996Y39224941D01*
X16278283Y39047397D01*
X16273103Y39043936D01*
X10239566Y33010399D01*
X10058561Y32739506D01*
X9995000Y32419965D01*
X9995000Y31614018D01*
X9878559Y31539090D01*
X9733569Y31326890D01*
X9682560Y31075000D01*
X9477440Y31075000D01*
X9433162Y31310317D01*
X9294090Y31526441D01*
X9081890Y31671431D01*
X8830000Y31722440D01*
X7830000Y31722440D01*
X7594683Y31678162D01*
X7378559Y31539090D01*
X7233569Y31326890D01*
X7182560Y31075000D01*
X732800Y31075000D01*
X748445Y52414250D01*
X29565000Y52414250D01*
X29565000Y51823691D01*
X29661673Y51590302D01*
X29840301Y51411673D01*
X30073690Y51315000D01*
X30539250Y51315000D01*
X30698000Y51473750D01*
X30698000Y52573000D01*
X30952000Y52573000D01*
X30952000Y51473750D01*
X31110750Y51315000D01*
X31576310Y51315000D01*
X31809699Y51411673D01*
X31988327Y51590302D01*
X32085000Y51823691D01*
X32085000Y52414250D01*
X31926250Y52573000D01*
X30952000Y52573000D01*
X30698000Y52573000D01*
X29723750Y52573000D01*
X29565000Y52414250D01*
X748445Y52414250D01*
X759480Y67464615D01*
X84238654Y67390674D01*
X84238654Y67390674D01*
G37*
X84238654Y67390674D02*
X84204686Y48844274D01*
X84140434Y48940434D01*
X82128308Y50952560D01*
X82300000Y50952560D01*
X82535317Y50996838D01*
X82751441Y51135910D01*
X82896431Y51348110D01*
X82947440Y51600000D01*
X82947440Y54300000D01*
X82903162Y54535317D01*
X82764090Y54751441D01*
X82551890Y54896431D01*
X82300000Y54947440D01*
X82000000Y54947440D01*
X82000000Y57459752D01*
X82199807Y57497348D01*
X82415931Y57636420D01*
X82560921Y57848620D01*
X82611930Y58100510D01*
X82611930Y60099490D01*
X82567652Y60334807D01*
X82428580Y60550931D01*
X82216380Y60695921D01*
X81964490Y60746930D01*
X79965510Y60746930D01*
X79730193Y60702652D01*
X79514069Y60563580D01*
X79400610Y60397527D01*
X79082514Y60610072D01*
X78457022Y60734490D01*
X78392978Y60734490D01*
X77767486Y60610072D01*
X77237219Y60255759D01*
X77155000Y60132710D01*
X77072781Y60255759D01*
X76542514Y60610072D01*
X75917022Y60734490D01*
X75852978Y60734490D01*
X75227486Y60610072D01*
X74697219Y60255759D01*
X74615000Y60132710D01*
X74532781Y60255759D01*
X74002514Y60610072D01*
X73377022Y60734490D01*
X73312978Y60734490D01*
X72687486Y60610072D01*
X72157219Y60255759D01*
X71802906Y59725492D01*
X71678488Y59100000D01*
X71712135Y58930846D01*
X70007175Y57225887D01*
X69782816Y56890108D01*
X69704030Y56494031D01*
X69704031Y56494026D01*
X69704031Y54759559D01*
X69576890Y54846431D01*
X69325000Y54897440D01*
X69125000Y54897440D01*
X69125000Y57309752D01*
X69324807Y57347348D01*
X69540931Y57486420D01*
X69685921Y57698620D01*
X69736930Y57950510D01*
X69736930Y59949490D01*
X69692652Y60184807D01*
X69553580Y60400931D01*
X69341380Y60545921D01*
X69089490Y60596930D01*
X67090510Y60596930D01*
X66855193Y60552652D01*
X66639069Y60413580D01*
X66525610Y60247527D01*
X66207514Y60460072D01*
X65582022Y60584490D01*
X65517978Y60584490D01*
X64892486Y60460072D01*
X64362219Y60105759D01*
X64280000Y59982710D01*
X64197781Y60105759D01*
X63667514Y60460072D01*
X63042022Y60584490D01*
X62977978Y60584490D01*
X62352486Y60460072D01*
X61822219Y60105759D01*
X61722621Y59956700D01*
X61429726Y60273068D01*
X60850355Y60539627D01*
X60597000Y60420807D01*
X60597000Y59077000D01*
X60617000Y59077000D01*
X60617000Y58823000D01*
X60597000Y58823000D01*
X60597000Y57479193D01*
X60850355Y57360373D01*
X61429726Y57626932D01*
X61722621Y57943300D01*
X61822219Y57794241D01*
X61915000Y57732247D01*
X61915000Y56612630D01*
X61864683Y56603162D01*
X61648559Y56464090D01*
X61503569Y56251890D01*
X61452560Y56000000D01*
X61452560Y54500000D01*
X61496838Y54264683D01*
X61635910Y54048559D01*
X61848110Y53903569D01*
X61861197Y53900919D01*
X61648559Y53764090D01*
X61503569Y53551890D01*
X61452560Y53300000D01*
X61452560Y51800000D01*
X61496838Y51564683D01*
X61635910Y51348559D01*
X61848110Y51203569D01*
X61915000Y51190023D01*
X61915000Y50150000D01*
X61978561Y49830459D01*
X62102481Y49645000D01*
X62159566Y49559566D01*
X64040000Y47679132D01*
X64040000Y45980866D01*
X62924192Y44865058D01*
X62816250Y44973000D01*
X61617000Y44973000D01*
X61617000Y44953000D01*
X61363000Y44953000D01*
X61363000Y44973000D01*
X61343000Y44973000D01*
X61343000Y45227000D01*
X61363000Y45227000D01*
X61363000Y46676250D01*
X61617000Y46676250D01*
X61617000Y45227000D01*
X62816250Y45227000D01*
X62975000Y45385750D01*
X62975000Y46326309D01*
X62878327Y46559698D01*
X62699699Y46738327D01*
X62466310Y46835000D01*
X61775750Y46835000D01*
X61617000Y46676250D01*
X61363000Y46676250D01*
X61204250Y46835000D01*
X60513690Y46835000D01*
X60280301Y46738327D01*
X60222103Y46680129D01*
X60051890Y46796431D01*
X59800000Y46847440D01*
X58100000Y46847440D01*
X57864683Y46803162D01*
X57648559Y46664090D01*
X57503569Y46451890D01*
X57452560Y46200000D01*
X57452560Y44000000D01*
X57496838Y43764683D01*
X57635910Y43548559D01*
X57848110Y43403569D01*
X58100000Y43352560D01*
X58164219Y43352560D01*
X58178561Y43280459D01*
X58301253Y43096838D01*
X58359566Y43009566D01*
X58819448Y42549684D01*
X56136184Y42549684D01*
X53530434Y45155434D01*
X53423328Y45227000D01*
X53259541Y45336439D01*
X52940000Y45400000D01*
X52920670Y45400000D01*
X52770550Y45624670D01*
X52455769Y45835000D01*
X52770550Y46045330D01*
X53095406Y46531511D01*
X53209480Y47105000D01*
X53095406Y47678489D01*
X52770550Y48164670D01*
X52455769Y48375000D01*
X52770550Y48585330D01*
X53095406Y49071511D01*
X53209480Y49645000D01*
X53095406Y50218489D01*
X52770550Y50704670D01*
X52455769Y50915000D01*
X52770550Y51125330D01*
X53095406Y51611511D01*
X53209480Y52185000D01*
X53095406Y52758489D01*
X52770550Y53244670D01*
X52455769Y53455000D01*
X52770550Y53665330D01*
X53095406Y54151511D01*
X53209480Y54725000D01*
X53095406Y55298489D01*
X52770550Y55784670D01*
X52417755Y56020400D01*
X52770550Y56256130D01*
X52859999Y56390000D01*
X55301216Y56390000D01*
X55439436Y56251539D01*
X55948298Y56040241D01*
X56499285Y56039760D01*
X57008515Y56250169D01*
X57398461Y56639436D01*
X57609759Y57148298D01*
X57610240Y57699285D01*
X57399831Y58208515D01*
X57039329Y58569646D01*
X58880381Y58569646D01*
X59077013Y58094916D01*
X59510274Y57626932D01*
X60089645Y57360373D01*
X60343000Y57479193D01*
X60343000Y58823000D01*
X58999735Y58823000D01*
X58880381Y58569646D01*
X57039329Y58569646D01*
X57010564Y58598461D01*
X56501702Y58809759D01*
X55950715Y58810240D01*
X55441485Y58599831D01*
X55301410Y58460000D01*
X52644042Y58460000D01*
X52284369Y58700326D01*
X51710880Y58814400D01*
X51119120Y58814400D01*
X50545631Y58700326D01*
X50059450Y58375470D01*
X49909330Y58150800D01*
X49890000Y58150800D01*
X49570460Y58087240D01*
X49299566Y57906234D01*
X46159566Y54766234D01*
X46049236Y54601114D01*
X45648489Y54868885D01*
X45075000Y54982959D01*
X44501511Y54868885D01*
X44015330Y54544029D01*
X43805000Y54229248D01*
X43594670Y54544029D01*
X43108489Y54868885D01*
X42535000Y54982959D01*
X41961511Y54868885D01*
X41475330Y54544029D01*
X41150474Y54057848D01*
X41036400Y53484359D01*
X41036400Y53425641D01*
X41150474Y52852152D01*
X41475330Y52365971D01*
X41961511Y52041115D01*
X42535000Y51927041D01*
X43108489Y52041115D01*
X43594670Y52365971D01*
X43805000Y52680752D01*
X44015330Y52365971D01*
X44501511Y52041115D01*
X45075000Y51927041D01*
X45648489Y52041115D01*
X45915000Y52219192D01*
X45915000Y50412630D01*
X45864683Y50403162D01*
X45648559Y50264090D01*
X45503569Y50051890D01*
X45469773Y49885000D01*
X45181446Y49885000D01*
X45153162Y50035317D01*
X45014090Y50251441D01*
X44801890Y50396431D01*
X44550000Y50447440D01*
X43250000Y50447440D01*
X43014683Y50403162D01*
X42798559Y50264090D01*
X42653569Y50051890D01*
X42602560Y49800000D01*
X42602560Y48300000D01*
X42646838Y48064683D01*
X42785910Y47848559D01*
X42998110Y47703569D01*
X43011197Y47700919D01*
X42798559Y47564090D01*
X42653569Y47351890D01*
X42602560Y47100000D01*
X42602560Y45600000D01*
X42646838Y45364683D01*
X42785910Y45148559D01*
X42998110Y45003569D01*
X43065000Y44990023D01*
X43065000Y41348392D01*
X42701539Y40985564D01*
X42490241Y40476702D01*
X42489760Y39925715D01*
X42700169Y39416485D01*
X43089436Y39026539D01*
X43598298Y38815241D01*
X44149285Y38814760D01*
X44658515Y39025169D01*
X45048461Y39414436D01*
X45259759Y39923298D01*
X45260240Y40474285D01*
X45049831Y40983515D01*
X44735000Y41298895D01*
X44735000Y41521985D01*
X44822419Y41434566D01*
X45093312Y41253561D01*
X45412853Y41190000D01*
X49909330Y41190000D01*
X50059450Y40965330D01*
X50374231Y40755000D01*
X50059450Y40544670D01*
X49734594Y40058489D01*
X49620520Y39485000D01*
X49734594Y38911511D01*
X50059450Y38425330D01*
X50374231Y38215000D01*
X50059450Y38004670D01*
X49734594Y37518489D01*
X49620520Y36945000D01*
X49734594Y36371511D01*
X50059450Y35885330D01*
X50374231Y35675000D01*
X50059450Y35464670D01*
X49734594Y34978489D01*
X49620520Y34405000D01*
X49734594Y33831511D01*
X50059450Y33345330D01*
X50374231Y33135000D01*
X50059450Y32924670D01*
X49734594Y32438489D01*
X49620520Y31865000D01*
X49734594Y31291511D01*
X50059450Y30805330D01*
X50374231Y30595000D01*
X50059450Y30384670D01*
X49734594Y29898489D01*
X49620520Y29325000D01*
X49734594Y28751511D01*
X50059450Y28265330D01*
X50374231Y28055000D01*
X50059450Y27844670D01*
X49734594Y27358489D01*
X49620520Y26785000D01*
X49734594Y26211511D01*
X50059450Y25725330D01*
X50374231Y25515000D01*
X50059450Y25304670D01*
X49734594Y24818489D01*
X49620520Y24245000D01*
X49734594Y23671511D01*
X50059450Y23185330D01*
X50374231Y22975000D01*
X50059450Y22764670D01*
X49734594Y22278489D01*
X49620520Y21705000D01*
X49734594Y21131511D01*
X50059450Y20645330D01*
X50374231Y20435000D01*
X50059450Y20224670D01*
X49734594Y19738489D01*
X49620520Y19165000D01*
X49734594Y18591511D01*
X50059450Y18105330D01*
X50374231Y17895000D01*
X50059450Y17684670D01*
X49734594Y17198489D01*
X49620520Y16625000D01*
X49734594Y16051511D01*
X50059450Y15565330D01*
X50374231Y15355000D01*
X50059450Y15144670D01*
X49734594Y14658489D01*
X49620520Y14085000D01*
X49734594Y13511511D01*
X50059450Y13025330D01*
X50374231Y12815000D01*
X50059450Y12604670D01*
X49734594Y12118489D01*
X49620520Y11545000D01*
X49734594Y10971511D01*
X50059450Y10485330D01*
X50374231Y10275000D01*
X50059450Y10064670D01*
X49734594Y9578489D01*
X49620520Y9005000D01*
X49734594Y8431511D01*
X50059450Y7945330D01*
X50545631Y7620474D01*
X51119120Y7506400D01*
X51710880Y7506400D01*
X52284369Y7620474D01*
X52770550Y7945330D01*
X53095406Y8431511D01*
X53099344Y8451309D01*
X61265000Y8451309D01*
X61265000Y6860750D01*
X61423750Y6702000D01*
X63523000Y6702000D01*
X63523000Y8801250D01*
X63777000Y8801250D01*
X63777000Y6702000D01*
X65876250Y6702000D01*
X66035000Y6860750D01*
X66035000Y7529696D01*
X66061673Y7465302D01*
X66240301Y7286673D01*
X66473690Y7190000D01*
X68064250Y7190000D01*
X68223000Y7348750D01*
X68223000Y9448000D01*
X68477000Y9448000D01*
X68477000Y7348750D01*
X68635750Y7190000D01*
X70226310Y7190000D01*
X70459699Y7286673D01*
X70638327Y7465302D01*
X70735000Y7698691D01*
X70735000Y9289250D01*
X70576250Y9448000D01*
X68477000Y9448000D01*
X68223000Y9448000D01*
X66123750Y9448000D01*
X65965000Y9289250D01*
X65965000Y8620304D01*
X65938327Y8684698D01*
X65759699Y8863327D01*
X65526310Y8960000D01*
X63935750Y8960000D01*
X63777000Y8801250D01*
X63523000Y8801250D01*
X63364250Y8960000D01*
X61773690Y8960000D01*
X61540301Y8863327D01*
X61361673Y8684698D01*
X61265000Y8451309D01*
X53099344Y8451309D01*
X53209480Y9005000D01*
X53095406Y9578489D01*
X52770550Y10064670D01*
X52455769Y10275000D01*
X52770550Y10485330D01*
X53095406Y10971511D01*
X53209480Y11545000D01*
X53095406Y12118489D01*
X52770550Y12604670D01*
X52455769Y12815000D01*
X52770550Y13025330D01*
X53095406Y13511511D01*
X53209480Y14085000D01*
X53161742Y14325000D01*
X61252560Y14325000D01*
X61252560Y10825000D01*
X61296838Y10589683D01*
X61435910Y10373559D01*
X61648110Y10228569D01*
X61900000Y10177560D01*
X65400000Y10177560D01*
X65635317Y10221838D01*
X65851441Y10360910D01*
X65965000Y10527109D01*
X65965000Y9860750D01*
X66123750Y9702000D01*
X68223000Y9702000D01*
X68223000Y11801250D01*
X68477000Y11801250D01*
X68477000Y9702000D01*
X70576250Y9702000D01*
X70735000Y9860750D01*
X70735000Y11451309D01*
X70638327Y11684698D01*
X70459699Y11863327D01*
X70226310Y11960000D01*
X68635750Y11960000D01*
X68477000Y11801250D01*
X68223000Y11801250D01*
X68064250Y11960000D01*
X66473690Y11960000D01*
X66240301Y11863327D01*
X66061673Y11684698D01*
X66047440Y11650337D01*
X66047440Y14325000D01*
X66003162Y14560317D01*
X65864090Y14776441D01*
X65651890Y14921431D01*
X65400000Y14972440D01*
X61900000Y14972440D01*
X61664683Y14928162D01*
X61448559Y14789090D01*
X61303569Y14576890D01*
X61252560Y14325000D01*
X53161742Y14325000D01*
X53095406Y14658489D01*
X52770550Y15144670D01*
X52455769Y15355000D01*
X52770550Y15565330D01*
X53095406Y16051511D01*
X53209480Y16625000D01*
X53095406Y17198489D01*
X52770550Y17684670D01*
X52455769Y17895000D01*
X52770550Y18105330D01*
X52920670Y18330000D01*
X52940000Y18330000D01*
X53259541Y18393561D01*
X53530434Y18574566D01*
X58090433Y23134565D01*
X58184357Y23275132D01*
X58271438Y23405458D01*
X58334999Y23724999D01*
X58334999Y33604131D01*
X59540434Y34809566D01*
X59721440Y35080460D01*
X59735781Y35152560D01*
X59800000Y35152560D01*
X60035317Y35196838D01*
X60223831Y35318143D01*
X60280301Y35261673D01*
X60513690Y35165000D01*
X61204250Y35165000D01*
X61363000Y35323750D01*
X61363000Y36773000D01*
X61343000Y36773000D01*
X61343000Y37027000D01*
X61363000Y37027000D01*
X61363000Y38476250D01*
X61204250Y38635000D01*
X60513690Y38635000D01*
X60280301Y38538327D01*
X60222103Y38480129D01*
X60051890Y38596431D01*
X59800000Y38647440D01*
X58100000Y38647440D01*
X57864683Y38603162D01*
X57648559Y38464090D01*
X57503569Y38251890D01*
X57452560Y38000000D01*
X57452560Y35800000D01*
X57496838Y35564683D01*
X57635910Y35348559D01*
X57684495Y35315363D01*
X56909565Y34540433D01*
X56728560Y34269540D01*
X56664999Y33949999D01*
X56664999Y24070867D01*
X52789877Y20195745D01*
X52770550Y20224670D01*
X52455769Y20435000D01*
X52770550Y20645330D01*
X53095406Y21131511D01*
X53209480Y21705000D01*
X53095406Y22278489D01*
X52770550Y22764670D01*
X52455769Y22975000D01*
X52770550Y23185330D01*
X53095406Y23671511D01*
X53209480Y24245000D01*
X53095406Y24818489D01*
X52770550Y25304670D01*
X52455769Y25515000D01*
X52770550Y25725330D01*
X53095406Y26211511D01*
X53209480Y26785000D01*
X53095406Y27358489D01*
X52770550Y27844670D01*
X52455769Y28055000D01*
X52770550Y28265330D01*
X53095406Y28751511D01*
X53209480Y29325000D01*
X53095406Y29898489D01*
X52770550Y30384670D01*
X52455769Y30595000D01*
X52770550Y30805330D01*
X53095406Y31291511D01*
X53209480Y31865000D01*
X53095406Y32438489D01*
X52770550Y32924670D01*
X52455769Y33135000D01*
X52770550Y33345330D01*
X53095406Y33831511D01*
X53209480Y34405000D01*
X53095406Y34978489D01*
X52770550Y35464670D01*
X52455769Y35675000D01*
X52770550Y35885330D01*
X53095406Y36371511D01*
X53209480Y36945000D01*
X53095406Y37518489D01*
X52770550Y38004670D01*
X52455769Y38215000D01*
X52770550Y38425330D01*
X53095406Y38911511D01*
X53209480Y39485000D01*
X53095406Y40058489D01*
X52770550Y40544670D01*
X52455769Y40755000D01*
X52770550Y40965330D01*
X52920670Y41190000D01*
X53229132Y41190000D01*
X54359566Y40059566D01*
X54630460Y39878560D01*
X54950000Y39815000D01*
X61829132Y39815000D01*
X62765000Y38879132D01*
X62765000Y38473026D01*
X62699699Y38538327D01*
X62466310Y38635000D01*
X61775750Y38635000D01*
X61617000Y38476250D01*
X61617000Y37027000D01*
X61637000Y37027000D01*
X61637000Y36773000D01*
X61617000Y36773000D01*
X61617000Y35323750D01*
X61775750Y35165000D01*
X62466310Y35165000D01*
X62699699Y35261673D01*
X62765000Y35326974D01*
X62765000Y35000000D01*
X62828561Y34680459D01*
X62930323Y34528162D01*
X63009566Y34409566D01*
X66134566Y31284566D01*
X66405459Y31103561D01*
X66725000Y31040000D01*
X78961868Y31040000D01*
X78913912Y30798912D01*
X78913912Y29618935D01*
X78575451Y29281063D01*
X78364153Y28772201D01*
X78363672Y28221214D01*
X78574081Y27711984D01*
X78963348Y27322038D01*
X79472210Y27110740D01*
X80023197Y27110259D01*
X80532427Y27320668D01*
X80922373Y27709935D01*
X81133671Y28218797D01*
X81134152Y28769784D01*
X80923743Y29279014D01*
X80583912Y29619438D01*
X80583912Y30453044D01*
X82909012Y32778144D01*
X82950633Y32840434D01*
X83090017Y33049037D01*
X83153578Y33368578D01*
X83153578Y35416422D01*
X83136953Y35500002D01*
X83107440Y35648375D01*
X83107440Y36255000D01*
X83063162Y36490317D01*
X82924090Y36706441D01*
X82748768Y36826233D01*
X82911441Y36930910D01*
X83056431Y37143110D01*
X83107440Y37395000D01*
X83107440Y38955000D01*
X83095000Y39021113D01*
X83095000Y39140091D01*
X83474285Y39139760D01*
X83983515Y39350169D01*
X84187671Y39553969D01*
X84116392Y635649D01*
X710539Y709373D01*
X714234Y5750715D01*
X4214760Y5750715D01*
X4425169Y5241485D01*
X4814436Y4851539D01*
X5323298Y4640241D01*
X5874285Y4639760D01*
X6383515Y4850169D01*
X6773461Y5239436D01*
X6984759Y5748298D01*
X6984761Y5750715D01*
X28414760Y5750715D01*
X28625169Y5241485D01*
X29014436Y4851539D01*
X29523298Y4640241D01*
X30074285Y4639760D01*
X30583515Y4850169D01*
X30973461Y5239436D01*
X31184759Y5748298D01*
X31185231Y6289250D01*
X61265000Y6289250D01*
X61265000Y4698691D01*
X61361673Y4465302D01*
X61540301Y4286673D01*
X61773690Y4190000D01*
X63364250Y4190000D01*
X63523000Y4348750D01*
X63523000Y6448000D01*
X63777000Y6448000D01*
X63777000Y4348750D01*
X63935750Y4190000D01*
X65526310Y4190000D01*
X65759699Y4286673D01*
X65938327Y4465302D01*
X66035000Y4698691D01*
X66035000Y6289250D01*
X65876250Y6448000D01*
X63777000Y6448000D01*
X63523000Y6448000D01*
X61423750Y6448000D01*
X61265000Y6289250D01*
X31185231Y6289250D01*
X31185240Y6299285D01*
X31108722Y6484472D01*
X31173000Y6548750D01*
X31173000Y7998000D01*
X31427000Y7998000D01*
X31427000Y6548750D01*
X31585750Y6390000D01*
X32026309Y6390000D01*
X32259698Y6486673D01*
X32438327Y6665301D01*
X32535000Y6898690D01*
X32535000Y7839250D01*
X32376250Y7998000D01*
X31427000Y7998000D01*
X31173000Y7998000D01*
X30223750Y7998000D01*
X30065000Y7839250D01*
X30065000Y7409769D01*
X29525715Y7410240D01*
X29016485Y7199831D01*
X28626539Y6810564D01*
X28415241Y6301702D01*
X28414760Y5750715D01*
X6984761Y5750715D01*
X6985240Y6299285D01*
X6774831Y6808515D01*
X6385564Y7198461D01*
X5876702Y7409759D01*
X5325715Y7410240D01*
X4816485Y7199831D01*
X4426539Y6810564D01*
X4215241Y6301702D01*
X4214760Y5750715D01*
X714234Y5750715D01*
X716645Y9039250D01*
X2065000Y9039250D01*
X2065000Y8098690D01*
X2161673Y7865301D01*
X2340302Y7686673D01*
X2573691Y7590000D01*
X3014250Y7590000D01*
X3173000Y7748750D01*
X3173000Y9198000D01*
X3427000Y9198000D01*
X3427000Y7748750D01*
X3585750Y7590000D01*
X4026309Y7590000D01*
X4259698Y7686673D01*
X4438327Y7865301D01*
X4535000Y8098690D01*
X4535000Y9039250D01*
X4376250Y9198000D01*
X3427000Y9198000D01*
X3173000Y9198000D01*
X2223750Y9198000D01*
X2065000Y9039250D01*
X716645Y9039250D01*
X716873Y9351310D01*
X30065000Y9351310D01*
X30065000Y8410750D01*
X30223750Y8252000D01*
X31173000Y8252000D01*
X31173000Y9701250D01*
X31427000Y9701250D01*
X31427000Y8252000D01*
X32376250Y8252000D01*
X32535000Y8410750D01*
X32535000Y8645974D01*
X34458642Y8645974D01*
X34480473Y8548843D01*
X34764127Y8035132D01*
X35222778Y7669075D01*
X35786600Y7506400D01*
X36048000Y7506400D01*
X36048000Y8878000D01*
X36302000Y8878000D01*
X36302000Y7506400D01*
X36563400Y7506400D01*
X37127222Y7669075D01*
X37585873Y8035132D01*
X37869527Y8548843D01*
X37891358Y8645974D01*
X37770217Y8878000D01*
X36302000Y8878000D01*
X36048000Y8878000D01*
X34579783Y8878000D01*
X34458642Y8645974D01*
X32535000Y8645974D01*
X32535000Y9351310D01*
X32438327Y9584699D01*
X32259698Y9763327D01*
X32026309Y9860000D01*
X31585750Y9860000D01*
X31427000Y9701250D01*
X31173000Y9701250D01*
X31014250Y9860000D01*
X30573691Y9860000D01*
X30340302Y9763327D01*
X30161673Y9584699D01*
X30065000Y9351310D01*
X716873Y9351310D01*
X717753Y10551310D01*
X2065000Y10551310D01*
X2065000Y9610750D01*
X2223750Y9452000D01*
X3173000Y9452000D01*
X3173000Y10901250D01*
X3427000Y10901250D01*
X3427000Y9452000D01*
X4376250Y9452000D01*
X4535000Y9610750D01*
X4535000Y10551310D01*
X4438327Y10784699D01*
X4259698Y10963327D01*
X4026309Y11060000D01*
X3585750Y11060000D01*
X3427000Y10901250D01*
X3173000Y10901250D01*
X3014250Y11060000D01*
X2573691Y11060000D01*
X2340302Y10963327D01*
X2161673Y10784699D01*
X2065000Y10551310D01*
X717753Y10551310D01*
X718218Y11185974D01*
X34458642Y11185974D01*
X34480473Y11088843D01*
X34764127Y10575132D01*
X35140177Y10275000D01*
X34764127Y9974868D01*
X34480473Y9461157D01*
X34458642Y9364026D01*
X34579783Y9132000D01*
X36048000Y9132000D01*
X36048000Y11418000D01*
X36302000Y11418000D01*
X36302000Y9132000D01*
X37770217Y9132000D01*
X37891358Y9364026D01*
X37869527Y9461157D01*
X37585873Y9974868D01*
X37209823Y10275000D01*
X37585873Y10575132D01*
X37869527Y11088843D01*
X37891358Y11185974D01*
X37770217Y11418000D01*
X36302000Y11418000D01*
X36048000Y11418000D01*
X34579783Y11418000D01*
X34458642Y11185974D01*
X718218Y11185974D01*
X719272Y12623339D01*
X15207758Y12623339D01*
X15419990Y12109697D01*
X15812630Y11716371D01*
X16325900Y11503243D01*
X16881661Y11502758D01*
X17395303Y11714990D01*
X17788629Y12107630D01*
X17874949Y12315512D01*
X17959990Y12109697D01*
X18352630Y11716371D01*
X18865900Y11503243D01*
X19421661Y11502758D01*
X19935303Y11714990D01*
X20328629Y12107630D01*
X20414949Y12315512D01*
X20499990Y12109697D01*
X20892630Y11716371D01*
X21405900Y11503243D01*
X21961661Y11502758D01*
X22475303Y11714990D01*
X22680457Y11919787D01*
X23424392Y11919787D01*
X23493857Y11677603D01*
X24017302Y11490856D01*
X24572368Y11518638D01*
X24956143Y11677603D01*
X25025608Y11919787D01*
X24225000Y12720395D01*
X23424392Y11919787D01*
X22680457Y11919787D01*
X22868629Y12107630D01*
X22948395Y12299727D01*
X23002603Y12168857D01*
X23244787Y12099392D01*
X24045395Y12900000D01*
X24404605Y12900000D01*
X25205213Y12099392D01*
X25447397Y12168857D01*
X25634144Y12692302D01*
X25606362Y13247368D01*
X25447397Y13631143D01*
X25205213Y13700608D01*
X24404605Y12900000D01*
X24045395Y12900000D01*
X23244787Y13700608D01*
X23002603Y13631143D01*
X22952491Y13490682D01*
X22870010Y13690303D01*
X22680432Y13880213D01*
X23424392Y13880213D01*
X24225000Y13079605D01*
X25025608Y13880213D01*
X24956143Y14122397D01*
X24432698Y14309144D01*
X23877632Y14281362D01*
X23493857Y14122397D01*
X23424392Y13880213D01*
X22680432Y13880213D01*
X22477370Y14083629D01*
X21964100Y14296757D01*
X21408339Y14297242D01*
X20894697Y14085010D01*
X20501371Y13692370D01*
X20415051Y13484488D01*
X20330010Y13690303D01*
X19937370Y14083629D01*
X19424100Y14296757D01*
X18868339Y14297242D01*
X18354697Y14085010D01*
X17961371Y13692370D01*
X17875051Y13484488D01*
X17790010Y13690303D01*
X17397370Y14083629D01*
X16884100Y14296757D01*
X16328339Y14297242D01*
X15814697Y14085010D01*
X15421371Y13692370D01*
X15208243Y13179100D01*
X15207758Y12623339D01*
X719272Y12623339D01*
X725930Y21705000D01*
X34380520Y21705000D01*
X34494594Y21131511D01*
X34819450Y20645330D01*
X35134231Y20435000D01*
X34819450Y20224670D01*
X34494594Y19738489D01*
X34380520Y19165000D01*
X34494594Y18591511D01*
X34819450Y18105330D01*
X35134231Y17895000D01*
X34819450Y17684670D01*
X34494594Y17198489D01*
X34380520Y16625000D01*
X34494594Y16051511D01*
X34819450Y15565330D01*
X35134231Y15355000D01*
X34819450Y15144670D01*
X34494594Y14658489D01*
X34380520Y14085000D01*
X34494594Y13511511D01*
X34819450Y13025330D01*
X35137468Y12812837D01*
X34764127Y12514868D01*
X34480473Y12001157D01*
X34458642Y11904026D01*
X34579783Y11672000D01*
X36048000Y11672000D01*
X36048000Y11692000D01*
X36302000Y11692000D01*
X36302000Y11672000D01*
X37770217Y11672000D01*
X37891358Y11904026D01*
X37869527Y12001157D01*
X37585873Y12514868D01*
X37212532Y12812837D01*
X37530550Y13025330D01*
X37855406Y13511511D01*
X37969480Y14085000D01*
X37855406Y14658489D01*
X37530550Y15144670D01*
X37215769Y15355000D01*
X37530550Y15565330D01*
X37855406Y16051511D01*
X37969480Y16625000D01*
X37855406Y17198489D01*
X37530550Y17684670D01*
X37215769Y17895000D01*
X37530550Y18105330D01*
X37855406Y18591511D01*
X37969480Y19165000D01*
X37855406Y19738489D01*
X37530550Y20224670D01*
X37215769Y20435000D01*
X37530550Y20645330D01*
X37855406Y21131511D01*
X37969480Y21705000D01*
X37855406Y22278489D01*
X37530550Y22764670D01*
X37212532Y22977163D01*
X37585873Y23275132D01*
X37869527Y23788843D01*
X37891358Y23885974D01*
X37770217Y24118000D01*
X36302000Y24118000D01*
X36302000Y24098000D01*
X36048000Y24098000D01*
X36048000Y24118000D01*
X34579783Y24118000D01*
X34458642Y23885974D01*
X34480473Y23788843D01*
X34764127Y23275132D01*
X35137468Y22977163D01*
X34819450Y22764670D01*
X34494594Y22278489D01*
X34380520Y21705000D01*
X725930Y21705000D01*
X732800Y31075000D01*
X7182560Y31075000D01*
X7182560Y29575000D01*
X7226838Y29339683D01*
X7365910Y29123559D01*
X7578110Y28978569D01*
X7830000Y28927560D01*
X8830000Y28927560D01*
X9065317Y28971838D01*
X9281441Y29110910D01*
X9426431Y29323110D01*
X9477440Y29575000D01*
X9477440Y31075000D01*
X9682560Y31075000D01*
X9682560Y29575000D01*
X9726838Y29339683D01*
X9865910Y29123559D01*
X10078110Y28978569D01*
X10330000Y28927560D01*
X11330000Y28927560D01*
X11565317Y28971838D01*
X11781441Y29110910D01*
X11926431Y29323110D01*
X11977440Y29575000D01*
X11977440Y31075000D01*
X11933162Y31310317D01*
X11794090Y31526441D01*
X11665000Y31614644D01*
X11665000Y32074097D01*
X16142212Y36551309D01*
X17215000Y36551309D01*
X17215000Y35960750D01*
X17373750Y35802000D01*
X18348000Y35802000D01*
X18348000Y36901250D01*
X18602000Y36901250D01*
X18602000Y35802000D01*
X19576250Y35802000D01*
X19735000Y35960750D01*
X19735000Y36551309D01*
X19638327Y36784698D01*
X19459699Y36963327D01*
X19226310Y37060000D01*
X18760750Y37060000D01*
X18602000Y36901250D01*
X18348000Y36901250D01*
X18189250Y37060000D01*
X17723690Y37060000D01*
X17490301Y36963327D01*
X17311673Y36784698D01*
X17215000Y36551309D01*
X16142212Y36551309D01*
X17209405Y37618502D01*
X28085659Y37618502D01*
X29349595Y36354566D01*
X29620488Y36173561D01*
X29940029Y36110000D01*
X34669330Y36110000D01*
X34819450Y35885330D01*
X35134231Y35675000D01*
X34819450Y35464670D01*
X34669330Y35240000D01*
X27445682Y35240000D01*
X27594132Y35388192D01*
X27805430Y35897054D01*
X27805911Y36448041D01*
X27595502Y36957271D01*
X27206235Y37347217D01*
X26697373Y37558515D01*
X26146386Y37558996D01*
X25637156Y37348587D01*
X25296732Y37008756D01*
X23928756Y37008756D01*
X23609216Y36945196D01*
X23338322Y36764190D01*
X19747440Y33173308D01*
X19747440Y33925000D01*
X19703162Y34160317D01*
X19564090Y34376441D01*
X19495994Y34422969D01*
X19638327Y34565302D01*
X19735000Y34798691D01*
X19735000Y35389250D01*
X19576250Y35548000D01*
X18602000Y35548000D01*
X18602000Y35528000D01*
X18348000Y35528000D01*
X18348000Y35548000D01*
X17373750Y35548000D01*
X17215000Y35389250D01*
X17215000Y34798691D01*
X17311673Y34565302D01*
X17452910Y34424064D01*
X17398559Y34389090D01*
X17253569Y34176890D01*
X17202560Y33925000D01*
X17202560Y32425000D01*
X17246838Y32189683D01*
X17385910Y31973559D01*
X17495000Y31899021D01*
X17495000Y31614018D01*
X17491354Y31611671D01*
X17489698Y31613327D01*
X17256309Y31710000D01*
X16915750Y31710000D01*
X16757000Y31551250D01*
X16757000Y30452000D01*
X16777000Y30452000D01*
X16777000Y30198000D01*
X16757000Y30198000D01*
X16757000Y29098750D01*
X16915750Y28940000D01*
X17256309Y28940000D01*
X17489698Y29036673D01*
X17491068Y29038043D01*
X17578110Y28978569D01*
X17830000Y28927560D01*
X18830000Y28927560D01*
X19065317Y28971838D01*
X19281441Y29110910D01*
X19426431Y29323110D01*
X19477440Y29575000D01*
X19477440Y30541572D01*
X19682560Y30746692D01*
X19682560Y29575000D01*
X19726838Y29339683D01*
X19865910Y29123559D01*
X20078110Y28978569D01*
X20330000Y28927560D01*
X21330000Y28927560D01*
X21565317Y28971838D01*
X21781441Y29110910D01*
X21926431Y29323110D01*
X21977440Y29575000D01*
X21977440Y30039250D01*
X22195000Y30039250D01*
X22195000Y29448690D01*
X22291673Y29215301D01*
X22470302Y29036673D01*
X22703691Y28940000D01*
X23044250Y28940000D01*
X23203000Y29098750D01*
X23203000Y30198000D01*
X23457000Y30198000D01*
X23457000Y29098750D01*
X23615750Y28940000D01*
X23956309Y28940000D01*
X24189698Y29036673D01*
X24368327Y29215301D01*
X24465000Y29448690D01*
X24465000Y30039250D01*
X24306250Y30198000D01*
X23457000Y30198000D01*
X23203000Y30198000D01*
X22353750Y30198000D01*
X22195000Y30039250D01*
X21977440Y30039250D01*
X21977440Y30541572D01*
X22195000Y30759132D01*
X22195000Y30610750D01*
X22353750Y30452000D01*
X23203000Y30452000D01*
X23203000Y31551250D01*
X23457000Y31551250D01*
X23457000Y30452000D01*
X24306250Y30452000D01*
X24465000Y30610750D01*
X24465000Y31201310D01*
X24368327Y31434699D01*
X24189698Y31613327D01*
X23956309Y31710000D01*
X23615750Y31710000D01*
X23457000Y31551250D01*
X23203000Y31551250D01*
X23095059Y31659191D01*
X25005868Y33570000D01*
X34669330Y33570000D01*
X34819450Y33345330D01*
X35134231Y33135000D01*
X34819450Y32924670D01*
X34791645Y32883056D01*
X34729366Y32924670D01*
X34584541Y33021439D01*
X34265000Y33085000D01*
X26050000Y33085000D01*
X25730459Y33021439D01*
X25585634Y32924670D01*
X25459566Y32840434D01*
X25159566Y32540434D01*
X24978561Y32269541D01*
X24915000Y31950000D01*
X24915000Y31614018D01*
X24798559Y31539090D01*
X24653569Y31326890D01*
X24602560Y31075000D01*
X24602560Y29575000D01*
X24646838Y29339683D01*
X24785910Y29123559D01*
X24998110Y28978569D01*
X25250000Y28927560D01*
X26250000Y28927560D01*
X26485317Y28971838D01*
X26599978Y29045620D01*
X26698110Y28978569D01*
X26950000Y28927560D01*
X27950000Y28927560D01*
X28185317Y28971838D01*
X28401441Y29110910D01*
X28546431Y29323110D01*
X28597440Y29575000D01*
X28597440Y31075000D01*
X28553162Y31310317D01*
X28485800Y31415000D01*
X29763772Y31415000D01*
X29703569Y31326890D01*
X29652560Y31075000D01*
X29652560Y29575000D01*
X29696838Y29339683D01*
X29835910Y29123559D01*
X30048110Y28978569D01*
X30300000Y28927560D01*
X31300000Y28927560D01*
X31535317Y28971838D01*
X31751441Y29110910D01*
X31896431Y29323110D01*
X31947440Y29575000D01*
X31947440Y31075000D01*
X31903162Y31310317D01*
X31835800Y31415000D01*
X33919132Y31415000D01*
X34059566Y31274566D01*
X34330459Y31093561D01*
X34650000Y31030000D01*
X34669330Y31030000D01*
X34819450Y30805330D01*
X35134231Y30595000D01*
X34819450Y30384670D01*
X34669330Y30160000D01*
X34650000Y30160000D01*
X34330459Y30096439D01*
X34059566Y29915434D01*
X29229132Y25085000D01*
X17576210Y25085000D01*
X14165000Y28496210D01*
X14165000Y29021690D01*
X14228110Y28978569D01*
X14480000Y28927560D01*
X15480000Y28927560D01*
X15715317Y28971838D01*
X15798148Y29025139D01*
X16003691Y28940000D01*
X16344250Y28940000D01*
X16503000Y29098750D01*
X16503000Y30198000D01*
X16483000Y30198000D01*
X16483000Y30452000D01*
X16503000Y30452000D01*
X16503000Y31551250D01*
X16344250Y31710000D01*
X16003691Y31710000D01*
X15799330Y31625351D01*
X15731890Y31671431D01*
X15480000Y31722440D01*
X14480000Y31722440D01*
X14244683Y31678162D01*
X14155772Y31620949D01*
X14081890Y31671431D01*
X13830000Y31722440D01*
X12830000Y31722440D01*
X12594683Y31678162D01*
X12378559Y31539090D01*
X12233569Y31326890D01*
X12182560Y31075000D01*
X12182560Y29575000D01*
X12226838Y29339683D01*
X12365910Y29123559D01*
X12495000Y29035356D01*
X12495000Y28150342D01*
X12558561Y27830801D01*
X12561502Y27826400D01*
X12739566Y27559908D01*
X16639908Y23659566D01*
X16910802Y23478560D01*
X17230342Y23415000D01*
X29575000Y23415000D01*
X29894541Y23478561D01*
X30165434Y23659566D01*
X34800123Y28294255D01*
X34819450Y28265330D01*
X35134231Y28055000D01*
X34819450Y27844670D01*
X34494594Y27358489D01*
X34380520Y26785000D01*
X34494594Y26211511D01*
X34819450Y25725330D01*
X35137468Y25512837D01*
X34764127Y25214868D01*
X34480473Y24701157D01*
X34458642Y24604026D01*
X34579783Y24372000D01*
X36048000Y24372000D01*
X36048000Y24392000D01*
X36302000Y24392000D01*
X36302000Y24372000D01*
X37770217Y24372000D01*
X37891358Y24604026D01*
X37869527Y24701157D01*
X37585873Y25214868D01*
X37212532Y25512837D01*
X37530550Y25725330D01*
X37855406Y26211511D01*
X37969480Y26785000D01*
X37855406Y27358489D01*
X37530550Y27844670D01*
X37215769Y28055000D01*
X37530550Y28265330D01*
X37855406Y28751511D01*
X37969480Y29325000D01*
X37855406Y29898489D01*
X37530550Y30384670D01*
X37215769Y30595000D01*
X37530550Y30805330D01*
X37855406Y31291511D01*
X37969480Y31865000D01*
X37855406Y32438489D01*
X37530550Y32924670D01*
X37215769Y33135000D01*
X37530550Y33345330D01*
X37855406Y33831511D01*
X37969480Y34405000D01*
X37855406Y34978489D01*
X37530550Y35464670D01*
X37215769Y35675000D01*
X37530550Y35885330D01*
X37855406Y36371511D01*
X37969480Y36945000D01*
X37855406Y37518489D01*
X37530550Y38004670D01*
X37215769Y38215000D01*
X37530550Y38425330D01*
X37855406Y38911511D01*
X37969480Y39485000D01*
X37855406Y40058489D01*
X37530550Y40544670D01*
X37215769Y40755000D01*
X37530550Y40965330D01*
X37855406Y41451511D01*
X37969480Y42025000D01*
X37855406Y42598489D01*
X37530550Y43084670D01*
X37215769Y43295000D01*
X37530550Y43505330D01*
X37855406Y43991511D01*
X37969480Y44565000D01*
X37855406Y45138489D01*
X37530550Y45624670D01*
X37215769Y45835000D01*
X37530550Y46045330D01*
X37855406Y46531511D01*
X37969480Y47105000D01*
X37855406Y47678489D01*
X37530550Y48164670D01*
X37215769Y48375000D01*
X37530550Y48585330D01*
X37855406Y49071511D01*
X37969480Y49645000D01*
X37855406Y50218489D01*
X37530550Y50704670D01*
X37215769Y50915000D01*
X37530550Y51125330D01*
X37855406Y51611511D01*
X37969480Y52185000D01*
X37855406Y52758489D01*
X37530550Y53244670D01*
X37215769Y53455000D01*
X37530550Y53665330D01*
X37855406Y54151511D01*
X37969480Y54725000D01*
X37855406Y55298489D01*
X37530550Y55784670D01*
X37515753Y55794557D01*
X37535317Y55798238D01*
X37751441Y55937310D01*
X37896431Y56149510D01*
X37947440Y56401400D01*
X37947440Y58128600D01*
X37903162Y58363917D01*
X37764090Y58580041D01*
X37551890Y58725031D01*
X37300000Y58776040D01*
X35050000Y58776040D01*
X34814683Y58731762D01*
X34598559Y58592690D01*
X34453569Y58380490D01*
X34402560Y58128600D01*
X34402560Y58100000D01*
X31637902Y58100000D01*
X31637902Y59330354D01*
X58880381Y59330354D01*
X58999735Y59077000D01*
X60343000Y59077000D01*
X60343000Y60420807D01*
X60089645Y60539627D01*
X59510274Y60273068D01*
X59077013Y59805084D01*
X58880381Y59330354D01*
X31637902Y59330354D01*
X31637902Y60386512D01*
X31574341Y60706053D01*
X31393336Y60976946D01*
X29018758Y63351524D01*
X29019175Y63829764D01*
X28808766Y64338994D01*
X28419499Y64728940D01*
X27910637Y64940238D01*
X27359650Y64940719D01*
X26850420Y64730310D01*
X26460474Y64341043D01*
X26249176Y63832181D01*
X26248695Y63281194D01*
X26459104Y62771964D01*
X26848371Y62382018D01*
X27357233Y62170720D01*
X27838246Y62170300D01*
X29967902Y60040644D01*
X29967902Y57338610D01*
X29990000Y57227516D01*
X29990000Y56557926D01*
X29964683Y56553162D01*
X29748559Y56414090D01*
X29603569Y56201890D01*
X29552560Y55950000D01*
X29552560Y54450000D01*
X29596838Y54214683D01*
X29735910Y53998559D01*
X29804006Y53952031D01*
X29661673Y53809698D01*
X29565000Y53576309D01*
X29565000Y52985750D01*
X29723750Y52827000D01*
X30698000Y52827000D01*
X30698000Y52847000D01*
X30952000Y52847000D01*
X30952000Y52827000D01*
X31926250Y52827000D01*
X32085000Y52985750D01*
X32085000Y53576309D01*
X31988327Y53809698D01*
X31847090Y53950936D01*
X31901441Y53985910D01*
X32046431Y54198110D01*
X32097440Y54450000D01*
X32097440Y55950000D01*
X32053162Y56185317D01*
X31914090Y56401441D01*
X31872292Y56430000D01*
X34402560Y56430000D01*
X34402560Y56401400D01*
X34446838Y56166083D01*
X34585910Y55949959D01*
X34798110Y55804969D01*
X34837801Y55796931D01*
X34819450Y55784670D01*
X34494594Y55298489D01*
X34380520Y54725000D01*
X34494594Y54151511D01*
X34819450Y53665330D01*
X35134231Y53455000D01*
X34819450Y53244670D01*
X34494594Y52758489D01*
X34380520Y52185000D01*
X34494594Y51611511D01*
X34819450Y51125330D01*
X35134231Y50915000D01*
X34819450Y50704670D01*
X34494594Y50218489D01*
X34380520Y49645000D01*
X34494594Y49071511D01*
X34819450Y48585330D01*
X35134231Y48375000D01*
X34819450Y48164670D01*
X34494594Y47678489D01*
X34380520Y47105000D01*
X34494594Y46531511D01*
X34819450Y46045330D01*
X35134231Y45835000D01*
X34819450Y45624670D01*
X34494594Y45138489D01*
X34380520Y44565000D01*
X34494594Y43991511D01*
X34819450Y43505330D01*
X35134231Y43295000D01*
X34819450Y43084670D01*
X34494594Y42598489D01*
X34380520Y42025000D01*
X34494594Y41451511D01*
X34819450Y40965330D01*
X35134231Y40755000D01*
X34819450Y40544670D01*
X34494594Y40058489D01*
X34380520Y39485000D01*
X34494594Y38911511D01*
X34819450Y38425330D01*
X35134231Y38215000D01*
X34819450Y38004670D01*
X34669330Y37780000D01*
X30285897Y37780000D01*
X29021961Y39043936D01*
X29016781Y39047397D01*
X28751068Y39224941D01*
X28431527Y39288502D01*
X16863537Y39288502D01*
X16543996Y39224941D01*
X16278283Y39047397D01*
X16273103Y39043936D01*
X10239566Y33010399D01*
X10058561Y32739506D01*
X9995000Y32419965D01*
X9995000Y31614018D01*
X9878559Y31539090D01*
X9733569Y31326890D01*
X9682560Y31075000D01*
X9477440Y31075000D01*
X9433162Y31310317D01*
X9294090Y31526441D01*
X9081890Y31671431D01*
X8830000Y31722440D01*
X7830000Y31722440D01*
X7594683Y31678162D01*
X7378559Y31539090D01*
X7233569Y31326890D01*
X7182560Y31075000D01*
X732800Y31075000D01*
X748445Y52414250D01*
X29565000Y52414250D01*
X29565000Y51823691D01*
X29661673Y51590302D01*
X29840301Y51411673D01*
X30073690Y51315000D01*
X30539250Y51315000D01*
X30698000Y51473750D01*
X30698000Y52573000D01*
X30952000Y52573000D01*
X30952000Y51473750D01*
X31110750Y51315000D01*
X31576310Y51315000D01*
X31809699Y51411673D01*
X31988327Y51590302D01*
X32085000Y51823691D01*
X32085000Y52414250D01*
X31926250Y52573000D01*
X30952000Y52573000D01*
X30698000Y52573000D01*
X29723750Y52573000D01*
X29565000Y52414250D01*
X748445Y52414250D01*
X759480Y67464615D01*
X84238654Y67390674D01*
G36*
X65784566Y37259566D02*
X66055459Y37078561D01*
X66305300Y37028864D01*
X66341838Y36834683D01*
X66480910Y36618559D01*
X66657197Y36498107D01*
X66585301Y36468327D01*
X66406673Y36289698D01*
X66310000Y36056309D01*
X66310000Y35435750D01*
X66468750Y35277000D01*
X67045000Y35277000D01*
X67045000Y35297000D01*
X67098750Y35297000D01*
X67118750Y35277000D01*
X67292000Y35277000D01*
X67292000Y35023000D01*
X67118750Y35023000D01*
X67098750Y35003000D01*
X67045000Y35003000D01*
X67045000Y35023000D01*
X66468750Y35023000D01*
X66375809Y34930059D01*
X65485000Y35820868D01*
X65485000Y37559132D01*
X65784566Y37259566D01*
X65784566Y37259566D01*
G37*
X65784566Y37259566D02*
X66055459Y37078561D01*
X66305300Y37028864D01*
X66341838Y36834683D01*
X66480910Y36618559D01*
X66657197Y36498107D01*
X66585301Y36468327D01*
X66406673Y36289698D01*
X66310000Y36056309D01*
X66310000Y35435750D01*
X66468750Y35277000D01*
X67045000Y35277000D01*
X67045000Y35297000D01*
X67098750Y35297000D01*
X67118750Y35277000D01*
X67292000Y35277000D01*
X67292000Y35023000D01*
X67118750Y35023000D01*
X67098750Y35003000D01*
X67045000Y35003000D01*
X67045000Y35023000D01*
X66468750Y35023000D01*
X66375809Y34930059D01*
X65485000Y35820868D01*
X65485000Y37559132D01*
X65784566Y37259566D01*
G36*
X78523580Y38225000D02*
X78555217Y38177652D01*
X79148303Y37584566D01*
X79419196Y37403561D01*
X79452560Y37396924D01*
X79452560Y37395000D01*
X79496838Y37159683D01*
X79635910Y36943559D01*
X79811232Y36823767D01*
X79702237Y36753631D01*
X79040434Y37415434D01*
X78983373Y37453561D01*
X78769541Y37596439D01*
X78450000Y37660000D01*
X78024901Y37660000D01*
X78307686Y37942293D01*
X78462829Y38315920D01*
X78523580Y38225000D01*
X78523580Y38225000D01*
G37*
X78523580Y38225000D02*
X78555217Y38177652D01*
X79148303Y37584566D01*
X79419196Y37403561D01*
X79452560Y37396924D01*
X79452560Y37395000D01*
X79496838Y37159683D01*
X79635910Y36943559D01*
X79811232Y36823767D01*
X79702237Y36753631D01*
X79040434Y37415434D01*
X78983373Y37453561D01*
X78769541Y37596439D01*
X78450000Y37660000D01*
X78024901Y37660000D01*
X78307686Y37942293D01*
X78462829Y38315920D01*
X78523580Y38225000D01*
G36*
X69704031Y50138070D02*
X69704030Y50138065D01*
X69782816Y49741988D01*
X70007175Y49406209D01*
X72415945Y46997440D01*
X72100000Y46997440D01*
X71864683Y46953162D01*
X71648559Y46814090D01*
X71503569Y46601890D01*
X71452560Y46350000D01*
X71452560Y43650000D01*
X71496838Y43414683D01*
X71635910Y43198559D01*
X71848110Y43053569D01*
X72100000Y43002560D01*
X72271692Y43002560D01*
X71334566Y42065434D01*
X71153561Y41794541D01*
X71090000Y41475000D01*
X71090000Y38725000D01*
X71153561Y38405459D01*
X71311197Y38169540D01*
X71334566Y38134566D01*
X71706839Y37762293D01*
X71351702Y37909759D01*
X70800715Y37910240D01*
X70800151Y37910007D01*
X70305079Y38405079D01*
X70050407Y38575245D01*
X69952440Y38594732D01*
X69952440Y38630000D01*
X69908162Y38865317D01*
X69769090Y39081441D01*
X69556890Y39226431D01*
X69305000Y39277440D01*
X68905000Y39277440D01*
X68799295Y39257550D01*
X68781310Y39265000D01*
X68713750Y39265000D01*
X68684746Y39235996D01*
X68669683Y39233162D01*
X68630000Y39207627D01*
X68630000Y39874132D01*
X70672684Y41916816D01*
X70744970Y42025000D01*
X70853689Y42187709D01*
X70917250Y42507250D01*
X70917250Y47013384D01*
X70853689Y47332925D01*
X70672684Y47603818D01*
X68560000Y49716502D01*
X68560000Y50902560D01*
X69325000Y50902560D01*
X69560317Y50946838D01*
X69704031Y51039315D01*
X69704031Y50138070D01*
X69704031Y50138070D01*
G37*
X69704031Y50138070D02*
X69704030Y50138065D01*
X69782816Y49741988D01*
X70007175Y49406209D01*
X72415945Y46997440D01*
X72100000Y46997440D01*
X71864683Y46953162D01*
X71648559Y46814090D01*
X71503569Y46601890D01*
X71452560Y46350000D01*
X71452560Y43650000D01*
X71496838Y43414683D01*
X71635910Y43198559D01*
X71848110Y43053569D01*
X72100000Y43002560D01*
X72271692Y43002560D01*
X71334566Y42065434D01*
X71153561Y41794541D01*
X71090000Y41475000D01*
X71090000Y38725000D01*
X71153561Y38405459D01*
X71311197Y38169540D01*
X71334566Y38134566D01*
X71706839Y37762293D01*
X71351702Y37909759D01*
X70800715Y37910240D01*
X70800151Y37910007D01*
X70305079Y38405079D01*
X70050407Y38575245D01*
X69952440Y38594732D01*
X69952440Y38630000D01*
X69908162Y38865317D01*
X69769090Y39081441D01*
X69556890Y39226431D01*
X69305000Y39277440D01*
X68905000Y39277440D01*
X68799295Y39257550D01*
X68781310Y39265000D01*
X68713750Y39265000D01*
X68684746Y39235996D01*
X68669683Y39233162D01*
X68630000Y39207627D01*
X68630000Y39874132D01*
X70672684Y41916816D01*
X70744970Y42025000D01*
X70853689Y42187709D01*
X70917250Y42507250D01*
X70917250Y47013384D01*
X70853689Y47332925D01*
X70672684Y47603818D01*
X68560000Y49716502D01*
X68560000Y50902560D01*
X69325000Y50902560D01*
X69560317Y50946838D01*
X69704031Y51039315D01*
X69704031Y50138070D01*
G36*
X76490000Y50375005D02*
X76489999Y50375000D01*
X76568785Y49978923D01*
X76793144Y49643144D01*
X79388849Y47047440D01*
X79100000Y47047440D01*
X78864683Y47003162D01*
X78648559Y46864090D01*
X78503569Y46651890D01*
X78452560Y46400000D01*
X78452560Y43700000D01*
X78496838Y43464683D01*
X78635910Y43248559D01*
X78848110Y43103569D01*
X79100000Y43052560D01*
X79271692Y43052560D01*
X78555217Y42336085D01*
X78374212Y42065192D01*
X78310651Y41745651D01*
X78310651Y39507512D01*
X78309056Y39511372D01*
X77919789Y39901318D01*
X77410927Y40112616D01*
X76859940Y40113097D01*
X76350710Y39902688D01*
X75960764Y39513421D01*
X75938648Y39460159D01*
X75731890Y39601431D01*
X75480000Y39652440D01*
X75080000Y39652440D01*
X74974295Y39632550D01*
X74956310Y39640000D01*
X74888750Y39640000D01*
X74859746Y39610996D01*
X74844683Y39608162D01*
X74805000Y39582627D01*
X74805000Y39899132D01*
X77015434Y42109566D01*
X77052764Y42165434D01*
X77196439Y42380459D01*
X77260000Y42700000D01*
X77260000Y48425000D01*
X77196439Y48744541D01*
X77015434Y49015434D01*
X75128308Y50902560D01*
X75300000Y50902560D01*
X75535317Y50946838D01*
X75751441Y51085910D01*
X75896431Y51298110D01*
X75947440Y51550000D01*
X75947440Y53683729D01*
X76490000Y54226289D01*
X76490000Y50375005D01*
X76490000Y50375005D01*
G37*
X76490000Y50375005D02*
X76489999Y50375000D01*
X76568785Y49978923D01*
X76793144Y49643144D01*
X79388849Y47047440D01*
X79100000Y47047440D01*
X78864683Y47003162D01*
X78648559Y46864090D01*
X78503569Y46651890D01*
X78452560Y46400000D01*
X78452560Y43700000D01*
X78496838Y43464683D01*
X78635910Y43248559D01*
X78848110Y43103569D01*
X79100000Y43052560D01*
X79271692Y43052560D01*
X78555217Y42336085D01*
X78374212Y42065192D01*
X78310651Y41745651D01*
X78310651Y39507512D01*
X78309056Y39511372D01*
X77919789Y39901318D01*
X77410927Y40112616D01*
X76859940Y40113097D01*
X76350710Y39902688D01*
X75960764Y39513421D01*
X75938648Y39460159D01*
X75731890Y39601431D01*
X75480000Y39652440D01*
X75080000Y39652440D01*
X74974295Y39632550D01*
X74956310Y39640000D01*
X74888750Y39640000D01*
X74859746Y39610996D01*
X74844683Y39608162D01*
X74805000Y39582627D01*
X74805000Y39899132D01*
X77015434Y42109566D01*
X77052764Y42165434D01*
X77196439Y42380459D01*
X77260000Y42700000D01*
X77260000Y48425000D01*
X77196439Y48744541D01*
X77015434Y49015434D01*
X75128308Y50902560D01*
X75300000Y50902560D01*
X75535317Y50946838D01*
X75751441Y51085910D01*
X75896431Y51298110D01*
X75947440Y51550000D01*
X75947440Y53683729D01*
X76490000Y54226289D01*
X76490000Y50375005D01*
M02*
