%FSLAX45Y45*%
G04 Gerber Fmt 4.5, Leading zero omitted, Abs format (unit mm)*
G04 Created by KiCad (PCBNEW 4.0.7) date 03/22/18 21:02:01*
%MOMM*%
%LPD*%
G01*
G04 APERTURE LIST*
%ADD10C,0.127000*%
%ADD11C,0.150000*%
%ADD12C,0.200000*%
%ADD13C,0.300000*%
G04 APERTURE END LIST*
D10*
D11*
X-2500Y0D02*
X-7500Y7340000D01*
X6392500Y0D02*
X-2500Y0D01*
X6385000Y7332500D02*
X6392500Y0D01*
X-7500Y7340000D02*
X6385000Y7337500D01*
D12*
X3921900Y6891100D02*
X3998100Y6814900D01*
X3998100Y6891100D02*
X3921900Y6814900D01*
X3921900Y6637100D02*
X3998100Y6560900D01*
X3998100Y6637100D02*
X3921900Y6560900D01*
X3921900Y6383100D02*
X3998100Y6306900D01*
X3998100Y6383100D02*
X3921900Y6306900D01*
X3921900Y6129100D02*
X3998100Y6052900D01*
X3998100Y6129100D02*
X3921900Y6052900D01*
X3909087Y5714213D02*
G75*
G03X3909087Y5714213I-40000J0D01*
G01*
X4187922Y4972078D02*
G75*
G03X4187922Y4972078I-40000J0D01*
G01*
X4340000Y2345000D02*
G75*
G03X4340000Y2345000I-40000J0D01*
G01*
X4342585Y4792015D02*
G75*
G03X4342585Y4792015I-40000J0D01*
G01*
X4375000Y3862500D02*
G75*
G03X4375000Y3862500I-40000J0D01*
G01*
X4375000Y3625000D02*
G75*
G03X4375000Y3625000I-40000J0D01*
G01*
X907500Y3521000D02*
X907500Y3421000D01*
X857500Y3471000D02*
X957500Y3471000D01*
X907500Y3267000D02*
X907500Y3167000D01*
X857500Y3217000D02*
X957500Y3217000D01*
X907500Y3013000D02*
X907500Y2913000D01*
X857500Y2963000D02*
X957500Y2963000D01*
X907500Y2759000D02*
X907500Y2659000D01*
X857500Y2709000D02*
X957500Y2709000D01*
X907500Y2505000D02*
X907500Y2405000D01*
X857500Y2455000D02*
X957500Y2455000D01*
X907500Y2251000D02*
X907500Y2151000D01*
X857500Y2201000D02*
X957500Y2201000D01*
X907500Y1997000D02*
X907500Y1897000D01*
X857500Y1947000D02*
X957500Y1947000D01*
X5152500Y6295000D02*
X5152500Y6195000D01*
X5102500Y6245000D02*
X5202500Y6245000D01*
X5192500Y6145000D02*
X5192500Y6345000D01*
X5112500Y6145000D02*
X5112500Y6345000D01*
X5192500Y6345000D02*
G75*
G03X5112500Y6345000I-40000J0D01*
G01*
X5112500Y6145000D02*
G75*
G03X5192500Y6145000I40000J0D01*
G01*
X5452500Y6765000D02*
X5452500Y6665000D01*
X5402500Y6715000D02*
X5502500Y6715000D01*
X5552500Y6755000D02*
X5352500Y6755000D01*
X5552500Y6675000D02*
X5352500Y6675000D01*
X5352500Y6755000D02*
G75*
G03X5352500Y6675000I0J-40000D01*
G01*
X5552500Y6675000D02*
G75*
G03X5552500Y6755000I0J40000D01*
G01*
X5752500Y6295000D02*
X5752500Y6195000D01*
X5702500Y6245000D02*
X5802500Y6245000D01*
X5792500Y6145000D02*
X5792500Y6345000D01*
X5712500Y6145000D02*
X5712500Y6345000D01*
X5792500Y6345000D02*
G75*
G03X5712500Y6345000I-40000J0D01*
G01*
X5712500Y6145000D02*
G75*
G03X5792500Y6145000I40000J0D01*
G01*
X1934421Y5272579D02*
X1934421Y5344421D01*
X1862579Y5344421D01*
X1862579Y5272579D01*
X1934421Y5272579D01*
X1934421Y5018579D02*
X1934421Y5090421D01*
X1862579Y5090421D01*
X1862579Y5018579D01*
X1934421Y5018579D01*
X1934421Y4764579D02*
X1934421Y4836421D01*
X1862579Y4836421D01*
X1862579Y4764579D01*
X1934421Y4764579D01*
X1934421Y4510579D02*
X1934421Y4582421D01*
X1862579Y4582421D01*
X1862579Y4510579D01*
X1934421Y4510579D01*
X1934421Y4256579D02*
X1934421Y4328421D01*
X1862579Y4328421D01*
X1862579Y4256579D01*
X1934421Y4256579D01*
X1934421Y4002579D02*
X1934421Y4074421D01*
X1862579Y4074421D01*
X1862579Y4002579D01*
X1934421Y4002579D01*
X1934421Y3748579D02*
X1934421Y3820421D01*
X1862579Y3820421D01*
X1862579Y3748579D01*
X1934421Y3748579D01*
X1934421Y3494579D02*
X1934421Y3566421D01*
X1862579Y3566421D01*
X1862579Y3494579D01*
X1934421Y3494579D01*
X1934421Y3240579D02*
X1934421Y3312421D01*
X1862579Y3312421D01*
X1862579Y3240579D01*
X1934421Y3240579D01*
X1934421Y2986579D02*
X1934421Y3058421D01*
X1862579Y3058421D01*
X1862579Y2986579D01*
X1934421Y2986579D01*
X1934421Y2732579D02*
X1934421Y2804421D01*
X1862579Y2804421D01*
X1862579Y2732579D01*
X1934421Y2732579D01*
X1934421Y2478579D02*
X1934421Y2550421D01*
X1862579Y2550421D01*
X1862579Y2478579D01*
X1934421Y2478579D01*
X1934421Y2224579D02*
X1934421Y2296421D01*
X1862579Y2296421D01*
X1862579Y2224579D01*
X1934421Y2224579D01*
X1934421Y1970579D02*
X1934421Y2042421D01*
X1862579Y2042421D01*
X1862579Y1970579D01*
X1934421Y1970579D01*
X1934421Y1716579D02*
X1934421Y1788421D01*
X1862579Y1788421D01*
X1862579Y1716579D01*
X1934421Y1716579D01*
X1934421Y1462579D02*
X1934421Y1534421D01*
X1862579Y1534421D01*
X1862579Y1462579D01*
X1934421Y1462579D01*
X1934421Y1208579D02*
X1934421Y1280421D01*
X1862579Y1280421D01*
X1862579Y1208579D01*
X1934421Y1208579D01*
X1934421Y954579D02*
X1934421Y1026421D01*
X1862579Y1026421D01*
X1862579Y954579D01*
X1934421Y954579D01*
X1934421Y700579D02*
X1934421Y772421D01*
X1862579Y772421D01*
X1862579Y700579D01*
X1934421Y700579D01*
X1934421Y446579D02*
X1934421Y518421D01*
X1862579Y518421D01*
X1862579Y446579D01*
X1934421Y446579D01*
X2570421Y4891579D02*
X2570421Y4963421D01*
X2498579Y4963421D01*
X2498579Y4891579D01*
X2570421Y4891579D01*
X2824421Y4891579D02*
X2824421Y4963421D01*
X2752579Y4963421D01*
X2752579Y4891579D01*
X2824421Y4891579D01*
X3458421Y5277659D02*
X3458421Y5349501D01*
X3386579Y5349501D01*
X3386579Y5277659D01*
X3458421Y5277659D01*
X3458421Y5018579D02*
X3458421Y5090421D01*
X3386579Y5090421D01*
X3386579Y5018579D01*
X3458421Y5018579D01*
X3458421Y4764579D02*
X3458421Y4836421D01*
X3386579Y4836421D01*
X3386579Y4764579D01*
X3458421Y4764579D01*
X3458421Y4510579D02*
X3458421Y4582421D01*
X3386579Y4582421D01*
X3386579Y4510579D01*
X3458421Y4510579D01*
X3458421Y4256579D02*
X3458421Y4328421D01*
X3386579Y4328421D01*
X3386579Y4256579D01*
X3458421Y4256579D01*
X3458421Y4002579D02*
X3458421Y4074421D01*
X3386579Y4074421D01*
X3386579Y4002579D01*
X3458421Y4002579D01*
X3458421Y3748579D02*
X3458421Y3820421D01*
X3386579Y3820421D01*
X3386579Y3748579D01*
X3458421Y3748579D01*
X3458421Y3494579D02*
X3458421Y3566421D01*
X3386579Y3566421D01*
X3386579Y3494579D01*
X3458421Y3494579D01*
X3458421Y3240579D02*
X3458421Y3312421D01*
X3386579Y3312421D01*
X3386579Y3240579D01*
X3458421Y3240579D01*
X3458421Y2986579D02*
X3458421Y3058421D01*
X3386579Y3058421D01*
X3386579Y2986579D01*
X3458421Y2986579D01*
X3458421Y2732579D02*
X3458421Y2804421D01*
X3386579Y2804421D01*
X3386579Y2732579D01*
X3458421Y2732579D01*
X3458421Y2478579D02*
X3458421Y2550421D01*
X3386579Y2550421D01*
X3386579Y2478579D01*
X3458421Y2478579D01*
X3458421Y2224579D02*
X3458421Y2296421D01*
X3386579Y2296421D01*
X3386579Y2224579D01*
X3458421Y2224579D01*
X3458421Y1970579D02*
X3458421Y2042421D01*
X3386579Y2042421D01*
X3386579Y1970579D01*
X3458421Y1970579D01*
X3458421Y1716579D02*
X3458421Y1788421D01*
X3386579Y1788421D01*
X3386579Y1716579D01*
X3458421Y1716579D01*
X3458421Y1462579D02*
X3458421Y1534421D01*
X3386579Y1534421D01*
X3386579Y1462579D01*
X3458421Y1462579D01*
X3458421Y1208579D02*
X3458421Y1280421D01*
X3386579Y1280421D01*
X3386579Y1208579D01*
X3458421Y1208579D01*
X3458421Y954579D02*
X3458421Y1026421D01*
X3386579Y1026421D01*
X3386579Y954579D01*
X3458421Y954579D01*
X3458421Y700579D02*
X3458421Y772421D01*
X3386579Y772421D01*
X3386579Y700579D01*
X3458421Y700579D01*
X3458421Y446579D02*
X3458421Y518421D01*
X3386579Y518421D01*
X3386579Y446579D01*
X3458421Y446579D01*
X6002500Y4060636D02*
X6057364Y4115500D01*
X6002500Y4170364D01*
X5947636Y4115500D01*
X6002500Y4060636D01*
X6002500Y3806636D02*
X6057364Y3861500D01*
X6002500Y3916364D01*
X5947636Y3861500D01*
X6002500Y3806636D01*
X6002500Y3552636D02*
X6057364Y3607500D01*
X6002500Y3662364D01*
X5947636Y3607500D01*
X6002500Y3552636D01*
X6002500Y3298636D02*
X6057364Y3353500D01*
X6002500Y3408364D01*
X5947636Y3353500D01*
X6002500Y3298636D01*
X6005000Y2326636D02*
X6059864Y2381500D01*
X6005000Y2436364D01*
X5950136Y2381500D01*
X6005000Y2326636D01*
X6005000Y2072636D02*
X6059864Y2127500D01*
X6005000Y2182364D01*
X5950136Y2127500D01*
X6005000Y2072636D01*
X6005000Y1818636D02*
X6059864Y1873500D01*
X6005000Y1928364D01*
X5950136Y1873500D01*
X6005000Y1818636D01*
X6005000Y1564636D02*
X6059864Y1619500D01*
X6005000Y1674364D01*
X5950136Y1619500D01*
X6005000Y1564636D01*
D13*
X256428Y-473214D02*
X256428Y-173214D01*
X327857Y-173214D01*
X370714Y-187500D01*
X399286Y-216071D01*
X413571Y-244643D01*
X427857Y-301786D01*
X427857Y-344643D01*
X413571Y-401786D01*
X399286Y-430357D01*
X370714Y-458929D01*
X327857Y-473214D01*
X256428Y-473214D01*
X556429Y-473214D02*
X556429Y-273214D01*
X556429Y-330357D02*
X570714Y-301786D01*
X585000Y-287500D01*
X613571Y-273214D01*
X642143Y-273214D01*
X742143Y-473214D02*
X742143Y-273214D01*
X742143Y-173214D02*
X727857Y-187500D01*
X742143Y-201786D01*
X756428Y-187500D01*
X742143Y-173214D01*
X742143Y-201786D01*
X927857Y-473214D02*
X899286Y-458929D01*
X885000Y-430357D01*
X885000Y-173214D01*
X1085000Y-473214D02*
X1056429Y-458929D01*
X1042143Y-430357D01*
X1042143Y-173214D01*
X1427857Y-473214D02*
X1427857Y-173214D01*
X1527857Y-387500D01*
X1627857Y-173214D01*
X1627857Y-473214D01*
X1899286Y-473214D02*
X1899286Y-316072D01*
X1885000Y-287500D01*
X1856428Y-273214D01*
X1799286Y-273214D01*
X1770714Y-287500D01*
X1899286Y-458929D02*
X1870714Y-473214D01*
X1799286Y-473214D01*
X1770714Y-458929D01*
X1756428Y-430357D01*
X1756428Y-401786D01*
X1770714Y-373214D01*
X1799286Y-358929D01*
X1870714Y-358929D01*
X1899286Y-344643D01*
X2042143Y-273214D02*
X2042143Y-573214D01*
X2042143Y-287500D02*
X2070714Y-273214D01*
X2127857Y-273214D01*
X2156429Y-287500D01*
X2170714Y-301786D01*
X2185000Y-330357D01*
X2185000Y-416071D01*
X2170714Y-444643D01*
X2156429Y-458929D01*
X2127857Y-473214D01*
X2070714Y-473214D01*
X2042143Y-458929D01*
X2313571Y-444643D02*
X2327857Y-458929D01*
X2313571Y-473214D01*
X2299286Y-458929D01*
X2313571Y-444643D01*
X2313571Y-473214D01*
X2313571Y-287500D02*
X2327857Y-301786D01*
X2313571Y-316072D01*
X2299286Y-301786D01*
X2313571Y-287500D01*
X2313571Y-316072D01*
X-91200Y-929400D02*
X-15000Y-1005600D01*
X-15000Y-929400D02*
X-91200Y-1005600D01*
X313571Y-803214D02*
X342143Y-803214D01*
X370714Y-817500D01*
X385000Y-831786D01*
X399286Y-860357D01*
X413571Y-917500D01*
X413571Y-988929D01*
X399286Y-1046071D01*
X385000Y-1074643D01*
X370714Y-1088929D01*
X342143Y-1103214D01*
X313571Y-1103214D01*
X285000Y-1088929D01*
X270714Y-1074643D01*
X256428Y-1046071D01*
X242143Y-988929D01*
X242143Y-917500D01*
X256428Y-860357D01*
X270714Y-831786D01*
X285000Y-817500D01*
X313571Y-803214D01*
X542143Y-1074643D02*
X556429Y-1088929D01*
X542143Y-1103214D01*
X527857Y-1088929D01*
X542143Y-1074643D01*
X542143Y-1103214D01*
X656428Y-803214D02*
X856428Y-803214D01*
X727857Y-1103214D01*
X1099286Y-803214D02*
X1042143Y-803214D01*
X1013571Y-817500D01*
X999286Y-831786D01*
X970714Y-874643D01*
X956428Y-931786D01*
X956428Y-1046071D01*
X970714Y-1074643D01*
X985000Y-1088929D01*
X1013571Y-1103214D01*
X1070714Y-1103214D01*
X1099286Y-1088929D01*
X1113571Y-1074643D01*
X1127857Y-1046071D01*
X1127857Y-974643D01*
X1113571Y-946071D01*
X1099286Y-931786D01*
X1070714Y-917500D01*
X1013571Y-917500D01*
X985000Y-931786D01*
X970714Y-946071D01*
X956428Y-974643D01*
X1256429Y-1103214D02*
X1256429Y-903214D01*
X1256429Y-931786D02*
X1270714Y-917500D01*
X1299286Y-903214D01*
X1342143Y-903214D01*
X1370714Y-917500D01*
X1385000Y-946071D01*
X1385000Y-1103214D01*
X1385000Y-946071D02*
X1399286Y-917500D01*
X1427857Y-903214D01*
X1470714Y-903214D01*
X1499286Y-917500D01*
X1513571Y-946071D01*
X1513571Y-1103214D01*
X1656428Y-1103214D02*
X1656428Y-903214D01*
X1656428Y-931786D02*
X1670714Y-917500D01*
X1699286Y-903214D01*
X1742143Y-903214D01*
X1770714Y-917500D01*
X1785000Y-946071D01*
X1785000Y-1103214D01*
X1785000Y-946071D02*
X1799286Y-917500D01*
X1827857Y-903214D01*
X1870714Y-903214D01*
X1899286Y-917500D01*
X1913571Y-946071D01*
X1913571Y-1103214D01*
X2499286Y-788929D02*
X2242143Y-1174643D01*
X2885000Y-803214D02*
X2913571Y-803214D01*
X2942143Y-817500D01*
X2956428Y-831786D01*
X2970714Y-860357D01*
X2985000Y-917500D01*
X2985000Y-988929D01*
X2970714Y-1046071D01*
X2956428Y-1074643D01*
X2942143Y-1088929D01*
X2913571Y-1103214D01*
X2885000Y-1103214D01*
X2856428Y-1088929D01*
X2842143Y-1074643D01*
X2827857Y-1046071D01*
X2813571Y-988929D01*
X2813571Y-917500D01*
X2827857Y-860357D01*
X2842143Y-831786D01*
X2856428Y-817500D01*
X2885000Y-803214D01*
X3113571Y-1074643D02*
X3127857Y-1088929D01*
X3113571Y-1103214D01*
X3099286Y-1088929D01*
X3113571Y-1074643D01*
X3113571Y-1103214D01*
X3313571Y-803214D02*
X3342143Y-803214D01*
X3370714Y-817500D01*
X3385000Y-831786D01*
X3399285Y-860357D01*
X3413571Y-917500D01*
X3413571Y-988929D01*
X3399285Y-1046071D01*
X3385000Y-1074643D01*
X3370714Y-1088929D01*
X3342143Y-1103214D01*
X3313571Y-1103214D01*
X3285000Y-1088929D01*
X3270714Y-1074643D01*
X3256428Y-1046071D01*
X3242143Y-988929D01*
X3242143Y-917500D01*
X3256428Y-860357D01*
X3270714Y-831786D01*
X3285000Y-817500D01*
X3313571Y-803214D01*
X3513571Y-803214D02*
X3699285Y-803214D01*
X3599285Y-917500D01*
X3642143Y-917500D01*
X3670714Y-931786D01*
X3685000Y-946071D01*
X3699285Y-974643D01*
X3699285Y-1046071D01*
X3685000Y-1074643D01*
X3670714Y-1088929D01*
X3642143Y-1103214D01*
X3556428Y-1103214D01*
X3527857Y-1088929D01*
X3513571Y-1074643D01*
X3885000Y-803214D02*
X3913571Y-803214D01*
X3942143Y-817500D01*
X3956428Y-831786D01*
X3970714Y-860357D01*
X3985000Y-917500D01*
X3985000Y-988929D01*
X3970714Y-1046071D01*
X3956428Y-1074643D01*
X3942143Y-1088929D01*
X3913571Y-1103214D01*
X3885000Y-1103214D01*
X3856428Y-1088929D01*
X3842143Y-1074643D01*
X3827857Y-1046071D01*
X3813571Y-988929D01*
X3813571Y-917500D01*
X3827857Y-860357D01*
X3842143Y-831786D01*
X3856428Y-817500D01*
X3885000Y-803214D01*
X4099286Y-803214D02*
X4099286Y-860357D01*
X4213571Y-803214D02*
X4213571Y-860357D01*
X4656428Y-1217500D02*
X4642143Y-1203214D01*
X4613571Y-1160357D01*
X4599286Y-1131786D01*
X4585000Y-1088929D01*
X4570714Y-1017500D01*
X4570714Y-960357D01*
X4585000Y-888929D01*
X4599286Y-846071D01*
X4613571Y-817500D01*
X4642143Y-774643D01*
X4656428Y-760357D01*
X4899286Y-903214D02*
X4899286Y-1103214D01*
X4827857Y-788929D02*
X4756428Y-1003214D01*
X4942143Y-1003214D01*
X5285000Y-1103214D02*
X5285000Y-803214D01*
X5413571Y-1103214D02*
X5413571Y-946071D01*
X5399286Y-917500D01*
X5370714Y-903214D01*
X5327857Y-903214D01*
X5299286Y-917500D01*
X5285000Y-931786D01*
X5599285Y-1103214D02*
X5570714Y-1088929D01*
X5556428Y-1074643D01*
X5542143Y-1046071D01*
X5542143Y-960357D01*
X5556428Y-931786D01*
X5570714Y-917500D01*
X5599285Y-903214D01*
X5642143Y-903214D01*
X5670714Y-917500D01*
X5685000Y-931786D01*
X5699285Y-960357D01*
X5699285Y-1046071D01*
X5685000Y-1074643D01*
X5670714Y-1088929D01*
X5642143Y-1103214D01*
X5599285Y-1103214D01*
X5870714Y-1103214D02*
X5842143Y-1088929D01*
X5827857Y-1060357D01*
X5827857Y-803214D01*
X6099286Y-1088929D02*
X6070714Y-1103214D01*
X6013571Y-1103214D01*
X5985000Y-1088929D01*
X5970714Y-1060357D01*
X5970714Y-946071D01*
X5985000Y-917500D01*
X6013571Y-903214D01*
X6070714Y-903214D01*
X6099286Y-917500D01*
X6113571Y-946071D01*
X6113571Y-974643D01*
X5970714Y-1003214D01*
X6227857Y-1088929D02*
X6256428Y-1103214D01*
X6313571Y-1103214D01*
X6342143Y-1088929D01*
X6356428Y-1060357D01*
X6356428Y-1046071D01*
X6342143Y-1017500D01*
X6313571Y-1003214D01*
X6270714Y-1003214D01*
X6242143Y-988929D01*
X6227857Y-960357D01*
X6227857Y-946071D01*
X6242143Y-917500D01*
X6270714Y-903214D01*
X6313571Y-903214D01*
X6342143Y-917500D01*
X6456428Y-1217500D02*
X6470714Y-1203214D01*
X6499286Y-1160357D01*
X6513571Y-1131786D01*
X6527857Y-1088929D01*
X6542143Y-1017500D01*
X6542143Y-960357D01*
X6527857Y-888929D01*
X6513571Y-846071D01*
X6499286Y-817500D01*
X6470714Y-774643D01*
X6456428Y-760357D01*
X-15000Y-1363500D02*
G75*
G03X-15000Y-1363500I-40000J0D01*
G01*
X313571Y-1199214D02*
X342143Y-1199214D01*
X370714Y-1213500D01*
X385000Y-1227786D01*
X399286Y-1256357D01*
X413571Y-1313500D01*
X413571Y-1384929D01*
X399286Y-1442071D01*
X385000Y-1470643D01*
X370714Y-1484929D01*
X342143Y-1499214D01*
X313571Y-1499214D01*
X285000Y-1484929D01*
X270714Y-1470643D01*
X256428Y-1442071D01*
X242143Y-1384929D01*
X242143Y-1313500D01*
X256428Y-1256357D01*
X270714Y-1227786D01*
X285000Y-1213500D01*
X313571Y-1199214D01*
X542143Y-1470643D02*
X556429Y-1484929D01*
X542143Y-1499214D01*
X527857Y-1484929D01*
X542143Y-1470643D01*
X542143Y-1499214D01*
X727857Y-1327786D02*
X699286Y-1313500D01*
X685000Y-1299214D01*
X670714Y-1270643D01*
X670714Y-1256357D01*
X685000Y-1227786D01*
X699286Y-1213500D01*
X727857Y-1199214D01*
X785000Y-1199214D01*
X813571Y-1213500D01*
X827857Y-1227786D01*
X842143Y-1256357D01*
X842143Y-1270643D01*
X827857Y-1299214D01*
X813571Y-1313500D01*
X785000Y-1327786D01*
X727857Y-1327786D01*
X699286Y-1342072D01*
X685000Y-1356357D01*
X670714Y-1384929D01*
X670714Y-1442071D01*
X685000Y-1470643D01*
X699286Y-1484929D01*
X727857Y-1499214D01*
X785000Y-1499214D01*
X813571Y-1484929D01*
X827857Y-1470643D01*
X842143Y-1442071D01*
X842143Y-1384929D01*
X827857Y-1356357D01*
X813571Y-1342072D01*
X785000Y-1327786D01*
X1027857Y-1199214D02*
X1056429Y-1199214D01*
X1085000Y-1213500D01*
X1099286Y-1227786D01*
X1113571Y-1256357D01*
X1127857Y-1313500D01*
X1127857Y-1384929D01*
X1113571Y-1442071D01*
X1099286Y-1470643D01*
X1085000Y-1484929D01*
X1056429Y-1499214D01*
X1027857Y-1499214D01*
X999286Y-1484929D01*
X985000Y-1470643D01*
X970714Y-1442071D01*
X956428Y-1384929D01*
X956428Y-1313500D01*
X970714Y-1256357D01*
X985000Y-1227786D01*
X999286Y-1213500D01*
X1027857Y-1199214D01*
X1256429Y-1499214D02*
X1256429Y-1299214D01*
X1256429Y-1327786D02*
X1270714Y-1313500D01*
X1299286Y-1299214D01*
X1342143Y-1299214D01*
X1370714Y-1313500D01*
X1385000Y-1342072D01*
X1385000Y-1499214D01*
X1385000Y-1342072D02*
X1399286Y-1313500D01*
X1427857Y-1299214D01*
X1470714Y-1299214D01*
X1499286Y-1313500D01*
X1513571Y-1342072D01*
X1513571Y-1499214D01*
X1656428Y-1499214D02*
X1656428Y-1299214D01*
X1656428Y-1327786D02*
X1670714Y-1313500D01*
X1699286Y-1299214D01*
X1742143Y-1299214D01*
X1770714Y-1313500D01*
X1785000Y-1342072D01*
X1785000Y-1499214D01*
X1785000Y-1342072D02*
X1799286Y-1313500D01*
X1827857Y-1299214D01*
X1870714Y-1299214D01*
X1899286Y-1313500D01*
X1913571Y-1342072D01*
X1913571Y-1499214D01*
X2499286Y-1184929D02*
X2242143Y-1570643D01*
X2885000Y-1199214D02*
X2913571Y-1199214D01*
X2942143Y-1213500D01*
X2956428Y-1227786D01*
X2970714Y-1256357D01*
X2985000Y-1313500D01*
X2985000Y-1384929D01*
X2970714Y-1442071D01*
X2956428Y-1470643D01*
X2942143Y-1484929D01*
X2913571Y-1499214D01*
X2885000Y-1499214D01*
X2856428Y-1484929D01*
X2842143Y-1470643D01*
X2827857Y-1442071D01*
X2813571Y-1384929D01*
X2813571Y-1313500D01*
X2827857Y-1256357D01*
X2842143Y-1227786D01*
X2856428Y-1213500D01*
X2885000Y-1199214D01*
X3113571Y-1470643D02*
X3127857Y-1484929D01*
X3113571Y-1499214D01*
X3099286Y-1484929D01*
X3113571Y-1470643D01*
X3113571Y-1499214D01*
X3313571Y-1199214D02*
X3342143Y-1199214D01*
X3370714Y-1213500D01*
X3385000Y-1227786D01*
X3399285Y-1256357D01*
X3413571Y-1313500D01*
X3413571Y-1384929D01*
X3399285Y-1442071D01*
X3385000Y-1470643D01*
X3370714Y-1484929D01*
X3342143Y-1499214D01*
X3313571Y-1499214D01*
X3285000Y-1484929D01*
X3270714Y-1470643D01*
X3256428Y-1442071D01*
X3242143Y-1384929D01*
X3242143Y-1313500D01*
X3256428Y-1256357D01*
X3270714Y-1227786D01*
X3285000Y-1213500D01*
X3313571Y-1199214D01*
X3513571Y-1199214D02*
X3699285Y-1199214D01*
X3599285Y-1313500D01*
X3642143Y-1313500D01*
X3670714Y-1327786D01*
X3685000Y-1342072D01*
X3699285Y-1370643D01*
X3699285Y-1442071D01*
X3685000Y-1470643D01*
X3670714Y-1484929D01*
X3642143Y-1499214D01*
X3556428Y-1499214D01*
X3527857Y-1484929D01*
X3513571Y-1470643D01*
X3985000Y-1499214D02*
X3813571Y-1499214D01*
X3899285Y-1499214D02*
X3899285Y-1199214D01*
X3870714Y-1242072D01*
X3842143Y-1270643D01*
X3813571Y-1284929D01*
X4099286Y-1199214D02*
X4099286Y-1256357D01*
X4213571Y-1199214D02*
X4213571Y-1256357D01*
X4656428Y-1613500D02*
X4642143Y-1599214D01*
X4613571Y-1556357D01*
X4599286Y-1527786D01*
X4585000Y-1484929D01*
X4570714Y-1413500D01*
X4570714Y-1356357D01*
X4585000Y-1284929D01*
X4599286Y-1242072D01*
X4613571Y-1213500D01*
X4642143Y-1170643D01*
X4656428Y-1156357D01*
X4899286Y-1199214D02*
X4842143Y-1199214D01*
X4813571Y-1213500D01*
X4799286Y-1227786D01*
X4770714Y-1270643D01*
X4756428Y-1327786D01*
X4756428Y-1442071D01*
X4770714Y-1470643D01*
X4785000Y-1484929D01*
X4813571Y-1499214D01*
X4870714Y-1499214D01*
X4899286Y-1484929D01*
X4913571Y-1470643D01*
X4927857Y-1442071D01*
X4927857Y-1370643D01*
X4913571Y-1342072D01*
X4899286Y-1327786D01*
X4870714Y-1313500D01*
X4813571Y-1313500D01*
X4785000Y-1327786D01*
X4770714Y-1342072D01*
X4756428Y-1370643D01*
X5285000Y-1499214D02*
X5285000Y-1199214D01*
X5413571Y-1499214D02*
X5413571Y-1342072D01*
X5399286Y-1313500D01*
X5370714Y-1299214D01*
X5327857Y-1299214D01*
X5299286Y-1313500D01*
X5285000Y-1327786D01*
X5599285Y-1499214D02*
X5570714Y-1484929D01*
X5556428Y-1470643D01*
X5542143Y-1442071D01*
X5542143Y-1356357D01*
X5556428Y-1327786D01*
X5570714Y-1313500D01*
X5599285Y-1299214D01*
X5642143Y-1299214D01*
X5670714Y-1313500D01*
X5685000Y-1327786D01*
X5699285Y-1356357D01*
X5699285Y-1442071D01*
X5685000Y-1470643D01*
X5670714Y-1484929D01*
X5642143Y-1499214D01*
X5599285Y-1499214D01*
X5870714Y-1499214D02*
X5842143Y-1484929D01*
X5827857Y-1456357D01*
X5827857Y-1199214D01*
X6099286Y-1484929D02*
X6070714Y-1499214D01*
X6013571Y-1499214D01*
X5985000Y-1484929D01*
X5970714Y-1456357D01*
X5970714Y-1342072D01*
X5985000Y-1313500D01*
X6013571Y-1299214D01*
X6070714Y-1299214D01*
X6099286Y-1313500D01*
X6113571Y-1342072D01*
X6113571Y-1370643D01*
X5970714Y-1399214D01*
X6227857Y-1484929D02*
X6256428Y-1499214D01*
X6313571Y-1499214D01*
X6342143Y-1484929D01*
X6356428Y-1456357D01*
X6356428Y-1442071D01*
X6342143Y-1413500D01*
X6313571Y-1399214D01*
X6270714Y-1399214D01*
X6242143Y-1384929D01*
X6227857Y-1356357D01*
X6227857Y-1342072D01*
X6242143Y-1313500D01*
X6270714Y-1299214D01*
X6313571Y-1299214D01*
X6342143Y-1313500D01*
X6456428Y-1613500D02*
X6470714Y-1599214D01*
X6499286Y-1556357D01*
X6513571Y-1527786D01*
X6527857Y-1484929D01*
X6542143Y-1413500D01*
X6542143Y-1356357D01*
X6527857Y-1284929D01*
X6513571Y-1242072D01*
X6499286Y-1213500D01*
X6470714Y-1170643D01*
X6456428Y-1156357D01*
X-65000Y-1709500D02*
X-65000Y-1809500D01*
X-115000Y-1759500D02*
X-15000Y-1759500D01*
X413571Y-1895214D02*
X242143Y-1895214D01*
X327857Y-1895214D02*
X327857Y-1595214D01*
X299286Y-1638071D01*
X270714Y-1666643D01*
X242143Y-1680929D01*
X542143Y-1866643D02*
X556429Y-1880929D01*
X542143Y-1895214D01*
X527857Y-1880929D01*
X542143Y-1866643D01*
X542143Y-1895214D01*
X742143Y-1595214D02*
X770714Y-1595214D01*
X799286Y-1609500D01*
X813571Y-1623786D01*
X827857Y-1652357D01*
X842143Y-1709500D01*
X842143Y-1780929D01*
X827857Y-1838071D01*
X813571Y-1866643D01*
X799286Y-1880929D01*
X770714Y-1895214D01*
X742143Y-1895214D01*
X713571Y-1880929D01*
X699286Y-1866643D01*
X685000Y-1838071D01*
X670714Y-1780929D01*
X670714Y-1709500D01*
X685000Y-1652357D01*
X699286Y-1623786D01*
X713571Y-1609500D01*
X742143Y-1595214D01*
X1027857Y-1595214D02*
X1056429Y-1595214D01*
X1085000Y-1609500D01*
X1099286Y-1623786D01*
X1113571Y-1652357D01*
X1127857Y-1709500D01*
X1127857Y-1780929D01*
X1113571Y-1838071D01*
X1099286Y-1866643D01*
X1085000Y-1880929D01*
X1056429Y-1895214D01*
X1027857Y-1895214D01*
X999286Y-1880929D01*
X985000Y-1866643D01*
X970714Y-1838071D01*
X956428Y-1780929D01*
X956428Y-1709500D01*
X970714Y-1652357D01*
X985000Y-1623786D01*
X999286Y-1609500D01*
X1027857Y-1595214D01*
X1256429Y-1895214D02*
X1256429Y-1695214D01*
X1256429Y-1723786D02*
X1270714Y-1709500D01*
X1299286Y-1695214D01*
X1342143Y-1695214D01*
X1370714Y-1709500D01*
X1385000Y-1738071D01*
X1385000Y-1895214D01*
X1385000Y-1738071D02*
X1399286Y-1709500D01*
X1427857Y-1695214D01*
X1470714Y-1695214D01*
X1499286Y-1709500D01*
X1513571Y-1738071D01*
X1513571Y-1895214D01*
X1656428Y-1895214D02*
X1656428Y-1695214D01*
X1656428Y-1723786D02*
X1670714Y-1709500D01*
X1699286Y-1695214D01*
X1742143Y-1695214D01*
X1770714Y-1709500D01*
X1785000Y-1738071D01*
X1785000Y-1895214D01*
X1785000Y-1738071D02*
X1799286Y-1709500D01*
X1827857Y-1695214D01*
X1870714Y-1695214D01*
X1899286Y-1709500D01*
X1913571Y-1738071D01*
X1913571Y-1895214D01*
X2499286Y-1580929D02*
X2242143Y-1966643D01*
X2885000Y-1595214D02*
X2913571Y-1595214D01*
X2942143Y-1609500D01*
X2956428Y-1623786D01*
X2970714Y-1652357D01*
X2985000Y-1709500D01*
X2985000Y-1780929D01*
X2970714Y-1838071D01*
X2956428Y-1866643D01*
X2942143Y-1880929D01*
X2913571Y-1895214D01*
X2885000Y-1895214D01*
X2856428Y-1880929D01*
X2842143Y-1866643D01*
X2827857Y-1838071D01*
X2813571Y-1780929D01*
X2813571Y-1709500D01*
X2827857Y-1652357D01*
X2842143Y-1623786D01*
X2856428Y-1609500D01*
X2885000Y-1595214D01*
X3113571Y-1866643D02*
X3127857Y-1880929D01*
X3113571Y-1895214D01*
X3099286Y-1880929D01*
X3113571Y-1866643D01*
X3113571Y-1895214D01*
X3313571Y-1595214D02*
X3342143Y-1595214D01*
X3370714Y-1609500D01*
X3385000Y-1623786D01*
X3399285Y-1652357D01*
X3413571Y-1709500D01*
X3413571Y-1780929D01*
X3399285Y-1838071D01*
X3385000Y-1866643D01*
X3370714Y-1880929D01*
X3342143Y-1895214D01*
X3313571Y-1895214D01*
X3285000Y-1880929D01*
X3270714Y-1866643D01*
X3256428Y-1838071D01*
X3242143Y-1780929D01*
X3242143Y-1709500D01*
X3256428Y-1652357D01*
X3270714Y-1623786D01*
X3285000Y-1609500D01*
X3313571Y-1595214D01*
X3513571Y-1595214D02*
X3699285Y-1595214D01*
X3599285Y-1709500D01*
X3642143Y-1709500D01*
X3670714Y-1723786D01*
X3685000Y-1738071D01*
X3699285Y-1766643D01*
X3699285Y-1838071D01*
X3685000Y-1866643D01*
X3670714Y-1880929D01*
X3642143Y-1895214D01*
X3556428Y-1895214D01*
X3527857Y-1880929D01*
X3513571Y-1866643D01*
X3842143Y-1895214D02*
X3899285Y-1895214D01*
X3927857Y-1880929D01*
X3942143Y-1866643D01*
X3970714Y-1823786D01*
X3985000Y-1766643D01*
X3985000Y-1652357D01*
X3970714Y-1623786D01*
X3956428Y-1609500D01*
X3927857Y-1595214D01*
X3870714Y-1595214D01*
X3842143Y-1609500D01*
X3827857Y-1623786D01*
X3813571Y-1652357D01*
X3813571Y-1723786D01*
X3827857Y-1752357D01*
X3842143Y-1766643D01*
X3870714Y-1780929D01*
X3927857Y-1780929D01*
X3956428Y-1766643D01*
X3970714Y-1752357D01*
X3985000Y-1723786D01*
X4099286Y-1595214D02*
X4099286Y-1652357D01*
X4213571Y-1595214D02*
X4213571Y-1652357D01*
X4656428Y-2009500D02*
X4642143Y-1995214D01*
X4613571Y-1952357D01*
X4599286Y-1923786D01*
X4585000Y-1880929D01*
X4570714Y-1809500D01*
X4570714Y-1752357D01*
X4585000Y-1680929D01*
X4599286Y-1638071D01*
X4613571Y-1609500D01*
X4642143Y-1566643D01*
X4656428Y-1552357D01*
X4742143Y-1595214D02*
X4942143Y-1595214D01*
X4813571Y-1895214D01*
X5285000Y-1895214D02*
X5285000Y-1595214D01*
X5413571Y-1895214D02*
X5413571Y-1738071D01*
X5399286Y-1709500D01*
X5370714Y-1695214D01*
X5327857Y-1695214D01*
X5299286Y-1709500D01*
X5285000Y-1723786D01*
X5599285Y-1895214D02*
X5570714Y-1880929D01*
X5556428Y-1866643D01*
X5542143Y-1838071D01*
X5542143Y-1752357D01*
X5556428Y-1723786D01*
X5570714Y-1709500D01*
X5599285Y-1695214D01*
X5642143Y-1695214D01*
X5670714Y-1709500D01*
X5685000Y-1723786D01*
X5699285Y-1752357D01*
X5699285Y-1838071D01*
X5685000Y-1866643D01*
X5670714Y-1880929D01*
X5642143Y-1895214D01*
X5599285Y-1895214D01*
X5870714Y-1895214D02*
X5842143Y-1880929D01*
X5827857Y-1852357D01*
X5827857Y-1595214D01*
X6099286Y-1880929D02*
X6070714Y-1895214D01*
X6013571Y-1895214D01*
X5985000Y-1880929D01*
X5970714Y-1852357D01*
X5970714Y-1738071D01*
X5985000Y-1709500D01*
X6013571Y-1695214D01*
X6070714Y-1695214D01*
X6099286Y-1709500D01*
X6113571Y-1738071D01*
X6113571Y-1766643D01*
X5970714Y-1795214D01*
X6227857Y-1880929D02*
X6256428Y-1895214D01*
X6313571Y-1895214D01*
X6342143Y-1880929D01*
X6356428Y-1852357D01*
X6356428Y-1838071D01*
X6342143Y-1809500D01*
X6313571Y-1795214D01*
X6270714Y-1795214D01*
X6242143Y-1780929D01*
X6227857Y-1752357D01*
X6227857Y-1738071D01*
X6242143Y-1709500D01*
X6270714Y-1695214D01*
X6313571Y-1695214D01*
X6342143Y-1709500D01*
X6713571Y-1780929D02*
X6942143Y-1780929D01*
X6827857Y-1895214D02*
X6827857Y-1666643D01*
X7285000Y-1595214D02*
X7470714Y-1595214D01*
X7370714Y-1709500D01*
X7413571Y-1709500D01*
X7442143Y-1723786D01*
X7456428Y-1738071D01*
X7470714Y-1766643D01*
X7470714Y-1838071D01*
X7456428Y-1866643D01*
X7442143Y-1880929D01*
X7413571Y-1895214D01*
X7327857Y-1895214D01*
X7299286Y-1880929D01*
X7285000Y-1866643D01*
X7813571Y-1880929D02*
X7842143Y-1895214D01*
X7899285Y-1895214D01*
X7927857Y-1880929D01*
X7942143Y-1852357D01*
X7942143Y-1838071D01*
X7927857Y-1809500D01*
X7899285Y-1795214D01*
X7856428Y-1795214D01*
X7827857Y-1780929D01*
X7813571Y-1752357D01*
X7813571Y-1738071D01*
X7827857Y-1709500D01*
X7856428Y-1695214D01*
X7899285Y-1695214D01*
X7927857Y-1709500D01*
X8113571Y-1895214D02*
X8085000Y-1880929D01*
X8070714Y-1852357D01*
X8070714Y-1595214D01*
X8270714Y-1895214D02*
X8242143Y-1880929D01*
X8227857Y-1866643D01*
X8213571Y-1838071D01*
X8213571Y-1752357D01*
X8227857Y-1723786D01*
X8242143Y-1709500D01*
X8270714Y-1695214D01*
X8313571Y-1695214D01*
X8342143Y-1709500D01*
X8356428Y-1723786D01*
X8370714Y-1752357D01*
X8370714Y-1838071D01*
X8356428Y-1866643D01*
X8342143Y-1880929D01*
X8313571Y-1895214D01*
X8270714Y-1895214D01*
X8456428Y-1695214D02*
X8570714Y-1695214D01*
X8499286Y-1595214D02*
X8499286Y-1852357D01*
X8513571Y-1880929D01*
X8542143Y-1895214D01*
X8570714Y-1895214D01*
X8656429Y-1880929D02*
X8685000Y-1895214D01*
X8742143Y-1895214D01*
X8770714Y-1880929D01*
X8785000Y-1852357D01*
X8785000Y-1838071D01*
X8770714Y-1809500D01*
X8742143Y-1795214D01*
X8699286Y-1795214D01*
X8670714Y-1780929D01*
X8656429Y-1752357D01*
X8656429Y-1738071D01*
X8670714Y-1709500D01*
X8699286Y-1695214D01*
X8742143Y-1695214D01*
X8770714Y-1709500D01*
X8885000Y-2009500D02*
X8899286Y-1995214D01*
X8927857Y-1952357D01*
X8942143Y-1923786D01*
X8956428Y-1880929D01*
X8970714Y-1809500D01*
X8970714Y-1752357D01*
X8956428Y-1680929D01*
X8942143Y-1638071D01*
X8927857Y-1609500D01*
X8899286Y-1566643D01*
X8885000Y-1552357D01*
X-29879Y-2191422D02*
X-29879Y-2119579D01*
X-101721Y-2119579D01*
X-101721Y-2191422D01*
X-29879Y-2191422D01*
X413571Y-2291214D02*
X242143Y-2291214D01*
X327857Y-2291214D02*
X327857Y-1991214D01*
X299286Y-2034071D01*
X270714Y-2062643D01*
X242143Y-2076929D01*
X542143Y-2262643D02*
X556429Y-2276929D01*
X542143Y-2291214D01*
X527857Y-2276929D01*
X542143Y-2262643D01*
X542143Y-2291214D01*
X742143Y-1991214D02*
X770714Y-1991214D01*
X799286Y-2005500D01*
X813571Y-2019786D01*
X827857Y-2048357D01*
X842143Y-2105500D01*
X842143Y-2176929D01*
X827857Y-2234072D01*
X813571Y-2262643D01*
X799286Y-2276929D01*
X770714Y-2291214D01*
X742143Y-2291214D01*
X713571Y-2276929D01*
X699286Y-2262643D01*
X685000Y-2234072D01*
X670714Y-2176929D01*
X670714Y-2105500D01*
X685000Y-2048357D01*
X699286Y-2019786D01*
X713571Y-2005500D01*
X742143Y-1991214D01*
X956428Y-2019786D02*
X970714Y-2005500D01*
X999286Y-1991214D01*
X1070714Y-1991214D01*
X1099286Y-2005500D01*
X1113571Y-2019786D01*
X1127857Y-2048357D01*
X1127857Y-2076929D01*
X1113571Y-2119786D01*
X942143Y-2291214D01*
X1127857Y-2291214D01*
X1256429Y-2291214D02*
X1256429Y-2091214D01*
X1256429Y-2119786D02*
X1270714Y-2105500D01*
X1299286Y-2091214D01*
X1342143Y-2091214D01*
X1370714Y-2105500D01*
X1385000Y-2134072D01*
X1385000Y-2291214D01*
X1385000Y-2134072D02*
X1399286Y-2105500D01*
X1427857Y-2091214D01*
X1470714Y-2091214D01*
X1499286Y-2105500D01*
X1513571Y-2134072D01*
X1513571Y-2291214D01*
X1656428Y-2291214D02*
X1656428Y-2091214D01*
X1656428Y-2119786D02*
X1670714Y-2105500D01*
X1699286Y-2091214D01*
X1742143Y-2091214D01*
X1770714Y-2105500D01*
X1785000Y-2134072D01*
X1785000Y-2291214D01*
X1785000Y-2134072D02*
X1799286Y-2105500D01*
X1827857Y-2091214D01*
X1870714Y-2091214D01*
X1899286Y-2105500D01*
X1913571Y-2134072D01*
X1913571Y-2291214D01*
X2499286Y-1976929D02*
X2242143Y-2362643D01*
X2885000Y-1991214D02*
X2913571Y-1991214D01*
X2942143Y-2005500D01*
X2956428Y-2019786D01*
X2970714Y-2048357D01*
X2985000Y-2105500D01*
X2985000Y-2176929D01*
X2970714Y-2234072D01*
X2956428Y-2262643D01*
X2942143Y-2276929D01*
X2913571Y-2291214D01*
X2885000Y-2291214D01*
X2856428Y-2276929D01*
X2842143Y-2262643D01*
X2827857Y-2234072D01*
X2813571Y-2176929D01*
X2813571Y-2105500D01*
X2827857Y-2048357D01*
X2842143Y-2019786D01*
X2856428Y-2005500D01*
X2885000Y-1991214D01*
X3113571Y-2262643D02*
X3127857Y-2276929D01*
X3113571Y-2291214D01*
X3099286Y-2276929D01*
X3113571Y-2262643D01*
X3113571Y-2291214D01*
X3313571Y-1991214D02*
X3342143Y-1991214D01*
X3370714Y-2005500D01*
X3385000Y-2019786D01*
X3399285Y-2048357D01*
X3413571Y-2105500D01*
X3413571Y-2176929D01*
X3399285Y-2234072D01*
X3385000Y-2262643D01*
X3370714Y-2276929D01*
X3342143Y-2291214D01*
X3313571Y-2291214D01*
X3285000Y-2276929D01*
X3270714Y-2262643D01*
X3256428Y-2234072D01*
X3242143Y-2176929D01*
X3242143Y-2105500D01*
X3256428Y-2048357D01*
X3270714Y-2019786D01*
X3285000Y-2005500D01*
X3313571Y-1991214D01*
X3670714Y-2091214D02*
X3670714Y-2291214D01*
X3599285Y-1976929D02*
X3527857Y-2191214D01*
X3713571Y-2191214D01*
X3885000Y-1991214D02*
X3913571Y-1991214D01*
X3942143Y-2005500D01*
X3956428Y-2019786D01*
X3970714Y-2048357D01*
X3985000Y-2105500D01*
X3985000Y-2176929D01*
X3970714Y-2234072D01*
X3956428Y-2262643D01*
X3942143Y-2276929D01*
X3913571Y-2291214D01*
X3885000Y-2291214D01*
X3856428Y-2276929D01*
X3842143Y-2262643D01*
X3827857Y-2234072D01*
X3813571Y-2176929D01*
X3813571Y-2105500D01*
X3827857Y-2048357D01*
X3842143Y-2019786D01*
X3856428Y-2005500D01*
X3885000Y-1991214D01*
X4099286Y-1991214D02*
X4099286Y-2048357D01*
X4213571Y-1991214D02*
X4213571Y-2048357D01*
X4656428Y-2405500D02*
X4642143Y-2391214D01*
X4613571Y-2348357D01*
X4599286Y-2319786D01*
X4585000Y-2276929D01*
X4570714Y-2205500D01*
X4570714Y-2148357D01*
X4585000Y-2076929D01*
X4599286Y-2034071D01*
X4613571Y-2005500D01*
X4642143Y-1962643D01*
X4656428Y-1948357D01*
X4899286Y-2091214D02*
X4899286Y-2291214D01*
X4827857Y-1976929D02*
X4756428Y-2191214D01*
X4942143Y-2191214D01*
X5042143Y-2019786D02*
X5056428Y-2005500D01*
X5085000Y-1991214D01*
X5156428Y-1991214D01*
X5185000Y-2005500D01*
X5199286Y-2019786D01*
X5213571Y-2048357D01*
X5213571Y-2076929D01*
X5199286Y-2119786D01*
X5027857Y-2291214D01*
X5213571Y-2291214D01*
X5570714Y-2291214D02*
X5570714Y-1991214D01*
X5699285Y-2291214D02*
X5699285Y-2134072D01*
X5685000Y-2105500D01*
X5656428Y-2091214D01*
X5613571Y-2091214D01*
X5585000Y-2105500D01*
X5570714Y-2119786D01*
X5885000Y-2291214D02*
X5856428Y-2276929D01*
X5842143Y-2262643D01*
X5827857Y-2234072D01*
X5827857Y-2148357D01*
X5842143Y-2119786D01*
X5856428Y-2105500D01*
X5885000Y-2091214D01*
X5927857Y-2091214D01*
X5956428Y-2105500D01*
X5970714Y-2119786D01*
X5985000Y-2148357D01*
X5985000Y-2234072D01*
X5970714Y-2262643D01*
X5956428Y-2276929D01*
X5927857Y-2291214D01*
X5885000Y-2291214D01*
X6156428Y-2291214D02*
X6127857Y-2276929D01*
X6113571Y-2248357D01*
X6113571Y-1991214D01*
X6385000Y-2276929D02*
X6356428Y-2291214D01*
X6299286Y-2291214D01*
X6270714Y-2276929D01*
X6256428Y-2248357D01*
X6256428Y-2134072D01*
X6270714Y-2105500D01*
X6299286Y-2091214D01*
X6356428Y-2091214D01*
X6385000Y-2105500D01*
X6399286Y-2134072D01*
X6399286Y-2162643D01*
X6256428Y-2191214D01*
X6513571Y-2276929D02*
X6542143Y-2291214D01*
X6599286Y-2291214D01*
X6627857Y-2276929D01*
X6642143Y-2248357D01*
X6642143Y-2234072D01*
X6627857Y-2205500D01*
X6599286Y-2191214D01*
X6556428Y-2191214D01*
X6527857Y-2176929D01*
X6513571Y-2148357D01*
X6513571Y-2134072D01*
X6527857Y-2105500D01*
X6556428Y-2091214D01*
X6599286Y-2091214D01*
X6627857Y-2105500D01*
X6742143Y-2405500D02*
X6756428Y-2391214D01*
X6785000Y-2348357D01*
X6799286Y-2319786D01*
X6813571Y-2276929D01*
X6827857Y-2205500D01*
X6827857Y-2148357D01*
X6813571Y-2076929D01*
X6799286Y-2034071D01*
X6785000Y-2005500D01*
X6756428Y-1962643D01*
X6742143Y-1948357D01*
X-69864Y-2606364D02*
X-15000Y-2551500D01*
X-69864Y-2496636D01*
X-124728Y-2551500D01*
X-69864Y-2606364D01*
X413571Y-2687214D02*
X242143Y-2687214D01*
X327857Y-2687214D02*
X327857Y-2387214D01*
X299286Y-2430072D01*
X270714Y-2458643D01*
X242143Y-2472929D01*
X542143Y-2658643D02*
X556429Y-2672929D01*
X542143Y-2687214D01*
X527857Y-2672929D01*
X542143Y-2658643D01*
X542143Y-2687214D01*
X842143Y-2687214D02*
X670714Y-2687214D01*
X756428Y-2687214D02*
X756428Y-2387214D01*
X727857Y-2430072D01*
X699286Y-2458643D01*
X670714Y-2472929D01*
X1027857Y-2387214D02*
X1056429Y-2387214D01*
X1085000Y-2401500D01*
X1099286Y-2415786D01*
X1113571Y-2444357D01*
X1127857Y-2501500D01*
X1127857Y-2572929D01*
X1113571Y-2630072D01*
X1099286Y-2658643D01*
X1085000Y-2672929D01*
X1056429Y-2687214D01*
X1027857Y-2687214D01*
X999286Y-2672929D01*
X985000Y-2658643D01*
X970714Y-2630072D01*
X956428Y-2572929D01*
X956428Y-2501500D01*
X970714Y-2444357D01*
X985000Y-2415786D01*
X999286Y-2401500D01*
X1027857Y-2387214D01*
X1256429Y-2687214D02*
X1256429Y-2487214D01*
X1256429Y-2515786D02*
X1270714Y-2501500D01*
X1299286Y-2487214D01*
X1342143Y-2487214D01*
X1370714Y-2501500D01*
X1385000Y-2530072D01*
X1385000Y-2687214D01*
X1385000Y-2530072D02*
X1399286Y-2501500D01*
X1427857Y-2487214D01*
X1470714Y-2487214D01*
X1499286Y-2501500D01*
X1513571Y-2530072D01*
X1513571Y-2687214D01*
X1656428Y-2687214D02*
X1656428Y-2487214D01*
X1656428Y-2515786D02*
X1670714Y-2501500D01*
X1699286Y-2487214D01*
X1742143Y-2487214D01*
X1770714Y-2501500D01*
X1785000Y-2530072D01*
X1785000Y-2687214D01*
X1785000Y-2530072D02*
X1799286Y-2501500D01*
X1827857Y-2487214D01*
X1870714Y-2487214D01*
X1899286Y-2501500D01*
X1913571Y-2530072D01*
X1913571Y-2687214D01*
X2499286Y-2372929D02*
X2242143Y-2758643D01*
X2885000Y-2387214D02*
X2913571Y-2387214D01*
X2942143Y-2401500D01*
X2956428Y-2415786D01*
X2970714Y-2444357D01*
X2985000Y-2501500D01*
X2985000Y-2572929D01*
X2970714Y-2630072D01*
X2956428Y-2658643D01*
X2942143Y-2672929D01*
X2913571Y-2687214D01*
X2885000Y-2687214D01*
X2856428Y-2672929D01*
X2842143Y-2658643D01*
X2827857Y-2630072D01*
X2813571Y-2572929D01*
X2813571Y-2501500D01*
X2827857Y-2444357D01*
X2842143Y-2415786D01*
X2856428Y-2401500D01*
X2885000Y-2387214D01*
X3113571Y-2658643D02*
X3127857Y-2672929D01*
X3113571Y-2687214D01*
X3099286Y-2672929D01*
X3113571Y-2658643D01*
X3113571Y-2687214D01*
X3313571Y-2387214D02*
X3342143Y-2387214D01*
X3370714Y-2401500D01*
X3385000Y-2415786D01*
X3399285Y-2444357D01*
X3413571Y-2501500D01*
X3413571Y-2572929D01*
X3399285Y-2630072D01*
X3385000Y-2658643D01*
X3370714Y-2672929D01*
X3342143Y-2687214D01*
X3313571Y-2687214D01*
X3285000Y-2672929D01*
X3270714Y-2658643D01*
X3256428Y-2630072D01*
X3242143Y-2572929D01*
X3242143Y-2501500D01*
X3256428Y-2444357D01*
X3270714Y-2415786D01*
X3285000Y-2401500D01*
X3313571Y-2387214D01*
X3670714Y-2487214D02*
X3670714Y-2687214D01*
X3599285Y-2372929D02*
X3527857Y-2587214D01*
X3713571Y-2587214D01*
X3799285Y-2387214D02*
X3985000Y-2387214D01*
X3885000Y-2501500D01*
X3927857Y-2501500D01*
X3956428Y-2515786D01*
X3970714Y-2530072D01*
X3985000Y-2558643D01*
X3985000Y-2630072D01*
X3970714Y-2658643D01*
X3956428Y-2672929D01*
X3927857Y-2687214D01*
X3842143Y-2687214D01*
X3813571Y-2672929D01*
X3799285Y-2658643D01*
X4099286Y-2387214D02*
X4099286Y-2444357D01*
X4213571Y-2387214D02*
X4213571Y-2444357D01*
X4656428Y-2801500D02*
X4642143Y-2787214D01*
X4613571Y-2744357D01*
X4599286Y-2715786D01*
X4585000Y-2672929D01*
X4570714Y-2601500D01*
X4570714Y-2544357D01*
X4585000Y-2472929D01*
X4599286Y-2430072D01*
X4613571Y-2401500D01*
X4642143Y-2358643D01*
X4656428Y-2344357D01*
X4813571Y-2515786D02*
X4785000Y-2501500D01*
X4770714Y-2487214D01*
X4756428Y-2458643D01*
X4756428Y-2444357D01*
X4770714Y-2415786D01*
X4785000Y-2401500D01*
X4813571Y-2387214D01*
X4870714Y-2387214D01*
X4899286Y-2401500D01*
X4913571Y-2415786D01*
X4927857Y-2444357D01*
X4927857Y-2458643D01*
X4913571Y-2487214D01*
X4899286Y-2501500D01*
X4870714Y-2515786D01*
X4813571Y-2515786D01*
X4785000Y-2530072D01*
X4770714Y-2544357D01*
X4756428Y-2572929D01*
X4756428Y-2630072D01*
X4770714Y-2658643D01*
X4785000Y-2672929D01*
X4813571Y-2687214D01*
X4870714Y-2687214D01*
X4899286Y-2672929D01*
X4913571Y-2658643D01*
X4927857Y-2630072D01*
X4927857Y-2572929D01*
X4913571Y-2544357D01*
X4899286Y-2530072D01*
X4870714Y-2515786D01*
X5285000Y-2687214D02*
X5285000Y-2387214D01*
X5413571Y-2687214D02*
X5413571Y-2530072D01*
X5399286Y-2501500D01*
X5370714Y-2487214D01*
X5327857Y-2487214D01*
X5299286Y-2501500D01*
X5285000Y-2515786D01*
X5599285Y-2687214D02*
X5570714Y-2672929D01*
X5556428Y-2658643D01*
X5542143Y-2630072D01*
X5542143Y-2544357D01*
X5556428Y-2515786D01*
X5570714Y-2501500D01*
X5599285Y-2487214D01*
X5642143Y-2487214D01*
X5670714Y-2501500D01*
X5685000Y-2515786D01*
X5699285Y-2544357D01*
X5699285Y-2630072D01*
X5685000Y-2658643D01*
X5670714Y-2672929D01*
X5642143Y-2687214D01*
X5599285Y-2687214D01*
X5870714Y-2687214D02*
X5842143Y-2672929D01*
X5827857Y-2644357D01*
X5827857Y-2387214D01*
X6099286Y-2672929D02*
X6070714Y-2687214D01*
X6013571Y-2687214D01*
X5985000Y-2672929D01*
X5970714Y-2644357D01*
X5970714Y-2530072D01*
X5985000Y-2501500D01*
X6013571Y-2487214D01*
X6070714Y-2487214D01*
X6099286Y-2501500D01*
X6113571Y-2530072D01*
X6113571Y-2558643D01*
X5970714Y-2587214D01*
X6227857Y-2672929D02*
X6256428Y-2687214D01*
X6313571Y-2687214D01*
X6342143Y-2672929D01*
X6356428Y-2644357D01*
X6356428Y-2630072D01*
X6342143Y-2601500D01*
X6313571Y-2587214D01*
X6270714Y-2587214D01*
X6242143Y-2572929D01*
X6227857Y-2544357D01*
X6227857Y-2530072D01*
X6242143Y-2501500D01*
X6270714Y-2487214D01*
X6313571Y-2487214D01*
X6342143Y-2501500D01*
X6456428Y-2801500D02*
X6470714Y-2787214D01*
X6499286Y-2744357D01*
X6513571Y-2715786D01*
X6527857Y-2672929D01*
X6542143Y-2601500D01*
X6542143Y-2544357D01*
X6527857Y-2472929D01*
X6513571Y-2430072D01*
X6499286Y-2401500D01*
X6470714Y-2358643D01*
X6456428Y-2344357D01*
M02*
