G04 #@! TF.FileFunction,Copper,L1,Top,Signal*
%FSLAX46Y46*%
G04 Gerber Fmt 4.6, Leading zero omitted, Abs format (unit mm)*
G04 Created by KiCad (PCBNEW 4.0.7) date 03/26/18 16:32:17*
%MOMM*%
%LPD*%
G01*
G04 APERTURE LIST*
%ADD10C,0.100000*%
%ADD11C,0.300000*%
%ADD12R,1.250000X1.500000*%
%ADD13R,1.500000X1.250000*%
%ADD14O,1.998980X1.998980*%
%ADD15R,1.998980X1.998980*%
%ADD16R,3.500000X3.500000*%
%ADD17R,2.250000X1.727200*%
%ADD18O,2.250000X1.727200*%
%ADD19O,1.727200X1.727200*%
%ADD20C,1.524000*%
%ADD21R,3.800000X2.000000*%
%ADD22R,1.500000X2.000000*%
%ADD23R,5.000000X5.000000*%
%ADD24O,10.000000X10.000000*%
%ADD25R,1.000000X10.000000*%
%ADD26C,1.500000*%
%ADD27C,0.400000*%
%ADD28C,0.800000*%
%ADD29C,0.254000*%
G04 APERTURE END LIST*
D10*
D11*
X62603571Y64578571D02*
X61746428Y64578571D01*
X62174999Y66078571D02*
X62174999Y64578571D01*
X61246428Y66078571D02*
X61246428Y65078571D01*
X61246428Y65364286D02*
X61175000Y65221429D01*
X61103571Y65150000D01*
X60960714Y65078571D01*
X60817857Y65078571D01*
X60317857Y66078571D02*
X60317857Y65078571D01*
X60317857Y64578571D02*
X60389286Y64650000D01*
X60317857Y64721429D01*
X60246429Y64650000D01*
X60317857Y64578571D01*
X60317857Y64721429D01*
X58960714Y65078571D02*
X58960714Y66292857D01*
X59032143Y66435714D01*
X59103571Y66507143D01*
X59246428Y66578571D01*
X59460714Y66578571D01*
X59603571Y66507143D01*
X58960714Y66007143D02*
X59103571Y66078571D01*
X59389285Y66078571D01*
X59532143Y66007143D01*
X59603571Y65935714D01*
X59675000Y65792857D01*
X59675000Y65364286D01*
X59603571Y65221429D01*
X59532143Y65150000D01*
X59389285Y65078571D01*
X59103571Y65078571D01*
X58960714Y65150000D01*
X68074999Y64578571D02*
X67146428Y64578571D01*
X67646428Y65150000D01*
X67432142Y65150000D01*
X67289285Y65221429D01*
X67217856Y65292857D01*
X67146428Y65435714D01*
X67146428Y65792857D01*
X67217856Y65935714D01*
X67289285Y66007143D01*
X67432142Y66078571D01*
X67860714Y66078571D01*
X68003571Y66007143D01*
X68074999Y65935714D01*
X75128571Y64846429D02*
X75057142Y64775000D01*
X74914285Y64703571D01*
X74557142Y64703571D01*
X74414285Y64775000D01*
X74342856Y64846429D01*
X74271428Y64989286D01*
X74271428Y65132143D01*
X74342856Y65346429D01*
X75199999Y66203571D01*
X74271428Y66203571D01*
X80796428Y66253571D02*
X81653571Y66253571D01*
X81224999Y66253571D02*
X81224999Y64753571D01*
X81367856Y64967857D01*
X81510714Y65110714D01*
X81653571Y65182143D01*
D12*
X70950000Y39525000D03*
X70950000Y42025000D03*
X81325000Y38100000D03*
X81325000Y35600000D03*
X77225000Y41400000D03*
X77225000Y43900000D03*
X57225000Y21900000D03*
X57225000Y19400000D03*
D13*
X69850000Y27525000D03*
X67350000Y27525000D03*
D12*
X67550000Y22075000D03*
X67550000Y24575000D03*
D13*
X74825000Y30625000D03*
X77325000Y30625000D03*
D12*
X26936532Y33084228D03*
X26936532Y30584228D03*
X24911532Y33009228D03*
X24911532Y30509228D03*
D14*
X73345000Y59100000D03*
D15*
X80965000Y59100000D03*
D14*
X78425000Y59100000D03*
X75885000Y59100000D03*
X60470000Y58950000D03*
D15*
X68090000Y58950000D03*
D14*
X65550000Y58950000D03*
X63010000Y58950000D03*
D16*
X63650000Y12575000D03*
X63650000Y6575000D03*
X68350000Y9575000D03*
D17*
X36175000Y57265000D03*
D18*
X36175000Y54725000D03*
X36175000Y52185000D03*
X36175000Y49645000D03*
X36175000Y47105000D03*
X36175000Y44565000D03*
X36175000Y42025000D03*
X36175000Y39485000D03*
X36175000Y36945000D03*
X36175000Y34405000D03*
X36175000Y31865000D03*
X36175000Y29325000D03*
X36175000Y26785000D03*
X36175000Y24245000D03*
X36175000Y21705000D03*
X36175000Y19165000D03*
X36175000Y16625000D03*
X36175000Y14085000D03*
X36175000Y11545000D03*
X36175000Y9005000D03*
X51415000Y9005000D03*
X51415000Y11545000D03*
X51415000Y14085000D03*
X51415000Y16625000D03*
X51415000Y19165000D03*
X51415000Y21705000D03*
X51415000Y24245000D03*
X51415000Y26785000D03*
X51415000Y29325000D03*
X51415000Y31865000D03*
X51415000Y34405000D03*
X51415000Y36945000D03*
X51415000Y39485000D03*
X51415000Y42025000D03*
X51415000Y44565000D03*
X51415000Y47105000D03*
X51415000Y49645000D03*
X51415000Y52185000D03*
X51415000Y54725000D03*
X51415000Y57315800D03*
D19*
X45075000Y53455000D03*
X42535000Y53455000D03*
D20*
X16605000Y12900000D03*
X19145000Y12900000D03*
X21685000Y12900000D03*
X24225000Y12900000D03*
D21*
X74550000Y21225000D03*
D22*
X74550000Y27525000D03*
X72250000Y27525000D03*
X76850000Y27525000D03*
D21*
X62000000Y28475000D03*
D22*
X62000000Y22175000D03*
X64300000Y22175000D03*
X59700000Y22175000D03*
D12*
X12225000Y12475000D03*
X12225000Y9975000D03*
D23*
X12875000Y31475000D03*
X12925000Y61925000D03*
D24*
X15275000Y45825000D03*
D25*
X21025000Y45925000D03*
D26*
X26420671Y36173756D03*
X56225000Y57425000D03*
X83200000Y40525000D03*
X77134225Y38727857D03*
X71075000Y36525000D03*
X22250000Y26925000D03*
X79748912Y28495499D03*
X43875000Y40200000D03*
X76825000Y35100000D03*
X46500000Y43575000D03*
X27633935Y63555479D03*
D27*
X56225000Y57425000D02*
X53500000Y60150000D01*
X53500000Y60150000D02*
X35307333Y60150000D01*
X35307333Y60150000D02*
X33729736Y58572403D01*
X33729736Y58572403D02*
X33729736Y43462765D01*
X33729736Y43462765D02*
X28216971Y37950000D01*
X28216971Y37950000D02*
X28196915Y37950000D01*
X28196915Y37950000D02*
X26420671Y36173756D01*
D11*
X70950000Y39525000D02*
X70950000Y36650000D01*
X70950000Y36650000D02*
X71075000Y36525000D01*
D27*
X77225000Y41400000D02*
X77225000Y38818632D01*
D11*
X77225000Y38818632D02*
X77134225Y38727857D01*
X81325000Y38100000D02*
X81325000Y38225000D01*
D27*
X81325000Y38225000D02*
X83200000Y40100000D01*
D11*
X83200000Y40100000D02*
X83200000Y40525000D01*
D27*
X26936532Y33084228D02*
X26936532Y35657895D01*
X26936532Y35657895D02*
X26420671Y36173756D01*
X26936532Y33084228D02*
X24986532Y33084228D01*
X24986532Y33084228D02*
X24911532Y33009228D01*
D28*
X71075000Y32825000D02*
X71075000Y34920002D01*
X71075000Y34920002D02*
X56225000Y49770002D01*
X56225000Y49770002D02*
X56225000Y57425000D01*
X74825000Y30625000D02*
X73275000Y30625000D01*
X73275000Y30625000D02*
X71075000Y32825000D01*
X71075000Y32825000D02*
X71075000Y36525000D01*
X74550000Y27525000D02*
X74550000Y30350000D01*
X74550000Y30350000D02*
X74825000Y30625000D01*
D27*
X83200000Y40525000D02*
X78931368Y40525000D01*
X78931368Y40525000D02*
X77134225Y38727857D01*
X71075000Y36525000D02*
X73277857Y38727857D01*
X73277857Y38727857D02*
X77134225Y38727857D01*
D28*
X59700000Y22175000D02*
X59700000Y20375000D01*
X63650000Y16425000D02*
X63650000Y12575000D01*
X59700000Y20375000D02*
X63650000Y16425000D01*
X57050000Y22050000D02*
X59575000Y22050000D01*
X59575000Y22050000D02*
X59700000Y22175000D01*
D27*
X54850000Y22850000D02*
X56550000Y24550000D01*
X56550000Y24550000D02*
X60838659Y24550000D01*
X54850000Y7900000D02*
X54850000Y22850000D01*
X15559161Y14625000D02*
X14259161Y13325000D01*
X13150000Y12475000D02*
X14000000Y13325000D01*
D11*
X14000000Y13325000D02*
X14259161Y13325000D01*
D27*
X14259161Y13325000D02*
X14110028Y13175867D01*
X12225000Y12475000D02*
X13150000Y12475000D01*
X21685000Y12900000D02*
X21685000Y13977630D01*
X21685000Y13977630D02*
X21037630Y14625000D01*
X21037630Y14625000D02*
X15559161Y14625000D01*
X14110028Y13175867D02*
X14110028Y7489972D01*
X14110028Y7489972D02*
X17000000Y4600000D01*
X17000000Y4600000D02*
X51550000Y4600000D01*
X51550000Y4600000D02*
X54850000Y7900000D01*
X60838659Y24550000D02*
X63971782Y24550000D01*
X63971782Y24550000D02*
X64300000Y24221782D01*
X64300000Y24221782D02*
X64300000Y22175000D01*
D28*
X72250000Y27525000D02*
X69850000Y27525000D01*
X67550000Y22075000D02*
X68975000Y22075000D01*
X68975000Y22075000D02*
X72250000Y25350000D01*
X72250000Y25350000D02*
X72250000Y27525000D01*
X67550000Y22075000D02*
X64400000Y22075000D01*
X64400000Y22075000D02*
X64300000Y22175000D01*
D27*
X79748912Y32176088D02*
X79748912Y29556159D01*
X76825000Y35100000D02*
X79748912Y32176088D01*
X79748912Y29556159D02*
X79748912Y28495499D01*
X19250000Y10625000D02*
X19145000Y10730000D01*
X19145000Y10730000D02*
X19145000Y12900000D01*
X43875000Y40200000D02*
X43875000Y12575000D01*
X43875000Y12575000D02*
X37537644Y6237644D01*
X37537644Y6237644D02*
X33955038Y6237644D01*
X31837646Y8355036D02*
X19690802Y8355036D01*
X33955038Y6237644D02*
X31837646Y8355036D01*
X19690802Y8355036D02*
X19250000Y8795838D01*
X19250000Y8795838D02*
X19250000Y10625000D01*
X16605000Y11822370D02*
X16605000Y12900000D01*
X16605000Y8651775D02*
X16605000Y11822370D01*
X17899748Y7357027D02*
X16605000Y8651775D01*
X31321195Y7357027D02*
X17899748Y7357027D01*
X37950011Y5300011D02*
X33378211Y5300011D01*
X46500000Y13850000D02*
X37950011Y5300011D01*
X46500000Y43575000D02*
X46500000Y13850000D01*
X33378211Y5300011D02*
X31321195Y7357027D01*
X26883936Y62805480D02*
X27633935Y63555479D01*
X14625000Y62175000D02*
X26253456Y62175000D01*
X26253456Y62175000D02*
X26883936Y62805480D01*
D29*
G36*
X73350714Y67400318D02*
X73350714Y63690000D01*
X76049285Y63690000D01*
X76049285Y67397927D01*
X79875714Y67394538D01*
X79875714Y63740000D01*
X82574285Y63740000D01*
X82574285Y67392148D01*
X84238654Y67390674D01*
X84191221Y41492445D01*
X83985564Y41698461D01*
X83476702Y41909759D01*
X82925715Y41910240D01*
X82416485Y41699831D01*
X82076061Y41360000D01*
X78931368Y41360000D01*
X78611827Y41296439D01*
X78497440Y41220008D01*
X78497440Y42150000D01*
X78453162Y42385317D01*
X78314090Y42601441D01*
X78245994Y42647969D01*
X78388327Y42790302D01*
X78485000Y43023691D01*
X78485000Y43614250D01*
X78326250Y43773000D01*
X77352000Y43773000D01*
X77352000Y43753000D01*
X77098000Y43753000D01*
X77098000Y43773000D01*
X76123750Y43773000D01*
X75965000Y43614250D01*
X75965000Y43023691D01*
X76061673Y42790302D01*
X76202910Y42649064D01*
X76148559Y42614090D01*
X76003569Y42401890D01*
X75952560Y42150000D01*
X75952560Y40650000D01*
X75996838Y40414683D01*
X76135910Y40198559D01*
X76348110Y40053569D01*
X76390000Y40045086D01*
X76390000Y39918922D01*
X76350710Y39902688D01*
X76010286Y39562857D01*
X73277857Y39562857D01*
X72958316Y39499296D01*
X72770365Y39373711D01*
X72687423Y39318291D01*
X72222440Y38853308D01*
X72222440Y40275000D01*
X72178162Y40510317D01*
X72039090Y40726441D01*
X71970994Y40772969D01*
X72113327Y40915302D01*
X72210000Y41148691D01*
X72210000Y41739250D01*
X72051250Y41898000D01*
X71077000Y41898000D01*
X71077000Y41878000D01*
X70823000Y41878000D01*
X70823000Y41898000D01*
X69848750Y41898000D01*
X69690000Y41739250D01*
X69690000Y41148691D01*
X69786673Y40915302D01*
X69927910Y40774064D01*
X69873559Y40739090D01*
X69728569Y40526890D01*
X69677560Y40275000D01*
X69677560Y38775000D01*
X69721838Y38539683D01*
X69860910Y38323559D01*
X70073110Y38178569D01*
X70165000Y38159961D01*
X70165000Y37573566D01*
X70024952Y37433762D01*
X64557405Y42901309D01*
X69690000Y42901309D01*
X69690000Y42310750D01*
X69848750Y42152000D01*
X70823000Y42152000D01*
X70823000Y43251250D01*
X71077000Y43251250D01*
X71077000Y42152000D01*
X72051250Y42152000D01*
X72210000Y42310750D01*
X72210000Y42901309D01*
X72113327Y43134698D01*
X71934699Y43313327D01*
X71701310Y43410000D01*
X71235750Y43410000D01*
X71077000Y43251250D01*
X70823000Y43251250D01*
X70664250Y43410000D01*
X70198690Y43410000D01*
X69965301Y43313327D01*
X69786673Y43134698D01*
X69690000Y42901309D01*
X64557405Y42901309D01*
X62682405Y44776309D01*
X75965000Y44776309D01*
X75965000Y44185750D01*
X76123750Y44027000D01*
X77098000Y44027000D01*
X77098000Y45126250D01*
X77352000Y45126250D01*
X77352000Y44027000D01*
X78326250Y44027000D01*
X78485000Y44185750D01*
X78485000Y44776309D01*
X78388327Y45009698D01*
X78209699Y45188327D01*
X77976310Y45285000D01*
X77510750Y45285000D01*
X77352000Y45126250D01*
X77098000Y45126250D01*
X76939250Y45285000D01*
X76473690Y45285000D01*
X76240301Y45188327D01*
X76061673Y45009698D01*
X75965000Y44776309D01*
X62682405Y44776309D01*
X57260000Y50198714D01*
X57260000Y56501216D01*
X57398461Y56639436D01*
X57609759Y57148298D01*
X57610240Y57699285D01*
X57399831Y58208515D01*
X57039329Y58569646D01*
X58880381Y58569646D01*
X59077013Y58094916D01*
X59510274Y57626932D01*
X60089645Y57360373D01*
X60343000Y57479193D01*
X60343000Y58823000D01*
X58999735Y58823000D01*
X58880381Y58569646D01*
X57039329Y58569646D01*
X57010564Y58598461D01*
X56501702Y58809759D01*
X56020689Y58810179D01*
X55500514Y59330354D01*
X58880381Y59330354D01*
X58999735Y59077000D01*
X60343000Y59077000D01*
X60343000Y60420807D01*
X60597000Y60420807D01*
X60597000Y59077000D01*
X60617000Y59077000D01*
X60617000Y58823000D01*
X60597000Y58823000D01*
X60597000Y57479193D01*
X60850355Y57360373D01*
X61429726Y57626932D01*
X61722621Y57943300D01*
X61822219Y57794241D01*
X62352486Y57439928D01*
X62977978Y57315510D01*
X63042022Y57315510D01*
X63667514Y57439928D01*
X64197781Y57794241D01*
X64280000Y57917290D01*
X64362219Y57794241D01*
X64892486Y57439928D01*
X65517978Y57315510D01*
X65582022Y57315510D01*
X66207514Y57439928D01*
X66527077Y57653453D01*
X66626420Y57499069D01*
X66838620Y57354079D01*
X67090510Y57303070D01*
X69089490Y57303070D01*
X69324807Y57347348D01*
X69540931Y57486420D01*
X69685921Y57698620D01*
X69736930Y57950510D01*
X69736930Y59100000D01*
X71678488Y59100000D01*
X71802906Y58474508D01*
X72157219Y57944241D01*
X72687486Y57589928D01*
X73312978Y57465510D01*
X73377022Y57465510D01*
X74002514Y57589928D01*
X74532781Y57944241D01*
X74615000Y58067290D01*
X74697219Y57944241D01*
X75227486Y57589928D01*
X75852978Y57465510D01*
X75917022Y57465510D01*
X76542514Y57589928D01*
X77072781Y57944241D01*
X77155000Y58067290D01*
X77237219Y57944241D01*
X77767486Y57589928D01*
X78392978Y57465510D01*
X78457022Y57465510D01*
X79082514Y57589928D01*
X79402077Y57803453D01*
X79501420Y57649069D01*
X79713620Y57504079D01*
X79965510Y57453070D01*
X81964490Y57453070D01*
X82199807Y57497348D01*
X82415931Y57636420D01*
X82560921Y57848620D01*
X82611930Y58100510D01*
X82611930Y60099490D01*
X82567652Y60334807D01*
X82428580Y60550931D01*
X82216380Y60695921D01*
X81964490Y60746930D01*
X79965510Y60746930D01*
X79730193Y60702652D01*
X79514069Y60563580D01*
X79400610Y60397527D01*
X79082514Y60610072D01*
X78457022Y60734490D01*
X78392978Y60734490D01*
X77767486Y60610072D01*
X77237219Y60255759D01*
X77155000Y60132710D01*
X77072781Y60255759D01*
X76542514Y60610072D01*
X75917022Y60734490D01*
X75852978Y60734490D01*
X75227486Y60610072D01*
X74697219Y60255759D01*
X74615000Y60132710D01*
X74532781Y60255759D01*
X74002514Y60610072D01*
X73377022Y60734490D01*
X73312978Y60734490D01*
X72687486Y60610072D01*
X72157219Y60255759D01*
X71802906Y59725492D01*
X71678488Y59100000D01*
X69736930Y59100000D01*
X69736930Y59949490D01*
X69692652Y60184807D01*
X69553580Y60400931D01*
X69341380Y60545921D01*
X69089490Y60596930D01*
X67090510Y60596930D01*
X66855193Y60552652D01*
X66639069Y60413580D01*
X66525610Y60247527D01*
X66207514Y60460072D01*
X65582022Y60584490D01*
X65517978Y60584490D01*
X64892486Y60460072D01*
X64362219Y60105759D01*
X64280000Y59982710D01*
X64197781Y60105759D01*
X63667514Y60460072D01*
X63042022Y60584490D01*
X62977978Y60584490D01*
X62352486Y60460072D01*
X61822219Y60105759D01*
X61722621Y59956700D01*
X61429726Y60273068D01*
X60850355Y60539627D01*
X60597000Y60420807D01*
X60343000Y60420807D01*
X60089645Y60539627D01*
X59510274Y60273068D01*
X59077013Y59805084D01*
X58880381Y59330354D01*
X55500514Y59330354D01*
X54090434Y60740434D01*
X54080712Y60746930D01*
X53819541Y60921439D01*
X53500000Y60985000D01*
X35307333Y60985000D01*
X34987792Y60921439D01*
X34726621Y60746930D01*
X34716899Y60740434D01*
X33139302Y59162837D01*
X32958297Y58891944D01*
X32894736Y58572403D01*
X32894736Y43808633D01*
X27666923Y38580820D01*
X27612626Y38544540D01*
X27606481Y38540434D01*
X26624626Y37558579D01*
X26146386Y37558996D01*
X25637156Y37348587D01*
X25247210Y36959320D01*
X25035912Y36450458D01*
X25035431Y35899471D01*
X25245840Y35390241D01*
X25635107Y35000295D01*
X26101532Y34806618D01*
X26101532Y34442154D01*
X26076215Y34437390D01*
X25866401Y34302378D01*
X25788422Y34355659D01*
X25536532Y34406668D01*
X24286532Y34406668D01*
X24051215Y34362390D01*
X23835091Y34223318D01*
X23690101Y34011118D01*
X23639092Y33759228D01*
X23639092Y32259228D01*
X23683370Y32023911D01*
X23822442Y31807787D01*
X23890538Y31761259D01*
X23748205Y31618926D01*
X23651532Y31385537D01*
X23651532Y30794978D01*
X23810282Y30636228D01*
X24784532Y30636228D01*
X24784532Y30656228D01*
X25038532Y30656228D01*
X25038532Y30636228D01*
X26012782Y30636228D01*
X26087782Y30711228D01*
X26809532Y30711228D01*
X26809532Y30731228D01*
X27063532Y30731228D01*
X27063532Y30711228D01*
X28037782Y30711228D01*
X28196532Y30869978D01*
X28196532Y31460537D01*
X28099859Y31693926D01*
X27958622Y31835164D01*
X28012973Y31870138D01*
X28157963Y32082338D01*
X28208972Y32334228D01*
X28208972Y33834228D01*
X28164694Y34069545D01*
X28025622Y34285669D01*
X27813422Y34430659D01*
X27771532Y34439142D01*
X27771532Y35657895D01*
X27757786Y35727000D01*
X27750347Y35764400D01*
X27805430Y35897054D01*
X27805850Y36378067D01*
X28746963Y37319180D01*
X28807405Y37359566D01*
X34320170Y42872331D01*
X34339532Y42901309D01*
X34501175Y43143224D01*
X34564736Y43462765D01*
X34564736Y43886536D01*
X34819450Y43505330D01*
X35134231Y43295000D01*
X34819450Y43084670D01*
X34494594Y42598489D01*
X34380520Y42025000D01*
X34494594Y41451511D01*
X34819450Y40965330D01*
X35134231Y40755000D01*
X34819450Y40544670D01*
X34494594Y40058489D01*
X34380520Y39485000D01*
X34494594Y38911511D01*
X34819450Y38425330D01*
X35134231Y38215000D01*
X34819450Y38004670D01*
X34494594Y37518489D01*
X34380520Y36945000D01*
X34494594Y36371511D01*
X34819450Y35885330D01*
X35134231Y35675000D01*
X34819450Y35464670D01*
X34494594Y34978489D01*
X34380520Y34405000D01*
X34494594Y33831511D01*
X34819450Y33345330D01*
X35134231Y33135000D01*
X34819450Y32924670D01*
X34494594Y32438489D01*
X34380520Y31865000D01*
X34494594Y31291511D01*
X34819450Y30805330D01*
X35134231Y30595000D01*
X34819450Y30384670D01*
X34494594Y29898489D01*
X34380520Y29325000D01*
X34494594Y28751511D01*
X34819450Y28265330D01*
X35134231Y28055000D01*
X34819450Y27844670D01*
X34494594Y27358489D01*
X34380520Y26785000D01*
X34494594Y26211511D01*
X34819450Y25725330D01*
X35137468Y25512837D01*
X34764127Y25214868D01*
X34480473Y24701157D01*
X34458642Y24604026D01*
X34579783Y24372000D01*
X36048000Y24372000D01*
X36048000Y24392000D01*
X36302000Y24392000D01*
X36302000Y24372000D01*
X37770217Y24372000D01*
X37891358Y24604026D01*
X37869527Y24701157D01*
X37585873Y25214868D01*
X37212532Y25512837D01*
X37530550Y25725330D01*
X37855406Y26211511D01*
X37969480Y26785000D01*
X37855406Y27358489D01*
X37530550Y27844670D01*
X37215769Y28055000D01*
X37530550Y28265330D01*
X37855406Y28751511D01*
X37969480Y29325000D01*
X37855406Y29898489D01*
X37530550Y30384670D01*
X37215769Y30595000D01*
X37530550Y30805330D01*
X37855406Y31291511D01*
X37969480Y31865000D01*
X37855406Y32438489D01*
X37530550Y32924670D01*
X37215769Y33135000D01*
X37530550Y33345330D01*
X37855406Y33831511D01*
X37969480Y34405000D01*
X37855406Y34978489D01*
X37530550Y35464670D01*
X37215769Y35675000D01*
X37530550Y35885330D01*
X37855406Y36371511D01*
X37969480Y36945000D01*
X37855406Y37518489D01*
X37530550Y38004670D01*
X37215769Y38215000D01*
X37530550Y38425330D01*
X37855406Y38911511D01*
X37969480Y39485000D01*
X37855406Y40058489D01*
X37530550Y40544670D01*
X37215769Y40755000D01*
X37530550Y40965330D01*
X37855406Y41451511D01*
X37969480Y42025000D01*
X37855406Y42598489D01*
X37530550Y43084670D01*
X37215769Y43295000D01*
X37530550Y43505330D01*
X37855406Y43991511D01*
X37969480Y44565000D01*
X37855406Y45138489D01*
X37530550Y45624670D01*
X37215769Y45835000D01*
X37530550Y46045330D01*
X37855406Y46531511D01*
X37969480Y47105000D01*
X37855406Y47678489D01*
X37530550Y48164670D01*
X37215769Y48375000D01*
X37530550Y48585330D01*
X37855406Y49071511D01*
X37969480Y49645000D01*
X37855406Y50218489D01*
X37530550Y50704670D01*
X37215769Y50915000D01*
X37530550Y51125330D01*
X37855406Y51611511D01*
X37969480Y52185000D01*
X37855406Y52758489D01*
X37530550Y53244670D01*
X37215769Y53455000D01*
X37259707Y53484359D01*
X41036400Y53484359D01*
X41036400Y53425641D01*
X41150474Y52852152D01*
X41475330Y52365971D01*
X41961511Y52041115D01*
X42535000Y51927041D01*
X43108489Y52041115D01*
X43594670Y52365971D01*
X43805000Y52680752D01*
X44015330Y52365971D01*
X44501511Y52041115D01*
X45075000Y51927041D01*
X45648489Y52041115D01*
X46134670Y52365971D01*
X46459526Y52852152D01*
X46573600Y53425641D01*
X46573600Y53484359D01*
X46459526Y54057848D01*
X46134670Y54544029D01*
X45648489Y54868885D01*
X45075000Y54982959D01*
X44501511Y54868885D01*
X44015330Y54544029D01*
X43805000Y54229248D01*
X43594670Y54544029D01*
X43108489Y54868885D01*
X42535000Y54982959D01*
X41961511Y54868885D01*
X41475330Y54544029D01*
X41150474Y54057848D01*
X41036400Y53484359D01*
X37259707Y53484359D01*
X37530550Y53665330D01*
X37855406Y54151511D01*
X37969480Y54725000D01*
X37855406Y55298489D01*
X37530550Y55784670D01*
X37515753Y55794557D01*
X37535317Y55798238D01*
X37751441Y55937310D01*
X37896431Y56149510D01*
X37947440Y56401400D01*
X37947440Y57315800D01*
X49620520Y57315800D01*
X49734594Y56742311D01*
X50059450Y56256130D01*
X50412245Y56020400D01*
X50059450Y55784670D01*
X49734594Y55298489D01*
X49620520Y54725000D01*
X49734594Y54151511D01*
X50059450Y53665330D01*
X50374231Y53455000D01*
X50059450Y53244670D01*
X49734594Y52758489D01*
X49620520Y52185000D01*
X49734594Y51611511D01*
X50059450Y51125330D01*
X50374231Y50915000D01*
X50059450Y50704670D01*
X49734594Y50218489D01*
X49620520Y49645000D01*
X49734594Y49071511D01*
X50059450Y48585330D01*
X50374231Y48375000D01*
X50059450Y48164670D01*
X49734594Y47678489D01*
X49620520Y47105000D01*
X49734594Y46531511D01*
X50059450Y46045330D01*
X50374231Y45835000D01*
X50059450Y45624670D01*
X49734594Y45138489D01*
X49620520Y44565000D01*
X49734594Y43991511D01*
X50059450Y43505330D01*
X50374231Y43295000D01*
X50059450Y43084670D01*
X49734594Y42598489D01*
X49620520Y42025000D01*
X49734594Y41451511D01*
X50059450Y40965330D01*
X50374231Y40755000D01*
X50059450Y40544670D01*
X49734594Y40058489D01*
X49620520Y39485000D01*
X49734594Y38911511D01*
X50059450Y38425330D01*
X50374231Y38215000D01*
X50059450Y38004670D01*
X49734594Y37518489D01*
X49620520Y36945000D01*
X49734594Y36371511D01*
X50059450Y35885330D01*
X50374231Y35675000D01*
X50059450Y35464670D01*
X49734594Y34978489D01*
X49620520Y34405000D01*
X49734594Y33831511D01*
X50059450Y33345330D01*
X50374231Y33135000D01*
X50059450Y32924670D01*
X49734594Y32438489D01*
X49620520Y31865000D01*
X49734594Y31291511D01*
X50059450Y30805330D01*
X50374231Y30595000D01*
X50059450Y30384670D01*
X49734594Y29898489D01*
X49620520Y29325000D01*
X49734594Y28751511D01*
X50059450Y28265330D01*
X50374231Y28055000D01*
X50059450Y27844670D01*
X49734594Y27358489D01*
X49620520Y26785000D01*
X49734594Y26211511D01*
X50059450Y25725330D01*
X50374231Y25515000D01*
X50059450Y25304670D01*
X49734594Y24818489D01*
X49620520Y24245000D01*
X49734594Y23671511D01*
X50059450Y23185330D01*
X50374231Y22975000D01*
X50059450Y22764670D01*
X49734594Y22278489D01*
X49620520Y21705000D01*
X49734594Y21131511D01*
X50059450Y20645330D01*
X50374231Y20435000D01*
X50059450Y20224670D01*
X49734594Y19738489D01*
X49620520Y19165000D01*
X49734594Y18591511D01*
X50059450Y18105330D01*
X50374231Y17895000D01*
X50059450Y17684670D01*
X49734594Y17198489D01*
X49620520Y16625000D01*
X49734594Y16051511D01*
X50059450Y15565330D01*
X50374231Y15355000D01*
X50059450Y15144670D01*
X49734594Y14658489D01*
X49620520Y14085000D01*
X49734594Y13511511D01*
X50059450Y13025330D01*
X50374231Y12815000D01*
X50059450Y12604670D01*
X49734594Y12118489D01*
X49620520Y11545000D01*
X49734594Y10971511D01*
X50059450Y10485330D01*
X50374231Y10275000D01*
X50059450Y10064670D01*
X49734594Y9578489D01*
X49620520Y9005000D01*
X49734594Y8431511D01*
X50059450Y7945330D01*
X50545631Y7620474D01*
X51119120Y7506400D01*
X51710880Y7506400D01*
X52284369Y7620474D01*
X52770550Y7945330D01*
X53095406Y8431511D01*
X53209480Y9005000D01*
X53095406Y9578489D01*
X52770550Y10064670D01*
X52455769Y10275000D01*
X52770550Y10485330D01*
X53095406Y10971511D01*
X53209480Y11545000D01*
X53095406Y12118489D01*
X52770550Y12604670D01*
X52455769Y12815000D01*
X52770550Y13025330D01*
X53095406Y13511511D01*
X53209480Y14085000D01*
X53095406Y14658489D01*
X52770550Y15144670D01*
X52455769Y15355000D01*
X52770550Y15565330D01*
X53095406Y16051511D01*
X53209480Y16625000D01*
X53095406Y17198489D01*
X52770550Y17684670D01*
X52455769Y17895000D01*
X52770550Y18105330D01*
X53095406Y18591511D01*
X53209480Y19165000D01*
X53095406Y19738489D01*
X52770550Y20224670D01*
X52455769Y20435000D01*
X52770550Y20645330D01*
X53095406Y21131511D01*
X53209480Y21705000D01*
X53095406Y22278489D01*
X52770550Y22764670D01*
X52455769Y22975000D01*
X52770550Y23185330D01*
X53095406Y23671511D01*
X53209480Y24245000D01*
X53095406Y24818489D01*
X52770550Y25304670D01*
X52551090Y25451309D01*
X66290000Y25451309D01*
X66290000Y24860750D01*
X66448750Y24702000D01*
X67423000Y24702000D01*
X67423000Y25801250D01*
X67677000Y25801250D01*
X67677000Y24702000D01*
X68651250Y24702000D01*
X68810000Y24860750D01*
X68810000Y25451309D01*
X68713327Y25684698D01*
X68534699Y25863327D01*
X68301310Y25960000D01*
X67835750Y25960000D01*
X67677000Y25801250D01*
X67423000Y25801250D01*
X67264250Y25960000D01*
X66798690Y25960000D01*
X66565301Y25863327D01*
X66386673Y25684698D01*
X66290000Y25451309D01*
X52551090Y25451309D01*
X52455769Y25515000D01*
X52770550Y25725330D01*
X53095406Y26211511D01*
X53209480Y26785000D01*
X53095406Y27358489D01*
X52770550Y27844670D01*
X52455769Y28055000D01*
X52656688Y28189250D01*
X59465000Y28189250D01*
X59465000Y27348691D01*
X59561673Y27115302D01*
X59740301Y26936673D01*
X59973690Y26840000D01*
X61714250Y26840000D01*
X61873000Y26998750D01*
X61873000Y28348000D01*
X62127000Y28348000D01*
X62127000Y26998750D01*
X62285750Y26840000D01*
X64026310Y26840000D01*
X64259699Y26936673D01*
X64438327Y27115302D01*
X64489668Y27239250D01*
X65965000Y27239250D01*
X65965000Y26773690D01*
X66061673Y26540301D01*
X66240302Y26361673D01*
X66473691Y26265000D01*
X67064250Y26265000D01*
X67223000Y26423750D01*
X67223000Y27398000D01*
X66123750Y27398000D01*
X65965000Y27239250D01*
X64489668Y27239250D01*
X64535000Y27348691D01*
X64535000Y28189250D01*
X64447940Y28276310D01*
X65965000Y28276310D01*
X65965000Y27810750D01*
X66123750Y27652000D01*
X67223000Y27652000D01*
X67223000Y28626250D01*
X67064250Y28785000D01*
X66473691Y28785000D01*
X66240302Y28688327D01*
X66061673Y28509699D01*
X65965000Y28276310D01*
X64447940Y28276310D01*
X64376250Y28348000D01*
X62127000Y28348000D01*
X61873000Y28348000D01*
X59623750Y28348000D01*
X59465000Y28189250D01*
X52656688Y28189250D01*
X52770550Y28265330D01*
X53095406Y28751511D01*
X53209480Y29325000D01*
X53154519Y29601309D01*
X59465000Y29601309D01*
X59465000Y28760750D01*
X59623750Y28602000D01*
X61873000Y28602000D01*
X61873000Y29951250D01*
X62127000Y29951250D01*
X62127000Y28602000D01*
X64376250Y28602000D01*
X64535000Y28760750D01*
X64535000Y29601309D01*
X64438327Y29834698D01*
X64259699Y30013327D01*
X64026310Y30110000D01*
X62285750Y30110000D01*
X62127000Y29951250D01*
X61873000Y29951250D01*
X61714250Y30110000D01*
X59973690Y30110000D01*
X59740301Y30013327D01*
X59561673Y29834698D01*
X59465000Y29601309D01*
X53154519Y29601309D01*
X53095406Y29898489D01*
X52770550Y30384670D01*
X52455769Y30595000D01*
X52770550Y30805330D01*
X53095406Y31291511D01*
X53209480Y31865000D01*
X53095406Y32438489D01*
X52770550Y32924670D01*
X52455769Y33135000D01*
X52770550Y33345330D01*
X53095406Y33831511D01*
X53209480Y34405000D01*
X53095406Y34978489D01*
X52770550Y35464670D01*
X52455769Y35675000D01*
X52770550Y35885330D01*
X53095406Y36371511D01*
X53209480Y36945000D01*
X53095406Y37518489D01*
X52770550Y38004670D01*
X52455769Y38215000D01*
X52770550Y38425330D01*
X53095406Y38911511D01*
X53209480Y39485000D01*
X53095406Y40058489D01*
X52770550Y40544670D01*
X52455769Y40755000D01*
X52770550Y40965330D01*
X53095406Y41451511D01*
X53209480Y42025000D01*
X53095406Y42598489D01*
X52770550Y43084670D01*
X52455769Y43295000D01*
X52770550Y43505330D01*
X53095406Y43991511D01*
X53209480Y44565000D01*
X53095406Y45138489D01*
X52770550Y45624670D01*
X52455769Y45835000D01*
X52770550Y46045330D01*
X53095406Y46531511D01*
X53209480Y47105000D01*
X53095406Y47678489D01*
X52770550Y48164670D01*
X52455769Y48375000D01*
X52770550Y48585330D01*
X53095406Y49071511D01*
X53209480Y49645000D01*
X53095406Y50218489D01*
X52770550Y50704670D01*
X52455769Y50915000D01*
X52770550Y51125330D01*
X53095406Y51611511D01*
X53209480Y52185000D01*
X53095406Y52758489D01*
X52770550Y53244670D01*
X52455769Y53455000D01*
X52770550Y53665330D01*
X53095406Y54151511D01*
X53209480Y54725000D01*
X53095406Y55298489D01*
X52770550Y55784670D01*
X52417755Y56020400D01*
X52770550Y56256130D01*
X53095406Y56742311D01*
X53209480Y57315800D01*
X53095406Y57889289D01*
X52770550Y58375470D01*
X52284369Y58700326D01*
X51710880Y58814400D01*
X51119120Y58814400D01*
X50545631Y58700326D01*
X50059450Y58375470D01*
X49734594Y57889289D01*
X49620520Y57315800D01*
X37947440Y57315800D01*
X37947440Y58128600D01*
X37903162Y58363917D01*
X37764090Y58580041D01*
X37551890Y58725031D01*
X37300000Y58776040D01*
X35114241Y58776040D01*
X35653201Y59315000D01*
X53154132Y59315000D01*
X54840177Y57628955D01*
X54839760Y57150715D01*
X55050169Y56641485D01*
X55190000Y56501410D01*
X55190000Y49770007D01*
X55189999Y49770002D01*
X55268785Y49373925D01*
X55493144Y49038146D01*
X70040000Y34491291D01*
X70040000Y32825005D01*
X70039999Y32825000D01*
X70118785Y32428923D01*
X70343144Y32093144D01*
X72543142Y29893147D01*
X72543144Y29893144D01*
X72876611Y29670330D01*
X72878923Y29668785D01*
X73275000Y29589999D01*
X73275005Y29590000D01*
X73515000Y29590000D01*
X73515000Y29096192D01*
X73398523Y29021241D01*
X73251890Y29121431D01*
X73000000Y29172440D01*
X71500000Y29172440D01*
X71264683Y29128162D01*
X71048559Y28989090D01*
X70903569Y28776890D01*
X70891869Y28719114D01*
X70851890Y28746431D01*
X70600000Y28797440D01*
X69100000Y28797440D01*
X68864683Y28753162D01*
X68648559Y28614090D01*
X68602031Y28545994D01*
X68459698Y28688327D01*
X68226309Y28785000D01*
X67635750Y28785000D01*
X67477000Y28626250D01*
X67477000Y27652000D01*
X67497000Y27652000D01*
X67497000Y27398000D01*
X67477000Y27398000D01*
X67477000Y26423750D01*
X67635750Y26265000D01*
X68226309Y26265000D01*
X68459698Y26361673D01*
X68600936Y26502910D01*
X68635910Y26448559D01*
X68848110Y26303569D01*
X69100000Y26252560D01*
X70600000Y26252560D01*
X70835317Y26296838D01*
X70888993Y26331377D01*
X70896838Y26289683D01*
X71035910Y26073559D01*
X71215000Y25951192D01*
X71215000Y25778711D01*
X68667922Y23231634D01*
X68639090Y23276441D01*
X68570994Y23322969D01*
X68713327Y23465302D01*
X68810000Y23698691D01*
X68810000Y24289250D01*
X68651250Y24448000D01*
X67677000Y24448000D01*
X67677000Y24428000D01*
X67423000Y24428000D01*
X67423000Y24448000D01*
X66448750Y24448000D01*
X66290000Y24289250D01*
X66290000Y23698691D01*
X66386673Y23465302D01*
X66527910Y23324064D01*
X66473559Y23289090D01*
X66351192Y23110000D01*
X65697440Y23110000D01*
X65697440Y23175000D01*
X65653162Y23410317D01*
X65514090Y23626441D01*
X65301890Y23771431D01*
X65135000Y23805227D01*
X65135000Y24221782D01*
X65071439Y24541323D01*
X64890434Y24812216D01*
X64562216Y25140434D01*
X64291323Y25321439D01*
X63971782Y25385000D01*
X56550000Y25385000D01*
X56230459Y25321439D01*
X55959566Y25140434D01*
X54259566Y23440434D01*
X54078561Y23169541D01*
X54015000Y22850000D01*
X54015000Y8245868D01*
X51204132Y5435000D01*
X39265868Y5435000D01*
X47090434Y13259566D01*
X47124133Y13310000D01*
X47271439Y13530459D01*
X47335000Y13850000D01*
X47335000Y42451564D01*
X47673461Y42789436D01*
X47884759Y43298298D01*
X47885240Y43849285D01*
X47674831Y44358515D01*
X47285564Y44748461D01*
X46776702Y44959759D01*
X46225715Y44960240D01*
X45716485Y44749831D01*
X45326539Y44360564D01*
X45115241Y43851702D01*
X45114760Y43300715D01*
X45325169Y42791485D01*
X45665000Y42451061D01*
X45665000Y14195868D01*
X44710000Y13240868D01*
X44710000Y39076564D01*
X45048461Y39414436D01*
X45259759Y39923298D01*
X45260240Y40474285D01*
X45049831Y40983515D01*
X44660564Y41373461D01*
X44151702Y41584759D01*
X43600715Y41585240D01*
X43091485Y41374831D01*
X42701539Y40985564D01*
X42490241Y40476702D01*
X42489760Y39925715D01*
X42700169Y39416485D01*
X43040000Y39076061D01*
X43040000Y12920868D01*
X37191776Y7072644D01*
X34300907Y7072644D01*
X32727577Y8645974D01*
X34458642Y8645974D01*
X34480473Y8548843D01*
X34764127Y8035132D01*
X35222778Y7669075D01*
X35786600Y7506400D01*
X36048000Y7506400D01*
X36048000Y8878000D01*
X36302000Y8878000D01*
X36302000Y7506400D01*
X36563400Y7506400D01*
X37127222Y7669075D01*
X37585873Y8035132D01*
X37869527Y8548843D01*
X37891358Y8645974D01*
X37770217Y8878000D01*
X36302000Y8878000D01*
X36048000Y8878000D01*
X34579783Y8878000D01*
X34458642Y8645974D01*
X32727577Y8645974D01*
X32428080Y8945470D01*
X32338987Y9005000D01*
X32157187Y9126475D01*
X31837646Y9190036D01*
X20085000Y9190036D01*
X20085000Y10625000D01*
X20021439Y10944541D01*
X19980000Y11006559D01*
X19980000Y11185974D01*
X34458642Y11185974D01*
X34480473Y11088843D01*
X34764127Y10575132D01*
X35140177Y10275000D01*
X34764127Y9974868D01*
X34480473Y9461157D01*
X34458642Y9364026D01*
X34579783Y9132000D01*
X36048000Y9132000D01*
X36048000Y11418000D01*
X36302000Y11418000D01*
X36302000Y9132000D01*
X37770217Y9132000D01*
X37891358Y9364026D01*
X37869527Y9461157D01*
X37585873Y9974868D01*
X37209823Y10275000D01*
X37585873Y10575132D01*
X37869527Y11088843D01*
X37891358Y11185974D01*
X37770217Y11418000D01*
X36302000Y11418000D01*
X36048000Y11418000D01*
X34579783Y11418000D01*
X34458642Y11185974D01*
X19980000Y11185974D01*
X19980000Y11759609D01*
X20328629Y12107630D01*
X20414949Y12315512D01*
X20499990Y12109697D01*
X20892630Y11716371D01*
X21405900Y11503243D01*
X21961661Y11502758D01*
X22475303Y11714990D01*
X22680457Y11919787D01*
X23424392Y11919787D01*
X23493857Y11677603D01*
X24017302Y11490856D01*
X24572368Y11518638D01*
X24956143Y11677603D01*
X25025608Y11919787D01*
X24225000Y12720395D01*
X23424392Y11919787D01*
X22680457Y11919787D01*
X22868629Y12107630D01*
X22948395Y12299727D01*
X23002603Y12168857D01*
X23244787Y12099392D01*
X24045395Y12900000D01*
X24404605Y12900000D01*
X25205213Y12099392D01*
X25447397Y12168857D01*
X25634144Y12692302D01*
X25606362Y13247368D01*
X25447397Y13631143D01*
X25205213Y13700608D01*
X24404605Y12900000D01*
X24045395Y12900000D01*
X23244787Y13700608D01*
X23002603Y13631143D01*
X22952491Y13490682D01*
X22870010Y13690303D01*
X22680432Y13880213D01*
X23424392Y13880213D01*
X24225000Y13079605D01*
X25025608Y13880213D01*
X24956143Y14122397D01*
X24432698Y14309144D01*
X23877632Y14281362D01*
X23493857Y14122397D01*
X23424392Y13880213D01*
X22680432Y13880213D01*
X22504277Y14056675D01*
X22456439Y14297171D01*
X22275434Y14568064D01*
X21628064Y15215434D01*
X21590589Y15240474D01*
X21357171Y15396439D01*
X21037630Y15460000D01*
X15559161Y15460000D01*
X15239621Y15396440D01*
X14968727Y15215434D01*
X13891764Y14138471D01*
X13680460Y14096440D01*
X13409566Y13915434D01*
X13228829Y13734697D01*
X13101890Y13821431D01*
X12850000Y13872440D01*
X11600000Y13872440D01*
X11364683Y13828162D01*
X11148559Y13689090D01*
X11003569Y13476890D01*
X10952560Y13225000D01*
X10952560Y11725000D01*
X10996838Y11489683D01*
X11135910Y11273559D01*
X11204006Y11227031D01*
X11061673Y11084698D01*
X10965000Y10851309D01*
X10965000Y10260750D01*
X11123750Y10102000D01*
X12098000Y10102000D01*
X12098000Y10122000D01*
X12352000Y10122000D01*
X12352000Y10102000D01*
X12372000Y10102000D01*
X12372000Y9848000D01*
X12352000Y9848000D01*
X12352000Y8748750D01*
X12510750Y8590000D01*
X12976310Y8590000D01*
X13209699Y8686673D01*
X13275028Y8752002D01*
X13275028Y7489972D01*
X13338589Y7170431D01*
X13519594Y6899538D01*
X16409566Y4009566D01*
X16680460Y3828560D01*
X17000000Y3765000D01*
X51550000Y3765000D01*
X51869541Y3828561D01*
X52140434Y4009566D01*
X54420118Y6289250D01*
X61265000Y6289250D01*
X61265000Y4698691D01*
X61361673Y4465302D01*
X61540301Y4286673D01*
X61773690Y4190000D01*
X63364250Y4190000D01*
X63523000Y4348750D01*
X63523000Y6448000D01*
X63777000Y6448000D01*
X63777000Y4348750D01*
X63935750Y4190000D01*
X65526310Y4190000D01*
X65759699Y4286673D01*
X65938327Y4465302D01*
X66035000Y4698691D01*
X66035000Y6289250D01*
X65876250Y6448000D01*
X63777000Y6448000D01*
X63523000Y6448000D01*
X61423750Y6448000D01*
X61265000Y6289250D01*
X54420118Y6289250D01*
X55440434Y7309566D01*
X55621440Y7580460D01*
X55685000Y7900000D01*
X55685000Y8451309D01*
X61265000Y8451309D01*
X61265000Y6860750D01*
X61423750Y6702000D01*
X63523000Y6702000D01*
X63523000Y8801250D01*
X63777000Y8801250D01*
X63777000Y6702000D01*
X65876250Y6702000D01*
X66035000Y6860750D01*
X66035000Y7529696D01*
X66061673Y7465302D01*
X66240301Y7286673D01*
X66473690Y7190000D01*
X68064250Y7190000D01*
X68223000Y7348750D01*
X68223000Y9448000D01*
X68477000Y9448000D01*
X68477000Y7348750D01*
X68635750Y7190000D01*
X70226310Y7190000D01*
X70459699Y7286673D01*
X70638327Y7465302D01*
X70735000Y7698691D01*
X70735000Y9289250D01*
X70576250Y9448000D01*
X68477000Y9448000D01*
X68223000Y9448000D01*
X66123750Y9448000D01*
X65965000Y9289250D01*
X65965000Y8620304D01*
X65938327Y8684698D01*
X65759699Y8863327D01*
X65526310Y8960000D01*
X63935750Y8960000D01*
X63777000Y8801250D01*
X63523000Y8801250D01*
X63364250Y8960000D01*
X61773690Y8960000D01*
X61540301Y8863327D01*
X61361673Y8684698D01*
X61265000Y8451309D01*
X55685000Y8451309D01*
X55685000Y19114250D01*
X55965000Y19114250D01*
X55965000Y18523691D01*
X56061673Y18290302D01*
X56240301Y18111673D01*
X56473690Y18015000D01*
X56939250Y18015000D01*
X57098000Y18173750D01*
X57098000Y19273000D01*
X57352000Y19273000D01*
X57352000Y18173750D01*
X57510750Y18015000D01*
X57976310Y18015000D01*
X58209699Y18111673D01*
X58388327Y18290302D01*
X58485000Y18523691D01*
X58485000Y19114250D01*
X58326250Y19273000D01*
X57352000Y19273000D01*
X57098000Y19273000D01*
X56123750Y19273000D01*
X55965000Y19114250D01*
X55685000Y19114250D01*
X55685000Y22504132D01*
X55983461Y22802593D01*
X55952560Y22650000D01*
X55952560Y21150000D01*
X55996838Y20914683D01*
X56135910Y20698559D01*
X56204006Y20652031D01*
X56061673Y20509698D01*
X55965000Y20276309D01*
X55965000Y19685750D01*
X56123750Y19527000D01*
X57098000Y19527000D01*
X57098000Y19547000D01*
X57352000Y19547000D01*
X57352000Y19527000D01*
X58326250Y19527000D01*
X58485000Y19685750D01*
X58485000Y20276309D01*
X58388327Y20509698D01*
X58247090Y20650936D01*
X58301441Y20685910D01*
X58408918Y20843208D01*
X58485910Y20723559D01*
X58665000Y20601192D01*
X58665000Y20375005D01*
X58664999Y20375000D01*
X58743785Y19978923D01*
X58968144Y19643144D01*
X62615000Y15996289D01*
X62615000Y14972440D01*
X61900000Y14972440D01*
X61664683Y14928162D01*
X61448559Y14789090D01*
X61303569Y14576890D01*
X61252560Y14325000D01*
X61252560Y10825000D01*
X61296838Y10589683D01*
X61435910Y10373559D01*
X61648110Y10228569D01*
X61900000Y10177560D01*
X65400000Y10177560D01*
X65635317Y10221838D01*
X65851441Y10360910D01*
X65965000Y10527109D01*
X65965000Y9860750D01*
X66123750Y9702000D01*
X68223000Y9702000D01*
X68223000Y11801250D01*
X68477000Y11801250D01*
X68477000Y9702000D01*
X70576250Y9702000D01*
X70735000Y9860750D01*
X70735000Y11451309D01*
X70638327Y11684698D01*
X70459699Y11863327D01*
X70226310Y11960000D01*
X68635750Y11960000D01*
X68477000Y11801250D01*
X68223000Y11801250D01*
X68064250Y11960000D01*
X66473690Y11960000D01*
X66240301Y11863327D01*
X66061673Y11684698D01*
X66047440Y11650337D01*
X66047440Y14325000D01*
X66003162Y14560317D01*
X65864090Y14776441D01*
X65651890Y14921431D01*
X65400000Y14972440D01*
X64685000Y14972440D01*
X64685000Y16424995D01*
X64685001Y16425000D01*
X64606215Y16821077D01*
X64381856Y17156856D01*
X64381853Y17156858D01*
X60910339Y20628373D01*
X61123690Y20540000D01*
X61714250Y20540000D01*
X61873000Y20698750D01*
X61873000Y22048000D01*
X61853000Y22048000D01*
X61853000Y22302000D01*
X61873000Y22302000D01*
X61873000Y22322000D01*
X62127000Y22322000D01*
X62127000Y22302000D01*
X62147000Y22302000D01*
X62147000Y22048000D01*
X62127000Y22048000D01*
X62127000Y20698750D01*
X62285750Y20540000D01*
X62876310Y20540000D01*
X63109699Y20636673D01*
X63151660Y20678634D01*
X63298110Y20578569D01*
X63550000Y20527560D01*
X65050000Y20527560D01*
X65285317Y20571838D01*
X65501441Y20710910D01*
X65646431Y20923110D01*
X65670102Y21040000D01*
X66353808Y21040000D01*
X66460910Y20873559D01*
X66673110Y20728569D01*
X66925000Y20677560D01*
X68175000Y20677560D01*
X68410317Y20721838D01*
X68626441Y20860910D01*
X68748808Y21040000D01*
X68974995Y21040000D01*
X68975000Y21039999D01*
X69371077Y21118785D01*
X69706856Y21343144D01*
X70588711Y22225000D01*
X72002560Y22225000D01*
X72002560Y20225000D01*
X72046838Y19989683D01*
X72185910Y19773559D01*
X72398110Y19628569D01*
X72650000Y19577560D01*
X76450000Y19577560D01*
X76685317Y19621838D01*
X76901441Y19760910D01*
X77046431Y19973110D01*
X77097440Y20225000D01*
X77097440Y22225000D01*
X77053162Y22460317D01*
X76914090Y22676441D01*
X76701890Y22821431D01*
X76450000Y22872440D01*
X72650000Y22872440D01*
X72414683Y22828162D01*
X72198559Y22689090D01*
X72053569Y22476890D01*
X72002560Y22225000D01*
X70588711Y22225000D01*
X72981853Y24618142D01*
X72981856Y24618144D01*
X73143959Y24860750D01*
X73206215Y24953922D01*
X73285000Y25350000D01*
X73285000Y25953808D01*
X73401477Y26028759D01*
X73548110Y25928569D01*
X73800000Y25877560D01*
X75300000Y25877560D01*
X75535317Y25921838D01*
X75699492Y26027482D01*
X75740301Y25986673D01*
X75973690Y25890000D01*
X76564250Y25890000D01*
X76723000Y26048750D01*
X76723000Y27398000D01*
X76977000Y27398000D01*
X76977000Y26048750D01*
X77135750Y25890000D01*
X77726310Y25890000D01*
X77959699Y25986673D01*
X78138327Y26165302D01*
X78235000Y26398691D01*
X78235000Y27239250D01*
X78076250Y27398000D01*
X76977000Y27398000D01*
X76723000Y27398000D01*
X76703000Y27398000D01*
X76703000Y27652000D01*
X76723000Y27652000D01*
X76723000Y29001250D01*
X76977000Y29001250D01*
X76977000Y27652000D01*
X78076250Y27652000D01*
X78235000Y27810750D01*
X78235000Y28651309D01*
X78138327Y28884698D01*
X77959699Y29063327D01*
X77726310Y29160000D01*
X77135750Y29160000D01*
X76977000Y29001250D01*
X76723000Y29001250D01*
X76564250Y29160000D01*
X75973690Y29160000D01*
X75740301Y29063327D01*
X75698340Y29021366D01*
X75585000Y29098808D01*
X75585000Y29354442D01*
X75810317Y29396838D01*
X76026441Y29535910D01*
X76072969Y29604006D01*
X76215302Y29461673D01*
X76448691Y29365000D01*
X77039250Y29365000D01*
X77198000Y29523750D01*
X77198000Y30498000D01*
X77452000Y30498000D01*
X77452000Y29523750D01*
X77610750Y29365000D01*
X78201309Y29365000D01*
X78434698Y29461673D01*
X78613327Y29640301D01*
X78710000Y29873690D01*
X78710000Y30339250D01*
X78551250Y30498000D01*
X77452000Y30498000D01*
X77198000Y30498000D01*
X77178000Y30498000D01*
X77178000Y30752000D01*
X77198000Y30752000D01*
X77198000Y31726250D01*
X77452000Y31726250D01*
X77452000Y30752000D01*
X78551250Y30752000D01*
X78710000Y30910750D01*
X78710000Y31376310D01*
X78613327Y31609699D01*
X78434698Y31788327D01*
X78201309Y31885000D01*
X77610750Y31885000D01*
X77452000Y31726250D01*
X77198000Y31726250D01*
X77039250Y31885000D01*
X76448691Y31885000D01*
X76215302Y31788327D01*
X76074064Y31647090D01*
X76039090Y31701441D01*
X75826890Y31846431D01*
X75575000Y31897440D01*
X74075000Y31897440D01*
X73839683Y31853162D01*
X73639417Y31724294D01*
X72110000Y33253712D01*
X72110000Y34825715D01*
X75439760Y34825715D01*
X75650169Y34316485D01*
X76039436Y33926539D01*
X76548298Y33715241D01*
X77029311Y33714821D01*
X78913912Y31830220D01*
X78913912Y29618935D01*
X78575451Y29281063D01*
X78364153Y28772201D01*
X78363672Y28221214D01*
X78574081Y27711984D01*
X78963348Y27322038D01*
X79472210Y27110740D01*
X80023197Y27110259D01*
X80532427Y27320668D01*
X80922373Y27709935D01*
X81133671Y28218797D01*
X81134152Y28769784D01*
X80923743Y29279014D01*
X80583912Y29619438D01*
X80583912Y32176088D01*
X80520351Y32495629D01*
X80339346Y32766522D01*
X78209823Y34896045D01*
X78210187Y35314250D01*
X80065000Y35314250D01*
X80065000Y34723691D01*
X80161673Y34490302D01*
X80340301Y34311673D01*
X80573690Y34215000D01*
X81039250Y34215000D01*
X81198000Y34373750D01*
X81198000Y35473000D01*
X81452000Y35473000D01*
X81452000Y34373750D01*
X81610750Y34215000D01*
X82076310Y34215000D01*
X82309699Y34311673D01*
X82488327Y34490302D01*
X82585000Y34723691D01*
X82585000Y35314250D01*
X82426250Y35473000D01*
X81452000Y35473000D01*
X81198000Y35473000D01*
X80223750Y35473000D01*
X80065000Y35314250D01*
X78210187Y35314250D01*
X78210240Y35374285D01*
X77999831Y35883515D01*
X77610564Y36273461D01*
X77101702Y36484759D01*
X76550715Y36485240D01*
X76041485Y36274831D01*
X75651539Y35885564D01*
X75440241Y35376702D01*
X75439760Y34825715D01*
X72110000Y34825715D01*
X72110000Y35601216D01*
X72248461Y35739436D01*
X72459759Y36248298D01*
X72460179Y36729311D01*
X73623725Y37892857D01*
X76010789Y37892857D01*
X76348661Y37554396D01*
X76857523Y37343098D01*
X77408510Y37342617D01*
X77917740Y37553026D01*
X78307686Y37942293D01*
X78518984Y38451155D01*
X78519404Y38932168D01*
X79277236Y39690000D01*
X81609132Y39690000D01*
X81416572Y39497440D01*
X80700000Y39497440D01*
X80464683Y39453162D01*
X80248559Y39314090D01*
X80103569Y39101890D01*
X80052560Y38850000D01*
X80052560Y37350000D01*
X80096838Y37114683D01*
X80235910Y36898559D01*
X80304006Y36852031D01*
X80161673Y36709698D01*
X80065000Y36476309D01*
X80065000Y35885750D01*
X80223750Y35727000D01*
X81198000Y35727000D01*
X81198000Y35747000D01*
X81452000Y35747000D01*
X81452000Y35727000D01*
X82426250Y35727000D01*
X82585000Y35885750D01*
X82585000Y36476309D01*
X82488327Y36709698D01*
X82347090Y36850936D01*
X82401441Y36885910D01*
X82546431Y37098110D01*
X82597440Y37350000D01*
X82597440Y38316572D01*
X83420675Y39139807D01*
X83474285Y39139760D01*
X83983515Y39350169D01*
X84187671Y39553969D01*
X84116392Y635649D01*
X710539Y709373D01*
X714235Y5750715D01*
X4214760Y5750715D01*
X4425169Y5241485D01*
X4814436Y4851539D01*
X5323298Y4640241D01*
X5874285Y4639760D01*
X6383515Y4850169D01*
X6773461Y5239436D01*
X6984759Y5748298D01*
X6985240Y6299285D01*
X6774831Y6808515D01*
X6385564Y7198461D01*
X5876702Y7409759D01*
X5325715Y7410240D01*
X4816485Y7199831D01*
X4426539Y6810564D01*
X4215241Y6301702D01*
X4214760Y5750715D01*
X714235Y5750715D01*
X717122Y9689250D01*
X10965000Y9689250D01*
X10965000Y9098691D01*
X11061673Y8865302D01*
X11240301Y8686673D01*
X11473690Y8590000D01*
X11939250Y8590000D01*
X12098000Y8748750D01*
X12098000Y9848000D01*
X11123750Y9848000D01*
X10965000Y9689250D01*
X717122Y9689250D01*
X725931Y21705000D01*
X34380520Y21705000D01*
X34494594Y21131511D01*
X34819450Y20645330D01*
X35134231Y20435000D01*
X34819450Y20224670D01*
X34494594Y19738489D01*
X34380520Y19165000D01*
X34494594Y18591511D01*
X34819450Y18105330D01*
X35134231Y17895000D01*
X34819450Y17684670D01*
X34494594Y17198489D01*
X34380520Y16625000D01*
X34494594Y16051511D01*
X34819450Y15565330D01*
X35134231Y15355000D01*
X34819450Y15144670D01*
X34494594Y14658489D01*
X34380520Y14085000D01*
X34494594Y13511511D01*
X34819450Y13025330D01*
X35137468Y12812837D01*
X34764127Y12514868D01*
X34480473Y12001157D01*
X34458642Y11904026D01*
X34579783Y11672000D01*
X36048000Y11672000D01*
X36048000Y11692000D01*
X36302000Y11692000D01*
X36302000Y11672000D01*
X37770217Y11672000D01*
X37891358Y11904026D01*
X37869527Y12001157D01*
X37585873Y12514868D01*
X37212532Y12812837D01*
X37530550Y13025330D01*
X37855406Y13511511D01*
X37969480Y14085000D01*
X37855406Y14658489D01*
X37530550Y15144670D01*
X37215769Y15355000D01*
X37530550Y15565330D01*
X37855406Y16051511D01*
X37969480Y16625000D01*
X37855406Y17198489D01*
X37530550Y17684670D01*
X37215769Y17895000D01*
X37530550Y18105330D01*
X37855406Y18591511D01*
X37969480Y19165000D01*
X37855406Y19738489D01*
X37530550Y20224670D01*
X37215769Y20435000D01*
X37530550Y20645330D01*
X37855406Y21131511D01*
X37969480Y21705000D01*
X37855406Y22278489D01*
X37530550Y22764670D01*
X37212532Y22977163D01*
X37585873Y23275132D01*
X37869527Y23788843D01*
X37891358Y23885974D01*
X37770217Y24118000D01*
X36302000Y24118000D01*
X36302000Y24098000D01*
X36048000Y24098000D01*
X36048000Y24118000D01*
X34579783Y24118000D01*
X34458642Y23885974D01*
X34480473Y23788843D01*
X34764127Y23275132D01*
X35137468Y22977163D01*
X34819450Y22764670D01*
X34494594Y22278489D01*
X34380520Y21705000D01*
X725931Y21705000D01*
X734927Y33975000D01*
X9727560Y33975000D01*
X9727560Y28975000D01*
X9771838Y28739683D01*
X9910910Y28523559D01*
X10123110Y28378569D01*
X10375000Y28327560D01*
X15375000Y28327560D01*
X15610317Y28371838D01*
X15826441Y28510910D01*
X15971431Y28723110D01*
X16022440Y28975000D01*
X16022440Y30223478D01*
X23651532Y30223478D01*
X23651532Y29632919D01*
X23748205Y29399530D01*
X23926833Y29220901D01*
X24160222Y29124228D01*
X24625782Y29124228D01*
X24784532Y29282978D01*
X24784532Y30382228D01*
X25038532Y30382228D01*
X25038532Y29282978D01*
X25197282Y29124228D01*
X25662842Y29124228D01*
X25896231Y29220901D01*
X25965549Y29290220D01*
X26185222Y29199228D01*
X26650782Y29199228D01*
X26809532Y29357978D01*
X26809532Y30457228D01*
X27063532Y30457228D01*
X27063532Y29357978D01*
X27222282Y29199228D01*
X27687842Y29199228D01*
X27921231Y29295901D01*
X28099859Y29474530D01*
X28196532Y29707919D01*
X28196532Y30298478D01*
X28037782Y30457228D01*
X27063532Y30457228D01*
X26809532Y30457228D01*
X25835282Y30457228D01*
X25760282Y30382228D01*
X25038532Y30382228D01*
X24784532Y30382228D01*
X23810282Y30382228D01*
X23651532Y30223478D01*
X16022440Y30223478D01*
X16022440Y33975000D01*
X15978162Y34210317D01*
X15839090Y34426441D01*
X15626890Y34571431D01*
X15375000Y34622440D01*
X10375000Y34622440D01*
X10139683Y34578162D01*
X9923559Y34439090D01*
X9778569Y34226890D01*
X9727560Y33975000D01*
X734927Y33975000D01*
X742876Y44818279D01*
X9730655Y44818279D01*
X10537949Y42773182D01*
X12066416Y41192697D01*
X14083361Y40317438D01*
X14268279Y40280657D01*
X15148000Y40350223D01*
X15148000Y45698000D01*
X9800179Y45698000D01*
X9730655Y44818279D01*
X742876Y44818279D01*
X744352Y46831721D01*
X9730655Y46831721D01*
X9800179Y45952000D01*
X15148000Y45952000D01*
X15148000Y51299777D01*
X15402000Y51299777D01*
X15402000Y45952000D01*
X15422000Y45952000D01*
X15422000Y45698000D01*
X15402000Y45698000D01*
X15402000Y40350223D01*
X16281721Y40280657D01*
X16466639Y40317438D01*
X18483584Y41192697D01*
X19877560Y42634114D01*
X19877560Y40925000D01*
X19921838Y40689683D01*
X20060910Y40473559D01*
X20273110Y40328569D01*
X20525000Y40277560D01*
X21525000Y40277560D01*
X21760317Y40321838D01*
X21976441Y40460910D01*
X22121431Y40673110D01*
X22172440Y40925000D01*
X22172440Y50925000D01*
X22128162Y51160317D01*
X21989090Y51376441D01*
X21776890Y51521431D01*
X21525000Y51572440D01*
X20525000Y51572440D01*
X20289683Y51528162D01*
X20073559Y51389090D01*
X19928569Y51176890D01*
X19877560Y50925000D01*
X19877560Y49015886D01*
X18483584Y50457303D01*
X16466639Y51332562D01*
X16281721Y51369343D01*
X15402000Y51299777D01*
X15148000Y51299777D01*
X14268279Y51369343D01*
X14083361Y51332562D01*
X12066416Y50457303D01*
X10537949Y48876818D01*
X9730655Y46831721D01*
X744352Y46831721D01*
X757251Y64425000D01*
X9777560Y64425000D01*
X9777560Y59425000D01*
X9821838Y59189683D01*
X9960910Y58973559D01*
X10173110Y58828569D01*
X10425000Y58777560D01*
X15425000Y58777560D01*
X15660317Y58821838D01*
X15876441Y58960910D01*
X16021431Y59173110D01*
X16072440Y59425000D01*
X16072440Y61340000D01*
X26253456Y61340000D01*
X26572997Y61403561D01*
X26843890Y61584566D01*
X27429980Y62170656D01*
X27908220Y62170239D01*
X28417450Y62380648D01*
X28807396Y62769915D01*
X29018694Y63278777D01*
X29019175Y63829764D01*
X28808766Y64338994D01*
X28419499Y64728940D01*
X27910637Y64940238D01*
X27359650Y64940719D01*
X26850420Y64730310D01*
X26460474Y64341043D01*
X26249176Y63832181D01*
X26248756Y63351168D01*
X25907588Y63010000D01*
X16072440Y63010000D01*
X16072440Y64425000D01*
X16028162Y64660317D01*
X15889090Y64876441D01*
X15676890Y65021431D01*
X15425000Y65072440D01*
X10425000Y65072440D01*
X10189683Y65028162D01*
X9973559Y64889090D01*
X9828569Y64676890D01*
X9777560Y64425000D01*
X757251Y64425000D01*
X759421Y67385000D01*
X57968571Y67385000D01*
X57968571Y63565000D01*
X63381428Y63565000D01*
X63381428Y67385000D01*
X66225714Y67385000D01*
X66225714Y63565000D01*
X68924285Y63565000D01*
X68924285Y67385000D01*
X66225714Y67385000D01*
X63381428Y67385000D01*
X57968571Y67385000D01*
X759421Y67385000D01*
X759480Y67464615D01*
X73350714Y67400318D01*
X73350714Y67400318D01*
G37*
X73350714Y67400318D02*
X73350714Y63690000D01*
X76049285Y63690000D01*
X76049285Y67397927D01*
X79875714Y67394538D01*
X79875714Y63740000D01*
X82574285Y63740000D01*
X82574285Y67392148D01*
X84238654Y67390674D01*
X84191221Y41492445D01*
X83985564Y41698461D01*
X83476702Y41909759D01*
X82925715Y41910240D01*
X82416485Y41699831D01*
X82076061Y41360000D01*
X78931368Y41360000D01*
X78611827Y41296439D01*
X78497440Y41220008D01*
X78497440Y42150000D01*
X78453162Y42385317D01*
X78314090Y42601441D01*
X78245994Y42647969D01*
X78388327Y42790302D01*
X78485000Y43023691D01*
X78485000Y43614250D01*
X78326250Y43773000D01*
X77352000Y43773000D01*
X77352000Y43753000D01*
X77098000Y43753000D01*
X77098000Y43773000D01*
X76123750Y43773000D01*
X75965000Y43614250D01*
X75965000Y43023691D01*
X76061673Y42790302D01*
X76202910Y42649064D01*
X76148559Y42614090D01*
X76003569Y42401890D01*
X75952560Y42150000D01*
X75952560Y40650000D01*
X75996838Y40414683D01*
X76135910Y40198559D01*
X76348110Y40053569D01*
X76390000Y40045086D01*
X76390000Y39918922D01*
X76350710Y39902688D01*
X76010286Y39562857D01*
X73277857Y39562857D01*
X72958316Y39499296D01*
X72770365Y39373711D01*
X72687423Y39318291D01*
X72222440Y38853308D01*
X72222440Y40275000D01*
X72178162Y40510317D01*
X72039090Y40726441D01*
X71970994Y40772969D01*
X72113327Y40915302D01*
X72210000Y41148691D01*
X72210000Y41739250D01*
X72051250Y41898000D01*
X71077000Y41898000D01*
X71077000Y41878000D01*
X70823000Y41878000D01*
X70823000Y41898000D01*
X69848750Y41898000D01*
X69690000Y41739250D01*
X69690000Y41148691D01*
X69786673Y40915302D01*
X69927910Y40774064D01*
X69873559Y40739090D01*
X69728569Y40526890D01*
X69677560Y40275000D01*
X69677560Y38775000D01*
X69721838Y38539683D01*
X69860910Y38323559D01*
X70073110Y38178569D01*
X70165000Y38159961D01*
X70165000Y37573566D01*
X70024952Y37433762D01*
X64557405Y42901309D01*
X69690000Y42901309D01*
X69690000Y42310750D01*
X69848750Y42152000D01*
X70823000Y42152000D01*
X70823000Y43251250D01*
X71077000Y43251250D01*
X71077000Y42152000D01*
X72051250Y42152000D01*
X72210000Y42310750D01*
X72210000Y42901309D01*
X72113327Y43134698D01*
X71934699Y43313327D01*
X71701310Y43410000D01*
X71235750Y43410000D01*
X71077000Y43251250D01*
X70823000Y43251250D01*
X70664250Y43410000D01*
X70198690Y43410000D01*
X69965301Y43313327D01*
X69786673Y43134698D01*
X69690000Y42901309D01*
X64557405Y42901309D01*
X62682405Y44776309D01*
X75965000Y44776309D01*
X75965000Y44185750D01*
X76123750Y44027000D01*
X77098000Y44027000D01*
X77098000Y45126250D01*
X77352000Y45126250D01*
X77352000Y44027000D01*
X78326250Y44027000D01*
X78485000Y44185750D01*
X78485000Y44776309D01*
X78388327Y45009698D01*
X78209699Y45188327D01*
X77976310Y45285000D01*
X77510750Y45285000D01*
X77352000Y45126250D01*
X77098000Y45126250D01*
X76939250Y45285000D01*
X76473690Y45285000D01*
X76240301Y45188327D01*
X76061673Y45009698D01*
X75965000Y44776309D01*
X62682405Y44776309D01*
X57260000Y50198714D01*
X57260000Y56501216D01*
X57398461Y56639436D01*
X57609759Y57148298D01*
X57610240Y57699285D01*
X57399831Y58208515D01*
X57039329Y58569646D01*
X58880381Y58569646D01*
X59077013Y58094916D01*
X59510274Y57626932D01*
X60089645Y57360373D01*
X60343000Y57479193D01*
X60343000Y58823000D01*
X58999735Y58823000D01*
X58880381Y58569646D01*
X57039329Y58569646D01*
X57010564Y58598461D01*
X56501702Y58809759D01*
X56020689Y58810179D01*
X55500514Y59330354D01*
X58880381Y59330354D01*
X58999735Y59077000D01*
X60343000Y59077000D01*
X60343000Y60420807D01*
X60597000Y60420807D01*
X60597000Y59077000D01*
X60617000Y59077000D01*
X60617000Y58823000D01*
X60597000Y58823000D01*
X60597000Y57479193D01*
X60850355Y57360373D01*
X61429726Y57626932D01*
X61722621Y57943300D01*
X61822219Y57794241D01*
X62352486Y57439928D01*
X62977978Y57315510D01*
X63042022Y57315510D01*
X63667514Y57439928D01*
X64197781Y57794241D01*
X64280000Y57917290D01*
X64362219Y57794241D01*
X64892486Y57439928D01*
X65517978Y57315510D01*
X65582022Y57315510D01*
X66207514Y57439928D01*
X66527077Y57653453D01*
X66626420Y57499069D01*
X66838620Y57354079D01*
X67090510Y57303070D01*
X69089490Y57303070D01*
X69324807Y57347348D01*
X69540931Y57486420D01*
X69685921Y57698620D01*
X69736930Y57950510D01*
X69736930Y59100000D01*
X71678488Y59100000D01*
X71802906Y58474508D01*
X72157219Y57944241D01*
X72687486Y57589928D01*
X73312978Y57465510D01*
X73377022Y57465510D01*
X74002514Y57589928D01*
X74532781Y57944241D01*
X74615000Y58067290D01*
X74697219Y57944241D01*
X75227486Y57589928D01*
X75852978Y57465510D01*
X75917022Y57465510D01*
X76542514Y57589928D01*
X77072781Y57944241D01*
X77155000Y58067290D01*
X77237219Y57944241D01*
X77767486Y57589928D01*
X78392978Y57465510D01*
X78457022Y57465510D01*
X79082514Y57589928D01*
X79402077Y57803453D01*
X79501420Y57649069D01*
X79713620Y57504079D01*
X79965510Y57453070D01*
X81964490Y57453070D01*
X82199807Y57497348D01*
X82415931Y57636420D01*
X82560921Y57848620D01*
X82611930Y58100510D01*
X82611930Y60099490D01*
X82567652Y60334807D01*
X82428580Y60550931D01*
X82216380Y60695921D01*
X81964490Y60746930D01*
X79965510Y60746930D01*
X79730193Y60702652D01*
X79514069Y60563580D01*
X79400610Y60397527D01*
X79082514Y60610072D01*
X78457022Y60734490D01*
X78392978Y60734490D01*
X77767486Y60610072D01*
X77237219Y60255759D01*
X77155000Y60132710D01*
X77072781Y60255759D01*
X76542514Y60610072D01*
X75917022Y60734490D01*
X75852978Y60734490D01*
X75227486Y60610072D01*
X74697219Y60255759D01*
X74615000Y60132710D01*
X74532781Y60255759D01*
X74002514Y60610072D01*
X73377022Y60734490D01*
X73312978Y60734490D01*
X72687486Y60610072D01*
X72157219Y60255759D01*
X71802906Y59725492D01*
X71678488Y59100000D01*
X69736930Y59100000D01*
X69736930Y59949490D01*
X69692652Y60184807D01*
X69553580Y60400931D01*
X69341380Y60545921D01*
X69089490Y60596930D01*
X67090510Y60596930D01*
X66855193Y60552652D01*
X66639069Y60413580D01*
X66525610Y60247527D01*
X66207514Y60460072D01*
X65582022Y60584490D01*
X65517978Y60584490D01*
X64892486Y60460072D01*
X64362219Y60105759D01*
X64280000Y59982710D01*
X64197781Y60105759D01*
X63667514Y60460072D01*
X63042022Y60584490D01*
X62977978Y60584490D01*
X62352486Y60460072D01*
X61822219Y60105759D01*
X61722621Y59956700D01*
X61429726Y60273068D01*
X60850355Y60539627D01*
X60597000Y60420807D01*
X60343000Y60420807D01*
X60089645Y60539627D01*
X59510274Y60273068D01*
X59077013Y59805084D01*
X58880381Y59330354D01*
X55500514Y59330354D01*
X54090434Y60740434D01*
X54080712Y60746930D01*
X53819541Y60921439D01*
X53500000Y60985000D01*
X35307333Y60985000D01*
X34987792Y60921439D01*
X34726621Y60746930D01*
X34716899Y60740434D01*
X33139302Y59162837D01*
X32958297Y58891944D01*
X32894736Y58572403D01*
X32894736Y43808633D01*
X27666923Y38580820D01*
X27612626Y38544540D01*
X27606481Y38540434D01*
X26624626Y37558579D01*
X26146386Y37558996D01*
X25637156Y37348587D01*
X25247210Y36959320D01*
X25035912Y36450458D01*
X25035431Y35899471D01*
X25245840Y35390241D01*
X25635107Y35000295D01*
X26101532Y34806618D01*
X26101532Y34442154D01*
X26076215Y34437390D01*
X25866401Y34302378D01*
X25788422Y34355659D01*
X25536532Y34406668D01*
X24286532Y34406668D01*
X24051215Y34362390D01*
X23835091Y34223318D01*
X23690101Y34011118D01*
X23639092Y33759228D01*
X23639092Y32259228D01*
X23683370Y32023911D01*
X23822442Y31807787D01*
X23890538Y31761259D01*
X23748205Y31618926D01*
X23651532Y31385537D01*
X23651532Y30794978D01*
X23810282Y30636228D01*
X24784532Y30636228D01*
X24784532Y30656228D01*
X25038532Y30656228D01*
X25038532Y30636228D01*
X26012782Y30636228D01*
X26087782Y30711228D01*
X26809532Y30711228D01*
X26809532Y30731228D01*
X27063532Y30731228D01*
X27063532Y30711228D01*
X28037782Y30711228D01*
X28196532Y30869978D01*
X28196532Y31460537D01*
X28099859Y31693926D01*
X27958622Y31835164D01*
X28012973Y31870138D01*
X28157963Y32082338D01*
X28208972Y32334228D01*
X28208972Y33834228D01*
X28164694Y34069545D01*
X28025622Y34285669D01*
X27813422Y34430659D01*
X27771532Y34439142D01*
X27771532Y35657895D01*
X27757786Y35727000D01*
X27750347Y35764400D01*
X27805430Y35897054D01*
X27805850Y36378067D01*
X28746963Y37319180D01*
X28807405Y37359566D01*
X34320170Y42872331D01*
X34339532Y42901309D01*
X34501175Y43143224D01*
X34564736Y43462765D01*
X34564736Y43886536D01*
X34819450Y43505330D01*
X35134231Y43295000D01*
X34819450Y43084670D01*
X34494594Y42598489D01*
X34380520Y42025000D01*
X34494594Y41451511D01*
X34819450Y40965330D01*
X35134231Y40755000D01*
X34819450Y40544670D01*
X34494594Y40058489D01*
X34380520Y39485000D01*
X34494594Y38911511D01*
X34819450Y38425330D01*
X35134231Y38215000D01*
X34819450Y38004670D01*
X34494594Y37518489D01*
X34380520Y36945000D01*
X34494594Y36371511D01*
X34819450Y35885330D01*
X35134231Y35675000D01*
X34819450Y35464670D01*
X34494594Y34978489D01*
X34380520Y34405000D01*
X34494594Y33831511D01*
X34819450Y33345330D01*
X35134231Y33135000D01*
X34819450Y32924670D01*
X34494594Y32438489D01*
X34380520Y31865000D01*
X34494594Y31291511D01*
X34819450Y30805330D01*
X35134231Y30595000D01*
X34819450Y30384670D01*
X34494594Y29898489D01*
X34380520Y29325000D01*
X34494594Y28751511D01*
X34819450Y28265330D01*
X35134231Y28055000D01*
X34819450Y27844670D01*
X34494594Y27358489D01*
X34380520Y26785000D01*
X34494594Y26211511D01*
X34819450Y25725330D01*
X35137468Y25512837D01*
X34764127Y25214868D01*
X34480473Y24701157D01*
X34458642Y24604026D01*
X34579783Y24372000D01*
X36048000Y24372000D01*
X36048000Y24392000D01*
X36302000Y24392000D01*
X36302000Y24372000D01*
X37770217Y24372000D01*
X37891358Y24604026D01*
X37869527Y24701157D01*
X37585873Y25214868D01*
X37212532Y25512837D01*
X37530550Y25725330D01*
X37855406Y26211511D01*
X37969480Y26785000D01*
X37855406Y27358489D01*
X37530550Y27844670D01*
X37215769Y28055000D01*
X37530550Y28265330D01*
X37855406Y28751511D01*
X37969480Y29325000D01*
X37855406Y29898489D01*
X37530550Y30384670D01*
X37215769Y30595000D01*
X37530550Y30805330D01*
X37855406Y31291511D01*
X37969480Y31865000D01*
X37855406Y32438489D01*
X37530550Y32924670D01*
X37215769Y33135000D01*
X37530550Y33345330D01*
X37855406Y33831511D01*
X37969480Y34405000D01*
X37855406Y34978489D01*
X37530550Y35464670D01*
X37215769Y35675000D01*
X37530550Y35885330D01*
X37855406Y36371511D01*
X37969480Y36945000D01*
X37855406Y37518489D01*
X37530550Y38004670D01*
X37215769Y38215000D01*
X37530550Y38425330D01*
X37855406Y38911511D01*
X37969480Y39485000D01*
X37855406Y40058489D01*
X37530550Y40544670D01*
X37215769Y40755000D01*
X37530550Y40965330D01*
X37855406Y41451511D01*
X37969480Y42025000D01*
X37855406Y42598489D01*
X37530550Y43084670D01*
X37215769Y43295000D01*
X37530550Y43505330D01*
X37855406Y43991511D01*
X37969480Y44565000D01*
X37855406Y45138489D01*
X37530550Y45624670D01*
X37215769Y45835000D01*
X37530550Y46045330D01*
X37855406Y46531511D01*
X37969480Y47105000D01*
X37855406Y47678489D01*
X37530550Y48164670D01*
X37215769Y48375000D01*
X37530550Y48585330D01*
X37855406Y49071511D01*
X37969480Y49645000D01*
X37855406Y50218489D01*
X37530550Y50704670D01*
X37215769Y50915000D01*
X37530550Y51125330D01*
X37855406Y51611511D01*
X37969480Y52185000D01*
X37855406Y52758489D01*
X37530550Y53244670D01*
X37215769Y53455000D01*
X37259707Y53484359D01*
X41036400Y53484359D01*
X41036400Y53425641D01*
X41150474Y52852152D01*
X41475330Y52365971D01*
X41961511Y52041115D01*
X42535000Y51927041D01*
X43108489Y52041115D01*
X43594670Y52365971D01*
X43805000Y52680752D01*
X44015330Y52365971D01*
X44501511Y52041115D01*
X45075000Y51927041D01*
X45648489Y52041115D01*
X46134670Y52365971D01*
X46459526Y52852152D01*
X46573600Y53425641D01*
X46573600Y53484359D01*
X46459526Y54057848D01*
X46134670Y54544029D01*
X45648489Y54868885D01*
X45075000Y54982959D01*
X44501511Y54868885D01*
X44015330Y54544029D01*
X43805000Y54229248D01*
X43594670Y54544029D01*
X43108489Y54868885D01*
X42535000Y54982959D01*
X41961511Y54868885D01*
X41475330Y54544029D01*
X41150474Y54057848D01*
X41036400Y53484359D01*
X37259707Y53484359D01*
X37530550Y53665330D01*
X37855406Y54151511D01*
X37969480Y54725000D01*
X37855406Y55298489D01*
X37530550Y55784670D01*
X37515753Y55794557D01*
X37535317Y55798238D01*
X37751441Y55937310D01*
X37896431Y56149510D01*
X37947440Y56401400D01*
X37947440Y57315800D01*
X49620520Y57315800D01*
X49734594Y56742311D01*
X50059450Y56256130D01*
X50412245Y56020400D01*
X50059450Y55784670D01*
X49734594Y55298489D01*
X49620520Y54725000D01*
X49734594Y54151511D01*
X50059450Y53665330D01*
X50374231Y53455000D01*
X50059450Y53244670D01*
X49734594Y52758489D01*
X49620520Y52185000D01*
X49734594Y51611511D01*
X50059450Y51125330D01*
X50374231Y50915000D01*
X50059450Y50704670D01*
X49734594Y50218489D01*
X49620520Y49645000D01*
X49734594Y49071511D01*
X50059450Y48585330D01*
X50374231Y48375000D01*
X50059450Y48164670D01*
X49734594Y47678489D01*
X49620520Y47105000D01*
X49734594Y46531511D01*
X50059450Y46045330D01*
X50374231Y45835000D01*
X50059450Y45624670D01*
X49734594Y45138489D01*
X49620520Y44565000D01*
X49734594Y43991511D01*
X50059450Y43505330D01*
X50374231Y43295000D01*
X50059450Y43084670D01*
X49734594Y42598489D01*
X49620520Y42025000D01*
X49734594Y41451511D01*
X50059450Y40965330D01*
X50374231Y40755000D01*
X50059450Y40544670D01*
X49734594Y40058489D01*
X49620520Y39485000D01*
X49734594Y38911511D01*
X50059450Y38425330D01*
X50374231Y38215000D01*
X50059450Y38004670D01*
X49734594Y37518489D01*
X49620520Y36945000D01*
X49734594Y36371511D01*
X50059450Y35885330D01*
X50374231Y35675000D01*
X50059450Y35464670D01*
X49734594Y34978489D01*
X49620520Y34405000D01*
X49734594Y33831511D01*
X50059450Y33345330D01*
X50374231Y33135000D01*
X50059450Y32924670D01*
X49734594Y32438489D01*
X49620520Y31865000D01*
X49734594Y31291511D01*
X50059450Y30805330D01*
X50374231Y30595000D01*
X50059450Y30384670D01*
X49734594Y29898489D01*
X49620520Y29325000D01*
X49734594Y28751511D01*
X50059450Y28265330D01*
X50374231Y28055000D01*
X50059450Y27844670D01*
X49734594Y27358489D01*
X49620520Y26785000D01*
X49734594Y26211511D01*
X50059450Y25725330D01*
X50374231Y25515000D01*
X50059450Y25304670D01*
X49734594Y24818489D01*
X49620520Y24245000D01*
X49734594Y23671511D01*
X50059450Y23185330D01*
X50374231Y22975000D01*
X50059450Y22764670D01*
X49734594Y22278489D01*
X49620520Y21705000D01*
X49734594Y21131511D01*
X50059450Y20645330D01*
X50374231Y20435000D01*
X50059450Y20224670D01*
X49734594Y19738489D01*
X49620520Y19165000D01*
X49734594Y18591511D01*
X50059450Y18105330D01*
X50374231Y17895000D01*
X50059450Y17684670D01*
X49734594Y17198489D01*
X49620520Y16625000D01*
X49734594Y16051511D01*
X50059450Y15565330D01*
X50374231Y15355000D01*
X50059450Y15144670D01*
X49734594Y14658489D01*
X49620520Y14085000D01*
X49734594Y13511511D01*
X50059450Y13025330D01*
X50374231Y12815000D01*
X50059450Y12604670D01*
X49734594Y12118489D01*
X49620520Y11545000D01*
X49734594Y10971511D01*
X50059450Y10485330D01*
X50374231Y10275000D01*
X50059450Y10064670D01*
X49734594Y9578489D01*
X49620520Y9005000D01*
X49734594Y8431511D01*
X50059450Y7945330D01*
X50545631Y7620474D01*
X51119120Y7506400D01*
X51710880Y7506400D01*
X52284369Y7620474D01*
X52770550Y7945330D01*
X53095406Y8431511D01*
X53209480Y9005000D01*
X53095406Y9578489D01*
X52770550Y10064670D01*
X52455769Y10275000D01*
X52770550Y10485330D01*
X53095406Y10971511D01*
X53209480Y11545000D01*
X53095406Y12118489D01*
X52770550Y12604670D01*
X52455769Y12815000D01*
X52770550Y13025330D01*
X53095406Y13511511D01*
X53209480Y14085000D01*
X53095406Y14658489D01*
X52770550Y15144670D01*
X52455769Y15355000D01*
X52770550Y15565330D01*
X53095406Y16051511D01*
X53209480Y16625000D01*
X53095406Y17198489D01*
X52770550Y17684670D01*
X52455769Y17895000D01*
X52770550Y18105330D01*
X53095406Y18591511D01*
X53209480Y19165000D01*
X53095406Y19738489D01*
X52770550Y20224670D01*
X52455769Y20435000D01*
X52770550Y20645330D01*
X53095406Y21131511D01*
X53209480Y21705000D01*
X53095406Y22278489D01*
X52770550Y22764670D01*
X52455769Y22975000D01*
X52770550Y23185330D01*
X53095406Y23671511D01*
X53209480Y24245000D01*
X53095406Y24818489D01*
X52770550Y25304670D01*
X52551090Y25451309D01*
X66290000Y25451309D01*
X66290000Y24860750D01*
X66448750Y24702000D01*
X67423000Y24702000D01*
X67423000Y25801250D01*
X67677000Y25801250D01*
X67677000Y24702000D01*
X68651250Y24702000D01*
X68810000Y24860750D01*
X68810000Y25451309D01*
X68713327Y25684698D01*
X68534699Y25863327D01*
X68301310Y25960000D01*
X67835750Y25960000D01*
X67677000Y25801250D01*
X67423000Y25801250D01*
X67264250Y25960000D01*
X66798690Y25960000D01*
X66565301Y25863327D01*
X66386673Y25684698D01*
X66290000Y25451309D01*
X52551090Y25451309D01*
X52455769Y25515000D01*
X52770550Y25725330D01*
X53095406Y26211511D01*
X53209480Y26785000D01*
X53095406Y27358489D01*
X52770550Y27844670D01*
X52455769Y28055000D01*
X52656688Y28189250D01*
X59465000Y28189250D01*
X59465000Y27348691D01*
X59561673Y27115302D01*
X59740301Y26936673D01*
X59973690Y26840000D01*
X61714250Y26840000D01*
X61873000Y26998750D01*
X61873000Y28348000D01*
X62127000Y28348000D01*
X62127000Y26998750D01*
X62285750Y26840000D01*
X64026310Y26840000D01*
X64259699Y26936673D01*
X64438327Y27115302D01*
X64489668Y27239250D01*
X65965000Y27239250D01*
X65965000Y26773690D01*
X66061673Y26540301D01*
X66240302Y26361673D01*
X66473691Y26265000D01*
X67064250Y26265000D01*
X67223000Y26423750D01*
X67223000Y27398000D01*
X66123750Y27398000D01*
X65965000Y27239250D01*
X64489668Y27239250D01*
X64535000Y27348691D01*
X64535000Y28189250D01*
X64447940Y28276310D01*
X65965000Y28276310D01*
X65965000Y27810750D01*
X66123750Y27652000D01*
X67223000Y27652000D01*
X67223000Y28626250D01*
X67064250Y28785000D01*
X66473691Y28785000D01*
X66240302Y28688327D01*
X66061673Y28509699D01*
X65965000Y28276310D01*
X64447940Y28276310D01*
X64376250Y28348000D01*
X62127000Y28348000D01*
X61873000Y28348000D01*
X59623750Y28348000D01*
X59465000Y28189250D01*
X52656688Y28189250D01*
X52770550Y28265330D01*
X53095406Y28751511D01*
X53209480Y29325000D01*
X53154519Y29601309D01*
X59465000Y29601309D01*
X59465000Y28760750D01*
X59623750Y28602000D01*
X61873000Y28602000D01*
X61873000Y29951250D01*
X62127000Y29951250D01*
X62127000Y28602000D01*
X64376250Y28602000D01*
X64535000Y28760750D01*
X64535000Y29601309D01*
X64438327Y29834698D01*
X64259699Y30013327D01*
X64026310Y30110000D01*
X62285750Y30110000D01*
X62127000Y29951250D01*
X61873000Y29951250D01*
X61714250Y30110000D01*
X59973690Y30110000D01*
X59740301Y30013327D01*
X59561673Y29834698D01*
X59465000Y29601309D01*
X53154519Y29601309D01*
X53095406Y29898489D01*
X52770550Y30384670D01*
X52455769Y30595000D01*
X52770550Y30805330D01*
X53095406Y31291511D01*
X53209480Y31865000D01*
X53095406Y32438489D01*
X52770550Y32924670D01*
X52455769Y33135000D01*
X52770550Y33345330D01*
X53095406Y33831511D01*
X53209480Y34405000D01*
X53095406Y34978489D01*
X52770550Y35464670D01*
X52455769Y35675000D01*
X52770550Y35885330D01*
X53095406Y36371511D01*
X53209480Y36945000D01*
X53095406Y37518489D01*
X52770550Y38004670D01*
X52455769Y38215000D01*
X52770550Y38425330D01*
X53095406Y38911511D01*
X53209480Y39485000D01*
X53095406Y40058489D01*
X52770550Y40544670D01*
X52455769Y40755000D01*
X52770550Y40965330D01*
X53095406Y41451511D01*
X53209480Y42025000D01*
X53095406Y42598489D01*
X52770550Y43084670D01*
X52455769Y43295000D01*
X52770550Y43505330D01*
X53095406Y43991511D01*
X53209480Y44565000D01*
X53095406Y45138489D01*
X52770550Y45624670D01*
X52455769Y45835000D01*
X52770550Y46045330D01*
X53095406Y46531511D01*
X53209480Y47105000D01*
X53095406Y47678489D01*
X52770550Y48164670D01*
X52455769Y48375000D01*
X52770550Y48585330D01*
X53095406Y49071511D01*
X53209480Y49645000D01*
X53095406Y50218489D01*
X52770550Y50704670D01*
X52455769Y50915000D01*
X52770550Y51125330D01*
X53095406Y51611511D01*
X53209480Y52185000D01*
X53095406Y52758489D01*
X52770550Y53244670D01*
X52455769Y53455000D01*
X52770550Y53665330D01*
X53095406Y54151511D01*
X53209480Y54725000D01*
X53095406Y55298489D01*
X52770550Y55784670D01*
X52417755Y56020400D01*
X52770550Y56256130D01*
X53095406Y56742311D01*
X53209480Y57315800D01*
X53095406Y57889289D01*
X52770550Y58375470D01*
X52284369Y58700326D01*
X51710880Y58814400D01*
X51119120Y58814400D01*
X50545631Y58700326D01*
X50059450Y58375470D01*
X49734594Y57889289D01*
X49620520Y57315800D01*
X37947440Y57315800D01*
X37947440Y58128600D01*
X37903162Y58363917D01*
X37764090Y58580041D01*
X37551890Y58725031D01*
X37300000Y58776040D01*
X35114241Y58776040D01*
X35653201Y59315000D01*
X53154132Y59315000D01*
X54840177Y57628955D01*
X54839760Y57150715D01*
X55050169Y56641485D01*
X55190000Y56501410D01*
X55190000Y49770007D01*
X55189999Y49770002D01*
X55268785Y49373925D01*
X55493144Y49038146D01*
X70040000Y34491291D01*
X70040000Y32825005D01*
X70039999Y32825000D01*
X70118785Y32428923D01*
X70343144Y32093144D01*
X72543142Y29893147D01*
X72543144Y29893144D01*
X72876611Y29670330D01*
X72878923Y29668785D01*
X73275000Y29589999D01*
X73275005Y29590000D01*
X73515000Y29590000D01*
X73515000Y29096192D01*
X73398523Y29021241D01*
X73251890Y29121431D01*
X73000000Y29172440D01*
X71500000Y29172440D01*
X71264683Y29128162D01*
X71048559Y28989090D01*
X70903569Y28776890D01*
X70891869Y28719114D01*
X70851890Y28746431D01*
X70600000Y28797440D01*
X69100000Y28797440D01*
X68864683Y28753162D01*
X68648559Y28614090D01*
X68602031Y28545994D01*
X68459698Y28688327D01*
X68226309Y28785000D01*
X67635750Y28785000D01*
X67477000Y28626250D01*
X67477000Y27652000D01*
X67497000Y27652000D01*
X67497000Y27398000D01*
X67477000Y27398000D01*
X67477000Y26423750D01*
X67635750Y26265000D01*
X68226309Y26265000D01*
X68459698Y26361673D01*
X68600936Y26502910D01*
X68635910Y26448559D01*
X68848110Y26303569D01*
X69100000Y26252560D01*
X70600000Y26252560D01*
X70835317Y26296838D01*
X70888993Y26331377D01*
X70896838Y26289683D01*
X71035910Y26073559D01*
X71215000Y25951192D01*
X71215000Y25778711D01*
X68667922Y23231634D01*
X68639090Y23276441D01*
X68570994Y23322969D01*
X68713327Y23465302D01*
X68810000Y23698691D01*
X68810000Y24289250D01*
X68651250Y24448000D01*
X67677000Y24448000D01*
X67677000Y24428000D01*
X67423000Y24428000D01*
X67423000Y24448000D01*
X66448750Y24448000D01*
X66290000Y24289250D01*
X66290000Y23698691D01*
X66386673Y23465302D01*
X66527910Y23324064D01*
X66473559Y23289090D01*
X66351192Y23110000D01*
X65697440Y23110000D01*
X65697440Y23175000D01*
X65653162Y23410317D01*
X65514090Y23626441D01*
X65301890Y23771431D01*
X65135000Y23805227D01*
X65135000Y24221782D01*
X65071439Y24541323D01*
X64890434Y24812216D01*
X64562216Y25140434D01*
X64291323Y25321439D01*
X63971782Y25385000D01*
X56550000Y25385000D01*
X56230459Y25321439D01*
X55959566Y25140434D01*
X54259566Y23440434D01*
X54078561Y23169541D01*
X54015000Y22850000D01*
X54015000Y8245868D01*
X51204132Y5435000D01*
X39265868Y5435000D01*
X47090434Y13259566D01*
X47124133Y13310000D01*
X47271439Y13530459D01*
X47335000Y13850000D01*
X47335000Y42451564D01*
X47673461Y42789436D01*
X47884759Y43298298D01*
X47885240Y43849285D01*
X47674831Y44358515D01*
X47285564Y44748461D01*
X46776702Y44959759D01*
X46225715Y44960240D01*
X45716485Y44749831D01*
X45326539Y44360564D01*
X45115241Y43851702D01*
X45114760Y43300715D01*
X45325169Y42791485D01*
X45665000Y42451061D01*
X45665000Y14195868D01*
X44710000Y13240868D01*
X44710000Y39076564D01*
X45048461Y39414436D01*
X45259759Y39923298D01*
X45260240Y40474285D01*
X45049831Y40983515D01*
X44660564Y41373461D01*
X44151702Y41584759D01*
X43600715Y41585240D01*
X43091485Y41374831D01*
X42701539Y40985564D01*
X42490241Y40476702D01*
X42489760Y39925715D01*
X42700169Y39416485D01*
X43040000Y39076061D01*
X43040000Y12920868D01*
X37191776Y7072644D01*
X34300907Y7072644D01*
X32727577Y8645974D01*
X34458642Y8645974D01*
X34480473Y8548843D01*
X34764127Y8035132D01*
X35222778Y7669075D01*
X35786600Y7506400D01*
X36048000Y7506400D01*
X36048000Y8878000D01*
X36302000Y8878000D01*
X36302000Y7506400D01*
X36563400Y7506400D01*
X37127222Y7669075D01*
X37585873Y8035132D01*
X37869527Y8548843D01*
X37891358Y8645974D01*
X37770217Y8878000D01*
X36302000Y8878000D01*
X36048000Y8878000D01*
X34579783Y8878000D01*
X34458642Y8645974D01*
X32727577Y8645974D01*
X32428080Y8945470D01*
X32338987Y9005000D01*
X32157187Y9126475D01*
X31837646Y9190036D01*
X20085000Y9190036D01*
X20085000Y10625000D01*
X20021439Y10944541D01*
X19980000Y11006559D01*
X19980000Y11185974D01*
X34458642Y11185974D01*
X34480473Y11088843D01*
X34764127Y10575132D01*
X35140177Y10275000D01*
X34764127Y9974868D01*
X34480473Y9461157D01*
X34458642Y9364026D01*
X34579783Y9132000D01*
X36048000Y9132000D01*
X36048000Y11418000D01*
X36302000Y11418000D01*
X36302000Y9132000D01*
X37770217Y9132000D01*
X37891358Y9364026D01*
X37869527Y9461157D01*
X37585873Y9974868D01*
X37209823Y10275000D01*
X37585873Y10575132D01*
X37869527Y11088843D01*
X37891358Y11185974D01*
X37770217Y11418000D01*
X36302000Y11418000D01*
X36048000Y11418000D01*
X34579783Y11418000D01*
X34458642Y11185974D01*
X19980000Y11185974D01*
X19980000Y11759609D01*
X20328629Y12107630D01*
X20414949Y12315512D01*
X20499990Y12109697D01*
X20892630Y11716371D01*
X21405900Y11503243D01*
X21961661Y11502758D01*
X22475303Y11714990D01*
X22680457Y11919787D01*
X23424392Y11919787D01*
X23493857Y11677603D01*
X24017302Y11490856D01*
X24572368Y11518638D01*
X24956143Y11677603D01*
X25025608Y11919787D01*
X24225000Y12720395D01*
X23424392Y11919787D01*
X22680457Y11919787D01*
X22868629Y12107630D01*
X22948395Y12299727D01*
X23002603Y12168857D01*
X23244787Y12099392D01*
X24045395Y12900000D01*
X24404605Y12900000D01*
X25205213Y12099392D01*
X25447397Y12168857D01*
X25634144Y12692302D01*
X25606362Y13247368D01*
X25447397Y13631143D01*
X25205213Y13700608D01*
X24404605Y12900000D01*
X24045395Y12900000D01*
X23244787Y13700608D01*
X23002603Y13631143D01*
X22952491Y13490682D01*
X22870010Y13690303D01*
X22680432Y13880213D01*
X23424392Y13880213D01*
X24225000Y13079605D01*
X25025608Y13880213D01*
X24956143Y14122397D01*
X24432698Y14309144D01*
X23877632Y14281362D01*
X23493857Y14122397D01*
X23424392Y13880213D01*
X22680432Y13880213D01*
X22504277Y14056675D01*
X22456439Y14297171D01*
X22275434Y14568064D01*
X21628064Y15215434D01*
X21590589Y15240474D01*
X21357171Y15396439D01*
X21037630Y15460000D01*
X15559161Y15460000D01*
X15239621Y15396440D01*
X14968727Y15215434D01*
X13891764Y14138471D01*
X13680460Y14096440D01*
X13409566Y13915434D01*
X13228829Y13734697D01*
X13101890Y13821431D01*
X12850000Y13872440D01*
X11600000Y13872440D01*
X11364683Y13828162D01*
X11148559Y13689090D01*
X11003569Y13476890D01*
X10952560Y13225000D01*
X10952560Y11725000D01*
X10996838Y11489683D01*
X11135910Y11273559D01*
X11204006Y11227031D01*
X11061673Y11084698D01*
X10965000Y10851309D01*
X10965000Y10260750D01*
X11123750Y10102000D01*
X12098000Y10102000D01*
X12098000Y10122000D01*
X12352000Y10122000D01*
X12352000Y10102000D01*
X12372000Y10102000D01*
X12372000Y9848000D01*
X12352000Y9848000D01*
X12352000Y8748750D01*
X12510750Y8590000D01*
X12976310Y8590000D01*
X13209699Y8686673D01*
X13275028Y8752002D01*
X13275028Y7489972D01*
X13338589Y7170431D01*
X13519594Y6899538D01*
X16409566Y4009566D01*
X16680460Y3828560D01*
X17000000Y3765000D01*
X51550000Y3765000D01*
X51869541Y3828561D01*
X52140434Y4009566D01*
X54420118Y6289250D01*
X61265000Y6289250D01*
X61265000Y4698691D01*
X61361673Y4465302D01*
X61540301Y4286673D01*
X61773690Y4190000D01*
X63364250Y4190000D01*
X63523000Y4348750D01*
X63523000Y6448000D01*
X63777000Y6448000D01*
X63777000Y4348750D01*
X63935750Y4190000D01*
X65526310Y4190000D01*
X65759699Y4286673D01*
X65938327Y4465302D01*
X66035000Y4698691D01*
X66035000Y6289250D01*
X65876250Y6448000D01*
X63777000Y6448000D01*
X63523000Y6448000D01*
X61423750Y6448000D01*
X61265000Y6289250D01*
X54420118Y6289250D01*
X55440434Y7309566D01*
X55621440Y7580460D01*
X55685000Y7900000D01*
X55685000Y8451309D01*
X61265000Y8451309D01*
X61265000Y6860750D01*
X61423750Y6702000D01*
X63523000Y6702000D01*
X63523000Y8801250D01*
X63777000Y8801250D01*
X63777000Y6702000D01*
X65876250Y6702000D01*
X66035000Y6860750D01*
X66035000Y7529696D01*
X66061673Y7465302D01*
X66240301Y7286673D01*
X66473690Y7190000D01*
X68064250Y7190000D01*
X68223000Y7348750D01*
X68223000Y9448000D01*
X68477000Y9448000D01*
X68477000Y7348750D01*
X68635750Y7190000D01*
X70226310Y7190000D01*
X70459699Y7286673D01*
X70638327Y7465302D01*
X70735000Y7698691D01*
X70735000Y9289250D01*
X70576250Y9448000D01*
X68477000Y9448000D01*
X68223000Y9448000D01*
X66123750Y9448000D01*
X65965000Y9289250D01*
X65965000Y8620304D01*
X65938327Y8684698D01*
X65759699Y8863327D01*
X65526310Y8960000D01*
X63935750Y8960000D01*
X63777000Y8801250D01*
X63523000Y8801250D01*
X63364250Y8960000D01*
X61773690Y8960000D01*
X61540301Y8863327D01*
X61361673Y8684698D01*
X61265000Y8451309D01*
X55685000Y8451309D01*
X55685000Y19114250D01*
X55965000Y19114250D01*
X55965000Y18523691D01*
X56061673Y18290302D01*
X56240301Y18111673D01*
X56473690Y18015000D01*
X56939250Y18015000D01*
X57098000Y18173750D01*
X57098000Y19273000D01*
X57352000Y19273000D01*
X57352000Y18173750D01*
X57510750Y18015000D01*
X57976310Y18015000D01*
X58209699Y18111673D01*
X58388327Y18290302D01*
X58485000Y18523691D01*
X58485000Y19114250D01*
X58326250Y19273000D01*
X57352000Y19273000D01*
X57098000Y19273000D01*
X56123750Y19273000D01*
X55965000Y19114250D01*
X55685000Y19114250D01*
X55685000Y22504132D01*
X55983461Y22802593D01*
X55952560Y22650000D01*
X55952560Y21150000D01*
X55996838Y20914683D01*
X56135910Y20698559D01*
X56204006Y20652031D01*
X56061673Y20509698D01*
X55965000Y20276309D01*
X55965000Y19685750D01*
X56123750Y19527000D01*
X57098000Y19527000D01*
X57098000Y19547000D01*
X57352000Y19547000D01*
X57352000Y19527000D01*
X58326250Y19527000D01*
X58485000Y19685750D01*
X58485000Y20276309D01*
X58388327Y20509698D01*
X58247090Y20650936D01*
X58301441Y20685910D01*
X58408918Y20843208D01*
X58485910Y20723559D01*
X58665000Y20601192D01*
X58665000Y20375005D01*
X58664999Y20375000D01*
X58743785Y19978923D01*
X58968144Y19643144D01*
X62615000Y15996289D01*
X62615000Y14972440D01*
X61900000Y14972440D01*
X61664683Y14928162D01*
X61448559Y14789090D01*
X61303569Y14576890D01*
X61252560Y14325000D01*
X61252560Y10825000D01*
X61296838Y10589683D01*
X61435910Y10373559D01*
X61648110Y10228569D01*
X61900000Y10177560D01*
X65400000Y10177560D01*
X65635317Y10221838D01*
X65851441Y10360910D01*
X65965000Y10527109D01*
X65965000Y9860750D01*
X66123750Y9702000D01*
X68223000Y9702000D01*
X68223000Y11801250D01*
X68477000Y11801250D01*
X68477000Y9702000D01*
X70576250Y9702000D01*
X70735000Y9860750D01*
X70735000Y11451309D01*
X70638327Y11684698D01*
X70459699Y11863327D01*
X70226310Y11960000D01*
X68635750Y11960000D01*
X68477000Y11801250D01*
X68223000Y11801250D01*
X68064250Y11960000D01*
X66473690Y11960000D01*
X66240301Y11863327D01*
X66061673Y11684698D01*
X66047440Y11650337D01*
X66047440Y14325000D01*
X66003162Y14560317D01*
X65864090Y14776441D01*
X65651890Y14921431D01*
X65400000Y14972440D01*
X64685000Y14972440D01*
X64685000Y16424995D01*
X64685001Y16425000D01*
X64606215Y16821077D01*
X64381856Y17156856D01*
X64381853Y17156858D01*
X60910339Y20628373D01*
X61123690Y20540000D01*
X61714250Y20540000D01*
X61873000Y20698750D01*
X61873000Y22048000D01*
X61853000Y22048000D01*
X61853000Y22302000D01*
X61873000Y22302000D01*
X61873000Y22322000D01*
X62127000Y22322000D01*
X62127000Y22302000D01*
X62147000Y22302000D01*
X62147000Y22048000D01*
X62127000Y22048000D01*
X62127000Y20698750D01*
X62285750Y20540000D01*
X62876310Y20540000D01*
X63109699Y20636673D01*
X63151660Y20678634D01*
X63298110Y20578569D01*
X63550000Y20527560D01*
X65050000Y20527560D01*
X65285317Y20571838D01*
X65501441Y20710910D01*
X65646431Y20923110D01*
X65670102Y21040000D01*
X66353808Y21040000D01*
X66460910Y20873559D01*
X66673110Y20728569D01*
X66925000Y20677560D01*
X68175000Y20677560D01*
X68410317Y20721838D01*
X68626441Y20860910D01*
X68748808Y21040000D01*
X68974995Y21040000D01*
X68975000Y21039999D01*
X69371077Y21118785D01*
X69706856Y21343144D01*
X70588711Y22225000D01*
X72002560Y22225000D01*
X72002560Y20225000D01*
X72046838Y19989683D01*
X72185910Y19773559D01*
X72398110Y19628569D01*
X72650000Y19577560D01*
X76450000Y19577560D01*
X76685317Y19621838D01*
X76901441Y19760910D01*
X77046431Y19973110D01*
X77097440Y20225000D01*
X77097440Y22225000D01*
X77053162Y22460317D01*
X76914090Y22676441D01*
X76701890Y22821431D01*
X76450000Y22872440D01*
X72650000Y22872440D01*
X72414683Y22828162D01*
X72198559Y22689090D01*
X72053569Y22476890D01*
X72002560Y22225000D01*
X70588711Y22225000D01*
X72981853Y24618142D01*
X72981856Y24618144D01*
X73143959Y24860750D01*
X73206215Y24953922D01*
X73285000Y25350000D01*
X73285000Y25953808D01*
X73401477Y26028759D01*
X73548110Y25928569D01*
X73800000Y25877560D01*
X75300000Y25877560D01*
X75535317Y25921838D01*
X75699492Y26027482D01*
X75740301Y25986673D01*
X75973690Y25890000D01*
X76564250Y25890000D01*
X76723000Y26048750D01*
X76723000Y27398000D01*
X76977000Y27398000D01*
X76977000Y26048750D01*
X77135750Y25890000D01*
X77726310Y25890000D01*
X77959699Y25986673D01*
X78138327Y26165302D01*
X78235000Y26398691D01*
X78235000Y27239250D01*
X78076250Y27398000D01*
X76977000Y27398000D01*
X76723000Y27398000D01*
X76703000Y27398000D01*
X76703000Y27652000D01*
X76723000Y27652000D01*
X76723000Y29001250D01*
X76977000Y29001250D01*
X76977000Y27652000D01*
X78076250Y27652000D01*
X78235000Y27810750D01*
X78235000Y28651309D01*
X78138327Y28884698D01*
X77959699Y29063327D01*
X77726310Y29160000D01*
X77135750Y29160000D01*
X76977000Y29001250D01*
X76723000Y29001250D01*
X76564250Y29160000D01*
X75973690Y29160000D01*
X75740301Y29063327D01*
X75698340Y29021366D01*
X75585000Y29098808D01*
X75585000Y29354442D01*
X75810317Y29396838D01*
X76026441Y29535910D01*
X76072969Y29604006D01*
X76215302Y29461673D01*
X76448691Y29365000D01*
X77039250Y29365000D01*
X77198000Y29523750D01*
X77198000Y30498000D01*
X77452000Y30498000D01*
X77452000Y29523750D01*
X77610750Y29365000D01*
X78201309Y29365000D01*
X78434698Y29461673D01*
X78613327Y29640301D01*
X78710000Y29873690D01*
X78710000Y30339250D01*
X78551250Y30498000D01*
X77452000Y30498000D01*
X77198000Y30498000D01*
X77178000Y30498000D01*
X77178000Y30752000D01*
X77198000Y30752000D01*
X77198000Y31726250D01*
X77452000Y31726250D01*
X77452000Y30752000D01*
X78551250Y30752000D01*
X78710000Y30910750D01*
X78710000Y31376310D01*
X78613327Y31609699D01*
X78434698Y31788327D01*
X78201309Y31885000D01*
X77610750Y31885000D01*
X77452000Y31726250D01*
X77198000Y31726250D01*
X77039250Y31885000D01*
X76448691Y31885000D01*
X76215302Y31788327D01*
X76074064Y31647090D01*
X76039090Y31701441D01*
X75826890Y31846431D01*
X75575000Y31897440D01*
X74075000Y31897440D01*
X73839683Y31853162D01*
X73639417Y31724294D01*
X72110000Y33253712D01*
X72110000Y34825715D01*
X75439760Y34825715D01*
X75650169Y34316485D01*
X76039436Y33926539D01*
X76548298Y33715241D01*
X77029311Y33714821D01*
X78913912Y31830220D01*
X78913912Y29618935D01*
X78575451Y29281063D01*
X78364153Y28772201D01*
X78363672Y28221214D01*
X78574081Y27711984D01*
X78963348Y27322038D01*
X79472210Y27110740D01*
X80023197Y27110259D01*
X80532427Y27320668D01*
X80922373Y27709935D01*
X81133671Y28218797D01*
X81134152Y28769784D01*
X80923743Y29279014D01*
X80583912Y29619438D01*
X80583912Y32176088D01*
X80520351Y32495629D01*
X80339346Y32766522D01*
X78209823Y34896045D01*
X78210187Y35314250D01*
X80065000Y35314250D01*
X80065000Y34723691D01*
X80161673Y34490302D01*
X80340301Y34311673D01*
X80573690Y34215000D01*
X81039250Y34215000D01*
X81198000Y34373750D01*
X81198000Y35473000D01*
X81452000Y35473000D01*
X81452000Y34373750D01*
X81610750Y34215000D01*
X82076310Y34215000D01*
X82309699Y34311673D01*
X82488327Y34490302D01*
X82585000Y34723691D01*
X82585000Y35314250D01*
X82426250Y35473000D01*
X81452000Y35473000D01*
X81198000Y35473000D01*
X80223750Y35473000D01*
X80065000Y35314250D01*
X78210187Y35314250D01*
X78210240Y35374285D01*
X77999831Y35883515D01*
X77610564Y36273461D01*
X77101702Y36484759D01*
X76550715Y36485240D01*
X76041485Y36274831D01*
X75651539Y35885564D01*
X75440241Y35376702D01*
X75439760Y34825715D01*
X72110000Y34825715D01*
X72110000Y35601216D01*
X72248461Y35739436D01*
X72459759Y36248298D01*
X72460179Y36729311D01*
X73623725Y37892857D01*
X76010789Y37892857D01*
X76348661Y37554396D01*
X76857523Y37343098D01*
X77408510Y37342617D01*
X77917740Y37553026D01*
X78307686Y37942293D01*
X78518984Y38451155D01*
X78519404Y38932168D01*
X79277236Y39690000D01*
X81609132Y39690000D01*
X81416572Y39497440D01*
X80700000Y39497440D01*
X80464683Y39453162D01*
X80248559Y39314090D01*
X80103569Y39101890D01*
X80052560Y38850000D01*
X80052560Y37350000D01*
X80096838Y37114683D01*
X80235910Y36898559D01*
X80304006Y36852031D01*
X80161673Y36709698D01*
X80065000Y36476309D01*
X80065000Y35885750D01*
X80223750Y35727000D01*
X81198000Y35727000D01*
X81198000Y35747000D01*
X81452000Y35747000D01*
X81452000Y35727000D01*
X82426250Y35727000D01*
X82585000Y35885750D01*
X82585000Y36476309D01*
X82488327Y36709698D01*
X82347090Y36850936D01*
X82401441Y36885910D01*
X82546431Y37098110D01*
X82597440Y37350000D01*
X82597440Y38316572D01*
X83420675Y39139807D01*
X83474285Y39139760D01*
X83983515Y39350169D01*
X84187671Y39553969D01*
X84116392Y635649D01*
X710539Y709373D01*
X714235Y5750715D01*
X4214760Y5750715D01*
X4425169Y5241485D01*
X4814436Y4851539D01*
X5323298Y4640241D01*
X5874285Y4639760D01*
X6383515Y4850169D01*
X6773461Y5239436D01*
X6984759Y5748298D01*
X6985240Y6299285D01*
X6774831Y6808515D01*
X6385564Y7198461D01*
X5876702Y7409759D01*
X5325715Y7410240D01*
X4816485Y7199831D01*
X4426539Y6810564D01*
X4215241Y6301702D01*
X4214760Y5750715D01*
X714235Y5750715D01*
X717122Y9689250D01*
X10965000Y9689250D01*
X10965000Y9098691D01*
X11061673Y8865302D01*
X11240301Y8686673D01*
X11473690Y8590000D01*
X11939250Y8590000D01*
X12098000Y8748750D01*
X12098000Y9848000D01*
X11123750Y9848000D01*
X10965000Y9689250D01*
X717122Y9689250D01*
X725931Y21705000D01*
X34380520Y21705000D01*
X34494594Y21131511D01*
X34819450Y20645330D01*
X35134231Y20435000D01*
X34819450Y20224670D01*
X34494594Y19738489D01*
X34380520Y19165000D01*
X34494594Y18591511D01*
X34819450Y18105330D01*
X35134231Y17895000D01*
X34819450Y17684670D01*
X34494594Y17198489D01*
X34380520Y16625000D01*
X34494594Y16051511D01*
X34819450Y15565330D01*
X35134231Y15355000D01*
X34819450Y15144670D01*
X34494594Y14658489D01*
X34380520Y14085000D01*
X34494594Y13511511D01*
X34819450Y13025330D01*
X35137468Y12812837D01*
X34764127Y12514868D01*
X34480473Y12001157D01*
X34458642Y11904026D01*
X34579783Y11672000D01*
X36048000Y11672000D01*
X36048000Y11692000D01*
X36302000Y11692000D01*
X36302000Y11672000D01*
X37770217Y11672000D01*
X37891358Y11904026D01*
X37869527Y12001157D01*
X37585873Y12514868D01*
X37212532Y12812837D01*
X37530550Y13025330D01*
X37855406Y13511511D01*
X37969480Y14085000D01*
X37855406Y14658489D01*
X37530550Y15144670D01*
X37215769Y15355000D01*
X37530550Y15565330D01*
X37855406Y16051511D01*
X37969480Y16625000D01*
X37855406Y17198489D01*
X37530550Y17684670D01*
X37215769Y17895000D01*
X37530550Y18105330D01*
X37855406Y18591511D01*
X37969480Y19165000D01*
X37855406Y19738489D01*
X37530550Y20224670D01*
X37215769Y20435000D01*
X37530550Y20645330D01*
X37855406Y21131511D01*
X37969480Y21705000D01*
X37855406Y22278489D01*
X37530550Y22764670D01*
X37212532Y22977163D01*
X37585873Y23275132D01*
X37869527Y23788843D01*
X37891358Y23885974D01*
X37770217Y24118000D01*
X36302000Y24118000D01*
X36302000Y24098000D01*
X36048000Y24098000D01*
X36048000Y24118000D01*
X34579783Y24118000D01*
X34458642Y23885974D01*
X34480473Y23788843D01*
X34764127Y23275132D01*
X35137468Y22977163D01*
X34819450Y22764670D01*
X34494594Y22278489D01*
X34380520Y21705000D01*
X725931Y21705000D01*
X734927Y33975000D01*
X9727560Y33975000D01*
X9727560Y28975000D01*
X9771838Y28739683D01*
X9910910Y28523559D01*
X10123110Y28378569D01*
X10375000Y28327560D01*
X15375000Y28327560D01*
X15610317Y28371838D01*
X15826441Y28510910D01*
X15971431Y28723110D01*
X16022440Y28975000D01*
X16022440Y30223478D01*
X23651532Y30223478D01*
X23651532Y29632919D01*
X23748205Y29399530D01*
X23926833Y29220901D01*
X24160222Y29124228D01*
X24625782Y29124228D01*
X24784532Y29282978D01*
X24784532Y30382228D01*
X25038532Y30382228D01*
X25038532Y29282978D01*
X25197282Y29124228D01*
X25662842Y29124228D01*
X25896231Y29220901D01*
X25965549Y29290220D01*
X26185222Y29199228D01*
X26650782Y29199228D01*
X26809532Y29357978D01*
X26809532Y30457228D01*
X27063532Y30457228D01*
X27063532Y29357978D01*
X27222282Y29199228D01*
X27687842Y29199228D01*
X27921231Y29295901D01*
X28099859Y29474530D01*
X28196532Y29707919D01*
X28196532Y30298478D01*
X28037782Y30457228D01*
X27063532Y30457228D01*
X26809532Y30457228D01*
X25835282Y30457228D01*
X25760282Y30382228D01*
X25038532Y30382228D01*
X24784532Y30382228D01*
X23810282Y30382228D01*
X23651532Y30223478D01*
X16022440Y30223478D01*
X16022440Y33975000D01*
X15978162Y34210317D01*
X15839090Y34426441D01*
X15626890Y34571431D01*
X15375000Y34622440D01*
X10375000Y34622440D01*
X10139683Y34578162D01*
X9923559Y34439090D01*
X9778569Y34226890D01*
X9727560Y33975000D01*
X734927Y33975000D01*
X742876Y44818279D01*
X9730655Y44818279D01*
X10537949Y42773182D01*
X12066416Y41192697D01*
X14083361Y40317438D01*
X14268279Y40280657D01*
X15148000Y40350223D01*
X15148000Y45698000D01*
X9800179Y45698000D01*
X9730655Y44818279D01*
X742876Y44818279D01*
X744352Y46831721D01*
X9730655Y46831721D01*
X9800179Y45952000D01*
X15148000Y45952000D01*
X15148000Y51299777D01*
X15402000Y51299777D01*
X15402000Y45952000D01*
X15422000Y45952000D01*
X15422000Y45698000D01*
X15402000Y45698000D01*
X15402000Y40350223D01*
X16281721Y40280657D01*
X16466639Y40317438D01*
X18483584Y41192697D01*
X19877560Y42634114D01*
X19877560Y40925000D01*
X19921838Y40689683D01*
X20060910Y40473559D01*
X20273110Y40328569D01*
X20525000Y40277560D01*
X21525000Y40277560D01*
X21760317Y40321838D01*
X21976441Y40460910D01*
X22121431Y40673110D01*
X22172440Y40925000D01*
X22172440Y50925000D01*
X22128162Y51160317D01*
X21989090Y51376441D01*
X21776890Y51521431D01*
X21525000Y51572440D01*
X20525000Y51572440D01*
X20289683Y51528162D01*
X20073559Y51389090D01*
X19928569Y51176890D01*
X19877560Y50925000D01*
X19877560Y49015886D01*
X18483584Y50457303D01*
X16466639Y51332562D01*
X16281721Y51369343D01*
X15402000Y51299777D01*
X15148000Y51299777D01*
X14268279Y51369343D01*
X14083361Y51332562D01*
X12066416Y50457303D01*
X10537949Y48876818D01*
X9730655Y46831721D01*
X744352Y46831721D01*
X757251Y64425000D01*
X9777560Y64425000D01*
X9777560Y59425000D01*
X9821838Y59189683D01*
X9960910Y58973559D01*
X10173110Y58828569D01*
X10425000Y58777560D01*
X15425000Y58777560D01*
X15660317Y58821838D01*
X15876441Y58960910D01*
X16021431Y59173110D01*
X16072440Y59425000D01*
X16072440Y61340000D01*
X26253456Y61340000D01*
X26572997Y61403561D01*
X26843890Y61584566D01*
X27429980Y62170656D01*
X27908220Y62170239D01*
X28417450Y62380648D01*
X28807396Y62769915D01*
X29018694Y63278777D01*
X29019175Y63829764D01*
X28808766Y64338994D01*
X28419499Y64728940D01*
X27910637Y64940238D01*
X27359650Y64940719D01*
X26850420Y64730310D01*
X26460474Y64341043D01*
X26249176Y63832181D01*
X26248756Y63351168D01*
X25907588Y63010000D01*
X16072440Y63010000D01*
X16072440Y64425000D01*
X16028162Y64660317D01*
X15889090Y64876441D01*
X15676890Y65021431D01*
X15425000Y65072440D01*
X10425000Y65072440D01*
X10189683Y65028162D01*
X9973559Y64889090D01*
X9828569Y64676890D01*
X9777560Y64425000D01*
X757251Y64425000D01*
X759421Y67385000D01*
X57968571Y67385000D01*
X57968571Y63565000D01*
X63381428Y63565000D01*
X63381428Y67385000D01*
X66225714Y67385000D01*
X66225714Y63565000D01*
X68924285Y63565000D01*
X68924285Y67385000D01*
X66225714Y67385000D01*
X63381428Y67385000D01*
X57968571Y67385000D01*
X759421Y67385000D01*
X759480Y67464615D01*
X73350714Y67400318D01*
M02*
