M48
;DRILL file {KiCad 4.0.7} date 03/26/18 16:32:21
;FORMAT={-:-/ absolute / metric / decimal}
FMAT,2
METRIC,TZ
T1C0.762
T2C0.800
T3C1.000
T4C1.016
T5C1.097
T6C1.500
%
G90
G05
M71
T1
X16.605Y12.9
X19.145Y12.9
X21.685Y12.9
X24.225Y12.9
T2
X22.25Y26.925
X26.421Y36.174
X27.634Y63.555
X43.875Y40.2
X46.5Y43.575
X56.225Y57.425
X71.075Y36.525
X76.825Y35.1
X77.134Y38.728
X79.749Y28.495
X83.2Y40.525
T4
X36.175Y57.265
X36.175Y54.725
X36.175Y52.185
X36.175Y49.645
X36.175Y47.105
X36.175Y44.565
X36.175Y42.025
X36.175Y39.485
X36.175Y36.945
X36.175Y34.405
X36.175Y31.865
X36.175Y29.325
X36.175Y26.785
X36.175Y24.245
X36.175Y21.705
X36.175Y19.165
X36.175Y16.625
X36.175Y14.085
X36.175Y11.545
X36.175Y9.005
X42.535Y53.455
X45.075Y53.455
X51.415Y57.316
X51.415Y54.725
X51.415Y52.185
X51.415Y49.645
X51.415Y47.105
X51.415Y44.565
X51.415Y42.025
X51.415Y39.485
X51.415Y36.945
X51.415Y34.405
X51.415Y31.865
X51.415Y29.325
X51.415Y26.785
X51.415Y24.245
X51.415Y21.705
X51.415Y19.165
X51.415Y16.625
X51.415Y14.085
X51.415Y11.545
X51.415Y9.005
T5
X60.47Y58.95
X63.01Y58.95
X65.55Y58.95
X68.09Y58.95
X73.345Y59.1
X75.885Y59.1
X78.425Y59.1
X80.965Y59.1
T6
X5.6Y6.025
X29.8Y6.025
T3
X62.65Y12.575G85X64.65Y12.575
G05
X62.65Y6.575G85X64.65Y6.575
G05
X68.35Y8.575G85X68.35Y10.575
G05
T0
M30
