M48
;DRILL file {KiCad 4.0.7} date 03/22/18 21:03:08
;FORMAT={-:-/ absolute / metric / decimal}
FMAT,2
METRIC,TZ
T1C0.762
T2C0.800
T3C1.000
T4C1.016
T5C1.097
%
G90
G05
M71
T1
X39.6Y68.53
X39.6Y65.99
X39.6Y63.45
X39.6Y60.91
T2
X38.691Y57.142
X41.479Y49.721
X43.Y23.45
X43.026Y47.92
X43.35Y38.625
X43.35Y36.25
T3
X9.075Y34.71
X9.075Y32.17
X9.075Y29.63
X9.075Y27.09
X9.075Y24.55
X9.075Y22.01
X9.075Y19.47
T4
X18.985Y53.085
X18.985Y50.545
X18.985Y48.005
X18.985Y45.465
X18.985Y42.925
X18.985Y40.385
X18.985Y37.845
X18.985Y35.305
X18.985Y32.765
X18.985Y30.225
X18.985Y27.685
X18.985Y25.145
X18.985Y22.605
X18.985Y20.065
X18.985Y17.525
X18.985Y14.985
X18.985Y12.445
X18.985Y9.905
X18.985Y7.365
X18.985Y4.825
X25.345Y49.275
X27.885Y49.275
X34.225Y53.136
X34.225Y50.545
X34.225Y48.005
X34.225Y45.465
X34.225Y42.925
X34.225Y40.385
X34.225Y37.845
X34.225Y35.305
X34.225Y32.765
X34.225Y30.225
X34.225Y27.685
X34.225Y25.145
X34.225Y22.605
X34.225Y20.065
X34.225Y17.525
X34.225Y14.985
X34.225Y12.445
X34.225Y9.905
X34.225Y7.365
X34.225Y4.825
T5
X60.025Y41.155
X60.025Y38.615
X60.025Y36.075
X60.025Y33.535
X60.05Y23.815
X60.05Y21.275
X60.05Y18.735
X60.05Y16.195
T0
M30
